<?xml version="1.0" encoding="utf-8"?>
<!-- Generator: Adobe Illustrator 21.0.0, SVG Export Plug-In . SVG Version: 6.00 Build 0)  -->
<svg version="1.1" id="Layer_1" xmlns="http://www.w3.org/2000/svg" xmlns:xlink="http://www.w3.org/1999/xlink" x="0px" y="0px"
	 viewBox="0 0 1280 720" style="enable-background:new 0 0 1280 720;" xml:space="preserve">
<style type="text/css">
	.st0{opacity:0.5;fill:#B6FFFF;}
	.st1{fill:#FFCCB3;}
	.st2{fill:#FFAE30;}
	.st3{fill:#0AA1C4;}
	.st4{fill:#FCDEB3;}
	.st5{fill:#9DBDC4;}
	.st6{fill:#0295AD;}
	.st7{fill:#6CB3C4;}
	.st8{fill:#3BAAC4;}
	.st9{fill:#FF5D0D;}
	.st10{fill:#FFB28D;}
	.st11{fill:#4C262A;}
	.st12{fill:#FF884D;}
	.st13{fill:#FF5A2E;}
	.st14{fill:#FF8C6E;}
	.st15{fill:#FFBFAE;}
	.st16{fill:#FF7133;}
	.st17{fill:#FF3C08;}
	.st18{fill:#FF716E;}
	.st19{fill:#F1F2F2;}
	.st20{fill:#FFBE59;}
	.st21{fill:#42B9CC;}
	.st22{fill:#2F444A;}
	.st23{fill:#4C727E;}
	.st24{fill:#ADD4E1;}
	.st25{fill:#0D252D;}
	.st26{fill:#5CA9C2;}
	.st27{fill:#FF7D3D;}
	.st28{fill:#F46E34;}
	.st29{fill:#FF9E6E;}
	.st30{fill:#1A4A5A;}
	.st31{fill:#3394B3;}
	.st32{fill:#73B5CB;}
	.st33{fill:#85BFD1;}
	.st34{fill:#79C7D3;}
	.st35{fill:#2FB299;}
	.st36{fill:#45CCB8;}
	.st37{fill:#37BFA8;}
	.st38{fill:#653338;}
	.st39{fill:#190D0E;}
	.st40{fill:#3DECFF;}
	.st41{fill:#AADCE6;}
	.st42{fill:#95D3E0;}
	.st43{fill:#BFE5EC;}
	.st44{fill:#D5EDF3;}
	.st45{fill:#709EA8;}
	.st46{fill:#FFCE83;}
	.st47{fill:#FF9764;}
	.st48{fill:#FFB48F;}
	.st49{fill:#30EBFF;}
	.st50{fill:#FFC4A7;}
	.st51{fill:#EFA500;}
	.st52{fill:#FED517;}
	.st53{fill:#FFCE00;}
	.st54{fill:#FDE01A;}
	.st55{fill:#FFB600;}
	.st56{fill:#FFFFFF;}
</style>
<path class="st0" d="M876.7,298.9c169.2-35.2,320.9-10.3,339,55.8s-104.5,148.1-273.6,183.4s-320.9,10.3-339-55.8
	S707.6,334.2,876.7,298.9z"/>
<path class="st1" d="M908.3,187.9c0,0-15.1-5-11.6,23c2.3,18.2,7.9,30.6,7.9,30.6s-9.2,2.6-14.2,17.4c-2.4,7.2-8,11.2-8,11.2
	l3.2,9.2c0,0,24.3-18,26.2-29.9C913.7,237.5,919.6,190.9,908.3,187.9z"/>
<path class="st2" d="M888.7,260.3c0,0,3.1-1.4,7,1.9s0.9,8.6,0.9,8.6l-11.2,9.5c0,0-10.8,5.3-12.2,4.9c-1.5-0.5-6.2-8.9-6.2-8.9
	s4.8-9.9,6.9-11.1c2.1-1.2,9.2-1.4,9.2-1.4l0.5,4.5L888.7,260.3L888.7,260.3z"/>
<path class="st3" d="M894.1,226.5c0,0-2.5-32.8,3.5-36.3s12.6-6.7,12.6-6.7l-0.5,53.3L894.1,226.5L894.1,226.5z"/>
<path class="st4" d="M954.8,371c0,0,7.3,5.9,9.7,11.4s12.8,45.5,10,51.9s-12.8,20.6-12.8,24.7s-1.2,4.5,7.7,2.8s9.3-2.1,10.7-5.9
	s6.2-16.1,6.2-16.1l0.7-10.6c0,0-2.4-3.4-2.4-6.5s1.4-30.9-0.7-37.5c-2.1-6.6-11.4-17.3-11.4-17.3s-1-72.3-4.8-77.7
	s-11.8-18-11.8-18l-19.2,5.3c0,0-7.2,20-3.6,30.1C936.7,317.6,951.7,367.8,954.8,371L954.8,371z"/>
<path class="st5" d="M917.8,414.9c0,0-3.2,2.1-0.8,4.5s14-0.7,19.2-2.7c5.3-2,4.1-7,4.1-7s1.7,4.7,1.7,7.8s-0.2,4.7-2.3,5.9
	c-2.1,1.2-10-0.9-12,0s-9.8,6.5-15.5,5.6s-12.5-4.6-12.5-4.6s-3.5-2.6,11.9-8.6C914.8,414.5,917.8,414.9,917.8,414.9L917.8,414.9z"
	/>
<path class="st4" d="M919.8,260c0,0-8.7,2.6-10.4,18.5s4.8,42.2,10.4,53c5.5,10.8,2.4,14.8,4.8,17.2c2.4,2.4,2.4,2.2,2.4,14.3v45.1
	l-13.2,6.1c0,0-2.8-1.8-5.5,0.9s-6.6,3.1-6.6,6.3s10.8,2.6,12.7,2.6s7.1-4.8,15.1-4.8s10.2,2.4,11.5-1.8s-2-8,0-16
	s10.7-29.8,7.9-36.4s-5.7-16.9-5.7-23s2-17.2,0.6-27.6C942.3,304,938.2,256.9,919.8,260L919.8,260z"/>
<path class="st6" d="M953.7,339.3c-5.1-19.9-8.4-24.2-8.5-38.5c-0.1-14.4-16.1-44.5-28.8-34.9l-2.2-1.3c0,0-8.7,12.8-6.5,28.1
	s11,46.4,13.1,54.2c1.8,6.6,4.7,16.5,5.8,25.4l-1.2,34.9c0,0,0.8,3.6,7.8,3.1s13.7-3.9,13.7-3.9S958.8,359.2,953.7,339.3
	L953.7,339.3z"/>
<path class="st7" d="M917.8,412.3c0,0-3.2,2.1-0.8,4.5s14-0.7,19.2-2.7c5.3-2,4.1-7,4.1-7s1.7,4.7,1.7,7.8s-0.2,4.7-2.3,5.9
	s-10-0.9-12,0s-9.8,6.5-15.5,5.6s-12.5-4.6-12.5-4.6s8.4-8.6,11.9-8.6S917.8,412.3,917.8,412.3L917.8,412.3z"/>
<path class="st5" d="M965.9,449.7c0,0-0.5,1.7,4.2,3.3c4.7,1.6,9.9-3.4,12.3-7.2s4.2-16.7,4.2-16.7s0.6,0.8,1.3,3.2c0.7,2.3,0,6,0,6
	s-0.5,15.4-5.2,21.6s-19.3,7-19.3,7s-4.2-2.3-2.1-8.1C963.4,453.1,965.9,449.8,965.9,449.7L965.9,449.7z"/>
<path class="st7" d="M969.3,443.9c0,0-4.8,5.3,0,6.9c4.7,1.6,9.9-3.4,12.3-7.3s4.2-16.7,4.2-16.7s0.6,0.8,1.3,3.2c0.7,2.3,0,6,0,6
	s-0.5,15.4-5.2,21.6s-19.3,7-19.3,7s-4.2-2.3-2.1-8.1C962.6,450.8,969.3,443.9,969.3,443.9L969.3,443.9z"/>
<path class="st3" d="M985.1,387L985.1,387c0.1-8.1-9.2-16.6-9.2-16.6s0-65.2-5.1-81.9s-26-26.2-39.4-18.5s18,97.5,18,97.5
	s20.9,36.9,22.5,46.2s1.6,15.3,1.6,15.3s-1.7,4.7,6.5,2.6c8.2-2.2,12.8-9.4,12.8-9.4S987.4,399.7,985.1,387L985.1,387z"/>
<path class="st8" d="M899.3,204.4c0,0-4.4-17,10.9-20.9c15.3-3.9,41.5,16.6,49.5,24.5s1.7,23.3-1.8,39.2c-3.6,15.9,1.7,7.4,6.6,22.7
	s6.3,18.5,6.3,18.5s-9.3,13.4-23.4,13.4s-40.8-9.8-40.8-9.8s0.5-20,1.2-35.1C908.8,236.2,899.3,204.4,899.3,204.4L899.3,204.4z"/>
<path class="st9" d="M910.3,207.6l25.9,14.9c0,0,1.6,19.2,6.6,27.8c5,8.6,18.4,12.2,18.4,12.2l4.3,72.3c0,0-15.4,8.3-37.4,0
	c-16-6-19.3-16-19.3-16l-5.8-83.2c0,0,1.7,0,5.2-6.5C910,226,910.3,207.7,910.3,207.6L910.3,207.6z"/>
<path class="st9" d="M908.2,229.3c0,0-5.8-27.2-3.7-34.6S912,183,912,183l4.5,2.6c0,0-7.9,4.6-6.6,13.7c1.2,9.1,3.5,23.3,3.5,23.3
	L908.2,229.3L908.2,229.3z"/>
<path class="st10" d="M917.4,193.2c0,0,0.5,2.8,0,6.1c-0.5,3.4,0.1,5.2,0.7,6.8c2.2,5.9,16.8-7.2,22.6-10.8c3.3-2-6.6-3-5.7-9.1
	c0.9-6.1-2-10.6-2-10.6L917.4,193.2L917.4,193.2z"/>
<path class="st1" d="M923.4,144.8c-0.8,0.1-14.4,3.4-18.1,11.6s-0.5,12.7-0.6,15.1c-0.1,2.3-1.6,1.8-1.7,5.4s2.3,5.8,2.2,7.8
	c-0.1,1.9,2.7,3.5,2.6,7.2c-0.1,3.7,4.2,3.9,8.5,3.3c6-0.8,22.2-12.5,25-21C944.1,165.2,947.2,141.3,923.4,144.8L923.4,144.8z"/>
<path class="st11" d="M909.7,150c0,0,3.7,17.1,8,21.8c4.4,4.7,17.4,11.1,17.4,11.1s-1.4,5.4-0.4,6.8c2,2.7,12.7,8.1,12.7,8.1
	s0.2-9.7-2.2-12.3s-5.1-6.7-5.1-6.7s17.2-22-1.2-34.4C918.5,130.7,909.7,150,909.7,150L909.7,150z"/>
<path class="st12" d="M929.4,175.2c0.1-0.1,2.5-2.7,3.6-1.3s1.4,3.6,0.1,6c-1.3,2.4-3.6,5.1-5.4,4.5c-1.7-0.6-2.3-0.5-2.8-2.2
	s0.6-3,0.6-3L929.4,175.2L929.4,175.2z"/>
<path class="st1" d="M928.7,175.2c0.1-0.1,2.5-2.7,3.6-1.3s1.4,3.6,0.1,6c-1.3,2.4-3.6,5.1-5.4,4.5c-1.7-0.6-2.3-0.5-2.8-2.2
	c-0.5-1.6,0.6-3,0.6-3L928.7,175.2L928.7,175.2z"/>
<path class="st12" d="M929.8,176.4c0,0,0,1.7,0,2.4s-0.2,1.9-0.7,2.3c-0.5,0.4-1,0.6-1,0.6s1-2.6,1.1-3.7c0.1-1.1,0.3-2,1-2.6
	s1.4-1.4,1.8-0.3c0.4,1.1,0.7,2.3,0,3.8c-0.7,1.6-1.8,3.1-2.8,3.6s-2.1,0.5-2.1,0.5s2.2-0.2,3.2-1.9s2.1-4.5,1.7-5.2
	c-0.4-0.7-0.4-0.8-0.7-0.1s-0.2,1.8-0.6,1.3s-0.1-1.5-0.5-1.2C929.7,176.3,929.8,176.4,929.8,176.4L929.8,176.4z"/>
<path class="st12" d="M928.4,179.4c0,0,0.2-1.6-0.1-1.6s-0.4-0.1-0.8,0.4c-0.4,0.4-0.5,0.6-0.9,0.3s-0.6-0.8-0.4,0
	c0.2,0.8,0.5,0.1,1.1,0.8c0.5,0.7,0.1,1.3,0.5,1.5c0.5,0.2,0.5-0.9,0.5-1.3L928.4,179.4L928.4,179.4z"/>
<path class="st11" d="M903.9,165.1c0,0-3.6-6.1-1.5-11.4c2.1-5.2,7.4-4.9,7.4-4.9s3.5,1.8,1.2,5.1
	C908.8,157.2,903.9,161.1,903.9,165.1z"/>
<path class="st13" d="M905,248.9c0,0,1.7,11.4,4.9,14.5s7.2-3.3,9.3-5.4c2.1-2.1,4.1-6.9,0.8-10.4C916.6,244.1,905,248.9,905,248.9z
	"/>
<path class="st1" d="M955,211.9c0,0-7.4-1.5-11.8,8.3c-4.4,9.8-2.3,20.6-2.8,24.8c-0.8,6.5-2.7,16-2.7,16s-9-4.9-17-8.7
	c-6.5-3-17.7-19.3-17.7-19.3l-5.3,7.9c0,0,16.9,20.9,27.3,27.9c6,4.1,12.7,9.7,14.6,8.2c1.9-1.5,17-26,18.6-33.5
	C959.6,236.2,968.5,214.2,955,211.9L955,211.9z"/>
<g>
	<path class="st14" d="M855.2,453.3c-2-0.7-4-0.7-5.4-2c0.7,1.4,2,2.7,3.4,3.4c-2,0-3.4-1.3-4.7-2c-0.7,0-1.3,0-0.7,0.7
		c1.3,0.7,2,2,3.4,2.7c-2,0-3.4-2-5.4-2c1.3,0.7,1.3,2.7,2.7,3.4c-1.3-0.7-2.7-2.7-4.7-2.7c0.7,0.7,0.7,2,0.7,3.4
		c-1.3-1.4-0.7-3.4-2-4c0,1.3-0.7,2.7-2,4c-0.7-1.4,0.7-2.7,0.7-4c-1.3,1.3-2.7,2-4,3.4c0-1.3,0.7-2.7,2-4c-2,0-2.7,2.7-4.7,2.7
		c0-1.4,2-2,2-3.4c-1.3,0.7-2.7,2-4.7,2l2.7-2.7c-2,0-3.4,2-5.4,2c0.7-1.4,3.4-1.4,3.4-3.4c-2,0-3.4,1.3-4.7,2c0.7-1.4,2-2,2.7-3.4
		c-1.3,2-4,1.3-5.4,2.7c0.7-2,2.7-2,3.4-3.4c-2,0-3.4,1.3-4.7,2c-0.7,0-0.7,0-0.7-0.7c0.7-1.3,2.7-0.7,3.4-2.7c-2,0-3.4,2-5.4,2
		c0.7-1.4,2.7-1.4,3.4-3.4c-2,0.7-3.4,1.3-5.4,2c0.7,0,1.3-0.7,1.3-0.7c0.7-0.7,0.7-1.3,2-2c-2,0.7-3.4,1.4-5.4,2
		c0.7-2,2.7-2,3.4-3.4c-2,0-3.4,1.3-4.7,2c-0.7,0-0.7,0-0.7-0.7c0.7-1.3,2.7-0.7,3.4-2.7c-2,0-3.4,1.4-4.7,2c-0.7,0-0.7,0-0.7-0.7
		c0.7-1.4,2.7-0.7,3.4-2.7c-2,0.7-3.4,1.3-5.4,2c0.7-1.3,2.7-1.3,3.4-2.7c-2-0.7-3.4,1.4-5.4,1.4c2,0,2-2.7,4-2.7
		c-2,0.7-4,0.7-6.1,2c1.3-1.4,2.7-2,4-3.4c-2,0-4,2-6.1,2c1.3-1.4,2.7-2,4-3.4c-2,0-4,2-6,2c1.3-1.3,2.7-2,4-3.4c-2,0-4,2-6,2
		c2-0.7,2.7-2,4-3.4c-2,1.4-4.7,0.7-6,2.7c1.3-1.3,2-2.7,4-3.4c-2,0-4,2-6,2c1.3-1.4,2.7-2,4-2.7c0.7-0.7,0-0.7-0.7-0.7
		c-2,0.7-3.4,1.4-5.4,2c1.3-1.4,2.7-2,4-2.7c0.7-0.7,0-0.7-0.7-0.7c-1.3,1.3-2.7,2-4.7,2c0.7-1.4,2.7-2,3.4-3.4
		c-1.3,1.4-4,1.4-5.4,2.7c0.7-1.3,2-2.7,3.4-3.4c-2,0-3.4,1.3-5.4,2c0.7-2,3.4-1.4,4-3.4c-2,0.7-4,0.7-5.4,2c-0.7,0.7-1.3,0-0.7-0.7
		c1.3-0.7,2.7-1.4,4-2.7c-2,0.7-4,1.3-6.1,2c1.3-1.4,2.7-2.7,4.7-2.7c-2.7,0-4.7,0.7-6.7,1.3c2-0.7,3.4-1.3,4.7-2.7
		c-2,0.7-3.4,0-5.4,1.3c-0.7,0-0.7-0.7-0.7-0.7c2,0,3.4-1.3,5.4-2c-2-0.7-4.7,0.7-6.7,0.7c2-1.4,4.7-1.4,6.7-1.4
		c-2-0.7-4.7-0.7-6.7-1.3c2-0.7,4.7,0.7,6.7,0.7c-1.3-2-3.4-1.4-4.7-2.7c2-0.7,4,1.3,6,1.3c-1.3-1.3-2.7-2-4-2.7c2,0,4,2,6,1.4
		c-2,0-2-2.7-4-2.7c2.7-0.7,3.4,2,6,2c-1.3-1.3-2.7-2-4-3.4c2,0,4,2,6,2c-1.3-1.4-2.7-2-4-3.4c2,0,4,2,6.1,2c-2-0.7-2-2-3.4-3.4
		c1.3,1.3,2.7,2,4.7,2.7c0-1.4-1.3-2-2-3.4c1.3,1.3,2.7,2,4,3.4v-4c1.3,1.4,0.7,2.7,1.3,4c1.3-1.4,1.3-2.7,2.7-4
		c0,1.4-1.3,2.7-0.7,4c1.3-1.4,2.7-2,4-3.4c-1.3,1.3-2,2.7-2,4c1.3-1.3,2.7-2.7,4.7-2.7c0,2-3.4,2-2.7,3.4c0.7,0.7,2-0.7,3.4-2
		c0.7-0.7,1.3-0.7,2-0.7c-1.3,0.7-2,2.7-3.4,3.4c2,0,3.4-2,5.4-2l-2.7,2.7c2,0,3.4-1.3,4.7-2c0,2-3.4,2-2.7,2.7
		c1.3,1.4,3.4-1.3,5.4-1.3c-0.7,1.3-3.4,1.3-3.4,3.4c2,0,3.4-1.3,4.7-2l-2.7,2.7c2-0.7,3.4-1.3,5.4-2c0,2-3.4,1.3-3.4,3.4
		c2,0,3.4-1.3,4.7-2c0.7,0,0.7,0,0.7,0.7c-0.7,0.7-2,0.7-2.7,1.3c-0.7,0-0.7,1.4-0.7,1.4c2,0.7,3.4-2,5.4-2
		c-0.7,1.4-2.7,1.4-3.4,2.7c2,0.7,3.4-0.7,4.7-1.4c-1.3,0.7-1.3,2.7-3.4,2.7c2-0.7,4-0.7,6.1-1.3c-2,0-2,2.7-4,2.7
		c2-0.7,4-0.7,6.1-2c-1.3,1.4-2.7,2-4,3.4c2,0,4-2,6.1-2c-0.7,2-3.4,1.3-4,3.4c2,0,3.4-2,5.4-2c0,0.7-0.7,0.7-0.7,1.4
		c-0.7,0.7-2,0.7-2.7,1.3c2,0.7,3.4-1.3,5.4-1.3c-0.7,0-1.3,0.7-1.3,0.7c-0.7,0.7-0.7,1.4-2,2c2-0.7,3.4-1.3,5.4-2
		c0,2-3.4,1.4-3.4,3.4c2,0,3.4-1.4,4.7-2c0.7,0,1.3,0,0.7,0.7c-1.3,0.7-2.7,1.4-4,2.7c2-0.7,3.4-1.4,5.4-2c-0.7,2-2.7,2-3.4,3.4
		c2,0,3.4-2.7,6-2c-2,0-2,2.7-4,2.7c2,0,4-1.3,6-2c-1.3,1.4-2.7,2-4,3.4c2-0.7,4-1.4,6-2c-1.3,1.3-3.4,1.3-4,3.4
		c1.3-1.3,3.4-1.3,5.4-2c-1.3,1.3-2.7,2-4,3.4c2-0.7,4-2,6.1-2c-1.3,0.7-2.7,2-4,2.7c2,0,4-2,6-1.3c-2,0-2.7,2.7-4.7,2.7
		c2-0.7,4.7-0.7,6.7-2c-1.3,2-3.4,1.4-4.7,3.4c2-0.7,4-1.3,6-1.3c-1.3,0.7-3.4,1.3-4.7,2c-0.7,0.7,0,0.7,0.7,0.7
		c2-1.4,3.4-0.7,5.4-1.4c-1.3,1.4-3.4,1.4-5.4,2h6.7c-2,0-4,1.4-6,0.7c2,1.3,4,0.7,6,1.3h-6.7c2,0.7,3.4,1.4,5.4,2c-2,0-4-1.4-6-0.7
		c1.3,1.3,3.4,0.7,4,2.7c-1.3-1.4-3.4-1.4-5.4-2c0,2,3.4,1.3,3.4,3.4c-2-0.7-3.4-2-5.4-2c0.7,0,1.3,0.7,1.3,0.7
		C853.8,451.9,853.8,452.6,855.2,453.3z"/>
	<path class="st15" d="M789.9,414.4c1.9,0,3.9,0.6,5.2,1.3c-1.3-0.6-1.3-2.6-3.2-2.6c1.9,0,3.9,1.9,5.8,1.9
		c-0.7-1.3-2.6-1.3-3.2-2.6c-0.7-0.6,0-0.6,0.6-0.6c1.3,1.3,3.2,1.3,3.9,2.6c0-1.3-1.9-2.6-1.9-3.9c1.3,1.3,2.6,1.9,3.9,3.2
		c0-1.3,0-1.9-0.7-3.2l0.7-0.6c0.7,1.3,0,3.2,1.3,3.2c1.3,0.6,1.3-1.9,2.6-3.2c0,1.3-1.3,2.6-0.7,3.9c0.7-1.3,2.6-1.9,3.9-3.2
		c-1.3,1.3-1.9,2.6-1.9,3.9c1.3-1.3,2.6-2.6,4.5-2.6c-0.7,1.3-2.6,1.3-2.6,3.2c1.9,0,3.2-1.3,4.5-1.9c-1.3,0.6-1.3,2.6-2.6,2.6
		c1.9,0,3.2-1.9,5.2-1.9l-3.2,3.2c1.9,0,3.2-1.9,5.2-1.9c-1.3,0.6-1.3,2.6-3.2,2.6c1.9-0.6,3.9-0.6,5.8-1.9
		c-1.3,1.3-2.6,1.9-3.9,3.2c1.9,0,3.9-1.9,5.8-1.9c-1.3,1.3-2.6,1.9-3.9,3.2c1.9,0,3.9-1.9,5.8-1.9c-1.9,0.6-2.6,1.9-3.9,3.2
		c1.3-1.3,3.9-0.6,5.2-1.9c-1.3,0.6-1.3,2.6-3.2,2.6c1.9-0.6,3.9-0.6,5.8-1.9c-1.3,1.3-2.6,1.9-3.9,3.2c1.9,0,3.9-1.9,5.8-1.9
		c-1.3,1.3-2.6,1.9-3.9,3.2c1.9,0,3.9-1.9,5.8-1.9c-1.3,1.3-2.6,1.9-3.9,3.2c1.9-0.6,3.9-1.9,5.8-1.9c-1.9,0-1.9,2.6-3.9,2.6
		c1.9,0,3.2-1.3,5.2-1.3c-1.3,0.6-1.9,1.9-3.2,2.6c1.9-0.6,3.2-1.3,5.2-1.9c-0.7,1.9-2.6,1.9-3.2,3.2c1.9,0,3.2-1.3,4.5-1.9
		c0.7,0,0.7,0,0.7,0.6c-0.7,1.3-2.6,0.6-3.2,2.6c1.9,0,3.2-1.3,4.5-1.9c0.7,0,0.7,0,0.7,0.6c-0.7,1.3-2.6,0.6-3.2,2.6
		c1.9-0.6,3.2-1.3,5.2-1.9c-1.3,0.6-1.9,1.9-3.2,2.6c1.9-0.6,3.2-1.3,5.2-1.9c-1.3,1.3-1.9,2.6-3.9,3.2c1.9,0,3.2-1.3,5.2-1.9
		c0.7,0,1.3,0,0.7,0.6c-1.3,0.6-2.6,1.3-3.9,2.6c1.9-0.6,3.2-1.3,5.2-1.9c0.7,0,1.3,0,0.7,0.6c-1.3,0.6-2.6,1.3-3.9,2.6
		c1.9,0,3.9-1.9,5.8-1.9c-1.9,0.6-2.6,1.9-3.9,3.2c1.9-1.3,3.9-1.3,5.8-2.6c-1.3,1.3-1.9,2.6-3.9,3.2c1.9,0,3.9-1.9,5.8-1.9
		c-1.3,1.3-2.6,1.9-3.9,2.6c-0.7,0.6,0,0.6,0.7,0.6c1.9-0.6,3.2-1.3,5.2-1.9c-1.3,1.9-3.2,1.9-4.5,3.2c1.9-0.6,3.9-1.3,5.8-1.9
		c-0.7,1.3-2.6,1.9-3.9,2.6c1.9,0,3.9-0.6,5.8-1.3c-1.3,0.6-2.6,1.9-4.5,2.6c2.6,0,4.5-0.6,6.5-1.3c-1.9,1.3-3.9,1.3-5.8,2.6
		c1.9,0.6,4.5-0.6,6.5-0.6c-1.9,1.3-3.9,0.6-5.8,1.3c1.9,1.3,3.9,0,5.8,1.3c-1.9,0.6-4.5-0.6-6.5-0.6c1.3,1.3,3.2,1.3,4.5,2.6
		c-1.9-0.6-3.9-1.3-5.8-1.3c1.9,0,1.9,2.6,3.9,2.6c-1.9,0.6-3.2-1.9-5.2-1.3c1.3,0.6,1.9,1.9,3.2,2.6c-1.9-0.6-3.9-0.6-5.2-1.9
		c0,1.9,3.2,1.3,3.2,3.2c-1.9,0-3.2-1.3-4.5-1.9c-0.7,0-0.7,0-0.7,0.6c0.7,1.3,1.9,1.3,3.2,1.9c-1.9,0.6-3.2-1.3-5.2-1.3
		c1.3,0.6,1.3,2.6,3.2,2.6c-1.9,0-3.2-1.3-4.5-1.9c-0.7,0-0.7,0-0.7,0.6c1.3,0.6,1.9,1.3,1.9,2.6c-1.3-0.6-1.9-2.6-3.2-2.6
		c-0.7-0.6-0.7,1.3,0,2.6l-0.7,0.6c-0.7-1.3-0.7-2.6-1.3-3.9c0,1.9-2.6,1.9-1.9,3.9c0-1.3,0-1.9,0.7-3.2l-0.7-0.6
		c-0.7,1.3-2.6,1.3-3.2,3.2c0-1.3,1.3-2.6,1.3-3.9c-1.3,1.3-2.6,1.9-3.9,2.6c0-1.3,2.6-1.9,1.9-3.2c-1.3-0.6-2.6,1.9-3.9,2.6
		c-0.7,0.6-0.7,0-0.7-0.6c0.7-1.3,2.6-1.3,2.6-2.6c-1.9,0-3.2,1.3-4.5,1.9c0-1.9,2.6-1.9,2.6-3.2c-1.9,0.6-3.2,1.3-5.2,1.9
		c1.9,0,1.3-2.6,3.2-2.6c-1.9,0-3.2,1.3-4.5,1.9c-0.7,0-0.7,0-0.7-0.6c0.7-1.3,2.6-1.3,3.2-2.6c-1.9,0-3.2,1.9-5.2,1.9l3.2-3.2
		c-1.9,1.3-3.9,0.6-5.2,2.6c0.7-1.9,1.3-2.6,3.2-3.2c-1.9,0-3.2,1.3-5.2,1.9c0-1.9,2.6-1.9,3.2-3.2c-1.9,0-3.2,1.3-4.5,1.9
		c-0.7,0-0.7,0-0.7-0.6c0.7-1.3,3.2-0.6,3.2-2.6c-1.9,0-3.2,1.9-5.2,1.9c0.7-1.3,2.6-1.9,3.2-3.2c-1.9,0.6-3.2,1.3-5.2,1.9
		c0.7,0,1.3-0.6,1.3-0.6c0.7-0.6,0.7-1.3,1.9-1.9c-1.9,0.6-3.2,1.3-5.2,1.9c0.7-1.9,2.6-1.9,3.2-3.2c-1.9,0-3.2,1.3-4.5,1.9
		c-0.7,0-0.7,0-0.7-0.6c0.7-0.6,1.9-0.6,2.6-1.3c0.7,0,0.7-1.3,0.7-1.3c-1.9-0.6-3.2,1.9-5.2,1.9c1.3-1.3,2.6-1.9,3.9-3.2
		c-1.3,1.3-3.9,0.6-5.2,1.9c1.3-0.6,1.3-2.6,3.2-2.6c-1.9,0.6-3.9,0.6-5.8,1.9c1.3-1.3,2.6-1.9,3.9-3.2c-1.9,0-3.9,1.9-5.8,1.9
		c1.3-1.3,2.6-1.9,3.9-2.6c0.7-0.6,0-0.6-0.7-0.6c-1.3,1.3-3.2,0.6-4.5,1.9c0-1.9,2.6-1.3,3.2-2.6c0.7-0.6,0-0.6-0.7-0.6
		c-1.3,1.3-2.6,1.9-4.5,1.9c0.7,0,1.3-0.6,1.3-0.6c0.7-0.6,0.7-1.3,1.9-1.9c-1.9,0-3.9,0.6-5.2,1.9c0.7-1.3,2.6-1.9,3.9-3.2
		c-1.9,0.6-3.9,0.6-5.2,1.9c-0.6,0.6-1.3,0-0.6-0.6c1.3-0.6,2.6-1.3,3.9-2.6c-1.9,0.6-3.9,1.3-5.8,1.9c1.3-1.3,2.6-1.9,3.9-2.6
		c0.7-0.6,0-0.6-0.7-0.6c-1.3,1.3-3.2,1.9-5.2,1.9c1.9,0,2.6-3.2,4.5-2.6c-1.9-0.6-3.9,1.9-5.8,1.3c1.9,0,1.9-2.6,3.9-2.6
		c-1.9-0.6-3.9,1.3-5.8,1.3c1.3-1.3,3.2-1.3,4.5-2.6c-1.9,0.6-3.9,1.3-6.5,1.3c1.9-0.6,3.2-1.9,5.2-2.6c-1.9,0.6-3.9,1.3-6.5,1.3
		c1.9-0.6,3.2-1.3,5.2-1.9h-6.5c2.6,0,4.5-0.6,6.5-1.3c-1.9,0.6-4.5-0.6-6.5-0.6h6.5c-1.3-1.3-3.2-1.3-5.2-1.9
		c1.9,0,4.5,1.3,6.5,0.6c-1.9,0-3.2-1.3-4.5-2.6c1.9,1.3,3.9,1.3,5.8,1.9c-1.3-1.3-2.6-1.9-3.9-3.2c1.9,0.6,3.9,1.3,5.8,1.9
		C792.5,416.3,791.8,414.4,789.9,414.4L789.9,414.4z"/>
</g>
<path class="st16" d="M838.3,450.8L791,423.5l15.7-9l47.3,27.3L838.3,450.8z"/>
<g>
	<path class="st17" d="M817.8,420.9l25.2,14.5l-15.8,9.1L802,430l0.8-1c2.1-2.8,4.5-5.1,7-6.5h0.1c2.2-1.3,4.4-1.9,6.3-1.7
		L817.8,420.9L817.8,420.9z"/>
	<path class="st14" d="M827.9,426.7l5.6,3.2l-15.8,9.1l-5.6-3.2l0.8-1c2.1-2.8,4.5-5.1,7-6.5h0.1c2.2-1.3,4.4-1.9,6.3-1.7
		L827.9,426.7L827.9,426.7z"/>
	<path class="st17" d="M827.9,426.7l-10.7,6.2l-5.1,2.9l0.8-1c2.1-2.8,4.5-5.1,7-6.5h0.1c2.2-1.3,4.4-1.9,6.3-1.7L827.9,426.7
		L827.9,426.7z"/>
	<path class="st18" d="M822.5,433.9l-2.8-1.6c-0.3-0.2-0.6-0.6-0.6-1v-1.1c0-0.9,0.9-1.4,1.7-1l3.3,1.9c0.5,0.3,0.7,1,0.4,1.5
		l-0.5,0.8C823.7,434.1,823,434.3,822.5,433.9L822.5,433.9z"/>
	<path class="st17" d="M833.5,430l-15.8,9.1l0.7-1c2.1-2.8,4.5-5.1,7-6.5h0.1c2.2-1.3,4.4-1.9,6.3-1.7L833.5,430L833.5,430z"/>
	<path class="st13" d="M843,435.5l-15.8,9.1l0.7-1c2.1-2.8,4.5-5.1,7-6.5h0.1c3.9-2.5,4.9-2.2,6.3-1.7L843,435.5L843,435.5z"/>
</g>
<g>
	<path class="st5" d="M890.1,224.5l-69.8,205.1c-0.1,0.2-0.1,0.6,0.2,0.9c0.5,0.7,1.5,1.2,2.3,1.1c0.4,0,0.7-0.2,0.8-0.4l69.7-205.1
		L890.1,224.5L890.1,224.5z"/>
	<path class="st19" d="M893.4,226.1c-0.9,1.1-3.7-0.3-3.3-1.6C891,223.4,893.7,224.7,893.4,226.1z"/>
</g>
<path class="st2" d="M898.8,225.3l-9.5-4.4c0,0-3.5-2.3-4.8,0.5s1,4.4,1,4.4s-2.2,0-2.6,2.6c-0.4,2.4,1.9,3.4,1.9,3.4
	s-2.5-0.8-2.5,1.6c0,1.1,1.3,2.8,1.3,2.8s-1.5,0.4,0,2.5s4,3.6,6.4,3.2c2.4-0.3,3.9,0.5,3.9,0.5l15.9,20.9c0,0-2.7-7,2-11.7
	c4.2-4.2,8.1-4.1,8.1-4.1L898.8,225.3L898.8,225.3z"/>
<path class="st20" d="M871.5,276.6l-3-1.1c0,0-4.1,1-3.4,2.5c0.7,1.5,3.1,4.2,3.2,5.2c0.1,1,6.4,2.2,6.4,2.2s2.1-0.4,0.3-2.4
	s-3.7-2-3.7-2l-0.7-2.1L871.5,276.6L871.5,276.6z"/>
<path class="st20" d="M871.7,272.5l-3.5-1.4c0,0-4.9,1.2-4,3s3.6,5,3.8,6.2c0.1,1.2,7.6,2.7,7.6,2.7s2.5-0.5,0.4-2.8
	s-4.3-2.3-4.3-2.3l-0.8-2.5L871.7,272.5L871.7,272.5z"/>
<path class="st20" d="M874.2,268.7l-3.1-2.2c0,0-5.1,0-4.6,2s2.4,5.7,2.2,6.9c-0.2,1.2,6.8,4.4,6.8,4.4s2.5,0.1,1-2.6
	s-3.7-3.3-3.7-3.3l-0.2-2.7L874.2,268.7L874.2,268.7z"/>
<path class="st20" d="M876.3,266.5l1.2-4c0,0-9.2-0.4-9,1.8c0.2,2.2,1.9,6.4,1.6,7.7c-0.3,1.3,6.7,5.4,6.7,5.4s2.6,0.4,1.4-2.8
	s-3.5-3.9-3.5-3.9l0.1-2.9L876.3,266.5L876.3,266.5z"/>
<path class="st20" d="M872.5,261.6c0,0,1.3,2.8,4.2,2.8s2.5-1.5,2.5-1.5l1.7,4.6c0,0-2,5.2,0,6.1s5.6-0.5,5.6-4.8s-1-6.5-1-6.5
	l-4.4-4.4L872.5,261.6L872.5,261.6z"/>
<path class="st21" d="M953.5,206.7c0,0-12.2,0-15,13.3s-3.7,28.6-3.7,28.6s11.2,11.5,17.7,7.8c6.4-3.7,10-5.6,10-5.6
	S973.7,210.2,953.5,206.7L953.5,206.7z"/>
<g>
	<path class="st22" d="M1021.1,369c-7.8-4.5-14.2-15.6-14.2-24.6s6.4-12.7,14.2-8.2c7.8,4.5,14.2,15.6,14.2,24.6
		S1029,373.6,1021.1,369z M1021.1,339.9c-6.1-3.5-11.1-0.7-11.1,6.4c0,7,5,15.6,11.1,19.2c6.1,3.5,11.1,0.7,11.1-6.4
		S1027.3,343.4,1021.1,339.9z"/>
	<path class="st23" d="M1020.4,368.6l-1.6-0.9v-29.2l1.6,0.9V368.6z"/>
	<path class="st23" d="M1010.1,338.4l1.1-0.6l17.9,31l-1.1,0.6L1010.1,338.4z"/>
	<path class="st23" d="M1032.2,361.7l-25.3-14.6v-1.8l25.3,14.6V361.7z"/>
	<path class="st23" d="M1010.1,357.7l17.9-10.3l1.1,1.9l-17.9,10.3L1010.1,357.7z"/>
	<path class="st24" d="M1019.6,370c-7.8-4.5-14.2-15.6-14.2-24.6s6.4-12.7,14.2-8.2c7.8,4.5,14.2,15.6,14.2,24.6
		S1027.4,374.5,1019.6,370z M1019.6,340.8c-6.1-3.5-11.1-0.7-11.1,6.4s5,15.6,11.1,19.2c6.1,3.5,11.1,0.7,11.1-6.4
		C1030.6,352.9,1025.7,344.3,1019.6,340.8z"/>
	<path class="st25" d="M1019.6,370c-7.8-4.5-14.2-15.6-14.2-24.6s6.4-12.7,14.2-8.2c7.8,4.5,14.2,15.6,14.2,24.6
		S1027.4,374.5,1019.6,370z M1019.6,340.8c-6.1-3.5-11.1-0.7-11.1,6.4s5,15.6,11.1,19.2c6.1,3.5,11.1,0.7,11.1-6.4
		C1030.6,352.9,1025.7,344.3,1019.6,340.8z"/>
	<path class="st26" d="M1022.3,330.4l-8.9,5.1c9.2,5.3,16.7,18.2,16.7,28.9l8.9-5.1C1038.9,348.6,1031.5,335.7,1022.3,330.4z"/>
	<path class="st22" d="M1066.5,342.8c-7.8-4.5-14.2-15.6-14.2-24.6s6.4-12.7,14.2-8.2s14.2,15.6,14.2,24.6
		C1080.8,343.6,1074.4,347.3,1066.5,342.8z M1066.5,313.6c-6.1-3.5-11.1-0.7-11.1,6.4c0,7,5,15.6,11.1,19.1s11.1,0.7,11.1-6.4
		C1077.6,325.7,1072.6,317.1,1066.5,313.6z"/>
	<path class="st23" d="M1065.7,342.3l-1.6-0.9v-29.2l1.6,0.9V342.3z"/>
	<path class="st23" d="M1055.4,312.1l1.1-0.6l17.9,31l-1.1,0.6L1055.4,312.1z"/>
	<path class="st23" d="M1077.6,335.5l-25.3-14.6v-1.8l25.3,14.6V335.5z"/>
	<path class="st23" d="M1055.5,331.5l17.9-10.3l1.1,1.9l-17.9,10.3L1055.5,331.5z"/>
	<path class="st24" d="M1065,343.7c-7.8-4.5-14.2-15.6-14.2-24.6s6.4-12.7,14.2-8.2s14.2,15.6,14.2,24.6
		C1079.2,344.5,1072.8,348.2,1065,343.7z M1065,314.5c-6.1-3.5-11.1-0.7-11.1,6.4s5,15.6,11.1,19.2c6.1,3.5,11.1,0.7,11.1-6.4
		C1076,326.6,1071.1,318,1065,314.5z"/>
	<path class="st25" d="M1065,343.7c-7.8-4.5-14.2-15.6-14.2-24.6s6.4-12.7,14.2-8.2s14.2,15.6,14.2,24.6
		C1079.2,344.5,1072.8,348.2,1065,343.7z M1065,314.5c-6.1-3.5-11.1-0.7-11.1,6.4s5,15.6,11.1,19.2c6.1,3.5,11.1,0.7,11.1-6.4
		C1076,326.6,1071.1,318,1065,314.5z"/>
	<path class="st26" d="M1067.6,304.1l-8.9,5.1c9.2,5.3,16.7,18.2,16.7,28.9l8.9-5.1C1084.3,322.4,1076.8,309.5,1067.6,304.1z"/>
	<g>
		<path class="st27" d="M1075.5,226.3l-5.7,77.7v0.2c0,1.4-0.9,2.8-2.7,3.8l-37.8,21.2c-1.5,0.9-3.5,1.4-5.4,1.5
			c-2.8,0.2-5.6-0.3-7.8-1.5l-23.9-13.8c-1.4-0.8-2.3-1.8-2.6-2.9l0,0l-0.1-1.1l-5.7-78.3l40.1,3.2L1075.5,226.3L1075.5,226.3z"/>
		<path class="st28" d="M1075.5,226.3l-5.7,77.7v0.2c0,1.4-0.9,2.8-2.7,3.8l-37.8,21.2c-1.5,0.9-3.5,1.4-5.4,1.5v-94.5L1075.5,226.3
			L1075.5,226.3z"/>
		<path class="st29" d="M1015.5,254.4l-30.4-17.6c-4.6-2.7-6-12.9-1.3-15.6l43.3-17.7c4.6-2.7,12.1-2.7,16.7,0l33.2,12.4
			c4.6,2.7,1.9,12.2-2.8,14.9l-42,23.6C1027.6,257.1,1020.1,257.1,1015.5,254.4z"/>
		<path class="st9" d="M1023.1,247.5c-3,0-5.7-0.7-7.8-1.9L984.9,228c-1.9-1.1-2.9-2.4-2.9-3.9s1-2.8,2.9-3.9l42-23.6
			c2.1-1.2,4.8-1.9,7.8-1.9s5.7,0.7,7.8,1.9l30.4,17.6c1.9,1.1,2.9,2.4,2.9,3.9s-1,2.8-2.9,3.9l-42,23.6
			C1028.8,246.9,1026.1,247.5,1023.1,247.5L1023.1,247.5z"/>
		<path class="st1" d="M1034.7,196.1c2.7,0,5.4,0.6,7.2,1.7l30.4,17.6c1.5,0.9,2.3,1.9,2.3,2.9s-0.8,2-2.3,2.9l-42,23.6
			c-1.9,1.1-4.5,1.7-7.2,1.7c-2.7,0-5.4-0.6-7.2-1.7l-30.4-17.6c-1.5-0.9-2.3-1.9-2.3-2.9s0.8-2,2.3-2.9l42-23.6
			C1029.3,196.7,1032,196.1,1034.7,196.1L1034.7,196.1z M1034.7,193.8c-3,0-6.1,0.7-8.4,2l-42,23.6c-4.6,2.7-4.6,7,0,9.7l30.4,17.6
			c2.3,1.3,5.3,2,8.4,2c3.1,0,6.1-0.7,8.4-2l42-23.6c4.6-2.7,4.6-7,0-9.7l-30.4-17.6C1040.8,194.5,1037.7,193.8,1034.7,193.8z"/>
	</g>
	<g>
		<path class="st30" d="M1079.3,394.7l3.1-8l-7.6-4.5v8.9c0,1.5,1,3.4,2.3,4.1l0,0C1078.1,395.8,1079,395.6,1079.3,394.7
			L1079.3,394.7z"/>
		<path class="st22" d="M1082.4,395.9c0,1.7-0.6,2.9-1.5,3.5l-4.8,2.8l-7.6-13.3l4.7-2.8l0.3-0.2l0,0c0.9-0.5,2.2-0.4,3.6,0.5
			C1080,388.2,1082.4,392.4,1082.4,395.9L1082.4,395.9z"/>
		<path class="st25" d="M1067.1,392.4c0,3.5,2.4,7.7,5.3,9.5c2.9,1.7,5.3,0.3,5.3-3.2s-2.4-7.7-5.3-9.5
			C1069.4,387.5,1067.1,388.9,1067.1,392.4z"/>
		<path class="st31" d="M1069.7,394c0,1.7,1.2,3.9,2.6,4.7s2.6,0.2,2.6-1.6s-1.2-3.9-2.6-4.7S1069.7,392.3,1069.7,394z"/>
		<path class="st26" d="M1074.5,397.6l3.1-8l-7.6-4.5v8.9c0,1.5,1,3.4,2.3,4.1l0,0C1073.4,398.7,1074.2,398.5,1074.5,397.6
			L1074.5,397.6z"/>
		<g>
			<path class="st24" d="M1070,385l4.7-2.8l7.6,4.5l-4.7,2.8L1070,385z"/>
		</g>
		<g>
			<path class="st32" d="M1078,382.1h-3.6v2.9l0,0c-0.1,0.3,0.1,0.6,0.5,0.9c0.7,0.4,1.8,0.4,2.6,0c0.4-0.2,0.6-0.6,0.5-0.9l0,0
				V382.1L1078,382.1z"/>
			<path class="st33" d="M1077.5,382.9c-0.7,0.4-1.8,0.4-2.6,0c-0.7-0.4-0.7-1.1,0-1.5c0.9-0.5,2.2-0.6,2.6,0
				C1077.9,382.1,1078.2,382.4,1077.5,382.9z"/>
		</g>
	</g>
	<g>
		<path class="st30" d="M1128.1,366.5l3.1-8l-7.6-4.5v8.9c0,1.5,1,3.4,2.3,4.1l0,0C1126.9,367.6,1127.8,367.4,1128.1,366.5
			L1128.1,366.5z"/>
		<path class="st22" d="M1131.2,367.7c0,1.7-0.6,2.9-1.5,3.5l-4.8,2.8l-7.6-13.3l4.7-2.8l0.3-0.2l0,0c0.9-0.5,2.2-0.4,3.6,0.5
			C1128.8,360,1131.2,364.2,1131.2,367.7L1131.2,367.7z"/>
		<path class="st25" d="M1115.9,364.2c0,3.5,2.4,7.7,5.3,9.5c2.9,1.7,5.3,0.3,5.3-3.2s-2.4-7.7-5.3-9.5
			C1118.3,359.3,1115.9,360.7,1115.9,364.2z"/>
		<path class="st31" d="M1118.6,365.8c0,1.7,1.2,3.9,2.6,4.7s2.6,0.2,2.6-1.6c0-1.7-1.2-3.9-2.6-4.7
			C1119.7,363.4,1118.6,364.1,1118.6,365.8z"/>
		<path class="st26" d="M1123.4,369.4l3.1-8l-7.6-4.5v8.9c0,1.5,1,3.4,2.3,4.1l0,0C1122.2,370.5,1123.1,370.3,1123.4,369.4
			L1123.4,369.4z"/>
		<g>
			<path class="st24" d="M1118.9,356.8l4.7-2.8l7.6,4.5l-4.7,2.8L1118.9,356.8z"/>
		</g>
		<g>
			<path class="st32" d="M1126.8,353.9h-3.6v2.9l0,0c-0.1,0.3,0.1,0.6,0.5,0.9c0.7,0.4,1.8,0.4,2.6,0c0.4-0.2,0.6-0.6,0.5-0.9l0,0
				V353.9L1126.8,353.9z"/>
			<path class="st33" d="M1126.3,354.7c-0.7,0.4-1.8,0.4-2.6,0c-0.7-0.4-0.7-1.1,0-1.5c0.9-0.5,2.2-0.6,2.6,0
				C1126.7,353.9,1127,354.2,1126.3,354.7z"/>
		</g>
	</g>
	<g>
		<path class="st8" d="M1122.1,347.2v0.6l-40.5-23.4c-2-1.1-5.2-1.1-7.1,0l-40.5,23.4v-0.6h-9.4v7.2c0,0.8,0.5,1.5,1.5,2.1l48.4,28
			c2,1.1,5.2,1.1,7.1,0l48.4-28c1-0.6,1.5-1.3,1.5-2.1v-7.2H1122.1z"/>
		<path class="st31" d="M1130,349.3l-5.2,3l-43.2,24.9c-1.9,1.1-5.2,1.1-7.1,0l-43.1-24.9l-5.3-3c-2-1.1-2-3,0-4.1l48.4-27.9
			c1.9-1.1,5.2-1.1,7.1,0l48.4,27.9C1132,346.3,1132,348.1,1130,349.3z"/>
		<path class="st8" d="M1124.8,352.3l-43.2,24.9c-1.9,1.1-5.2,1.1-7.1,0l-43.1-24.9l44.4-25.7c0.6-0.3,1.4-0.5,2.3-0.5
			s1.7,0.2,2.3,0.5L1124.8,352.3z"/>
		<path class="st34" d="M1078,317.4c1.1,0,2.2,0.2,3,0.7l48.4,27.9c0.6,0.4,0.9,0.8,0.9,1.1c0,0.3-0.3,0.7-0.9,1.1l-5.2,3
			l-43.2,24.9c-0.8,0.4-1.8,0.7-3,0.7s-2.2-0.2-3-0.7l-43.1-24.9l-5.3-3c-0.6-0.3-0.9-0.7-0.9-1.1s0.3-0.8,0.9-1.1l48.4-27.9
			C1075.8,317.7,1076.9,317.4,1078,317.4L1078,317.4z M1078,316.3c-1.3,0-2.6,0.3-3.6,0.9l-48.4,27.9c-2,1.2-2,3,0,4.1l5.3,3
			l43.1,24.9c1,0.6,2.3,0.8,3.6,0.8s2.6-0.3,3.6-0.8l43.2-24.9l5.2-3c2-1.1,2-3,0-4.1l-48.4-27.9
			C1080.6,316.6,1079.3,316.3,1078,316.3z"/>
	</g>
	<g>
		<path class="st34" d="M1093.9,337.3l-3.3-1.9v-93.5l3.3,1.9V337.3z"/>
		<path class="st8" d="M1093.9,337.3l3.3-1.9v-93.5l-3.3,1.9V337.3z"/>
	</g>
	<g>
		<path class="st8" d="M1104.3,286.9v0.6l-20.8-12.6c-2-1.1-5.2-1.1-7.1,0l-40.5,23.4v-0.6h-9.4v7.2c0,0.8,0.5,1.5,1.5,2.1
			l28.8,17.2c2,1.1,5.2,1.1,7.1,0l48.4-28c1-0.6,1.5-1.3,1.5-2.1v-7.2H1104.3z"/>
		<path class="st31" d="M1112.2,289l-5.2,3l-43.2,24.9c-1.9,1.1-5.2,1.1-7.1,0l-23.5-14.1l-5.3-3c-2-1.1-2-3,0-4.1l48.4-27.9
			c1.9-1.1,5.2-1.1,7.1,0l28.8,17.1C1114.2,286,1114.2,287.9,1112.2,289z"/>
		<path class="st8" d="M1107,292l-43.2,24.9c-1.9,1.1-5.2,1.1-7.1,0l-23.5-14.1l44.4-25.7c0.6-0.3,1.4-0.5,2.3-0.5s1.7,0.2,2.3,0.5
			L1107,292L1107,292z"/>
		<path class="st34" d="M1079.9,268c1.1,0,2.2,0.2,3,0.7l28.8,17.2c0.6,0.4,0.9,0.8,0.9,1.1c0,0.3-0.3,0.7-0.9,1.1l-5.2,3
			l-43.2,24.9c-0.8,0.4-1.8,0.7-3,0.7s-2.2-0.2-3-0.7l-23.5-14.1l-5.3-3c-0.6-0.3-0.9-0.7-0.9-1.1s0.3-0.8,0.9-1.1l48.4-27.9
			C1077.7,268.2,1078.8,268,1079.9,268L1079.9,268z M1079.9,266.8c-1.3,0-2.6,0.3-3.6,0.9l-48.4,27.9c-2,1.2-2,3,0,4.1l5.3,3
			l23.5,14.1c1,0.6,2.3,0.9,3.6,0.9s2.6-0.3,3.6-0.9l43.2-24.9l5.2-3c2-1.1,2-3,0-4.1l-28.8-17.1
			C1082.5,267.1,1081.2,266.8,1079.9,266.8z"/>
	</g>
	<g>
		<path class="st8" d="M1104.3,240.1v0.6l-20.8-12.6c-2-1.1-5.2-1.1-7.1,0l-40.5,23.4v-0.6h-9.4v7.2c0,0.8,0.5,1.5,1.5,2.1
			l28.8,17.2c2,1.1,5.2,1.1,7.1,0l48.4-28c1-0.6,1.5-1.3,1.5-2.1v-7.2L1104.3,240.1L1104.3,240.1z"/>
		<path class="st31" d="M1112.2,242.2l-5.2,3l-43.2,24.9c-1.9,1.1-5.2,1.1-7.1,0l-23.5-14.1l-5.3-3c-2-1.1-2-3,0-4.1l48.4-27.9
			c1.9-1.1,5.2-1.1,7.1,0l28.8,17.1C1114.2,239.2,1114.2,241.1,1112.2,242.2z"/>
		<path class="st8" d="M1107,245.2l-43.2,24.9c-1.9,1.1-5.2,1.1-7.1,0l-23.5-14.1l44.4-25.7c0.6-0.3,1.4-0.5,2.3-0.5
			s1.7,0.2,2.3,0.5L1107,245.2L1107,245.2z"/>
		<path class="st34" d="M1079.9,221.2c1.1,0,2.2,0.2,3,0.7l28.8,17.2c0.6,0.4,0.9,0.8,0.9,1.1s-0.3,0.7-0.9,1.1l-5.2,3l-43.2,24.9
			c-0.8,0.4-1.8,0.7-3,0.7s-2.2-0.2-3-0.7l-23.5-14.1l-5.3-3c-0.6-0.3-0.9-0.7-0.9-1.1s0.3-0.8,0.9-1.1l48.4-27.9
			C1077.7,221.5,1078.8,221.2,1079.9,221.2L1079.9,221.2z M1079.9,220.1c-1.3,0-2.6,0.3-3.6,0.8l-48.4,27.9c-2,1.2-2,3,0,4.1l5.3,3
			l23.5,14.1c1,0.6,2.3,0.9,3.6,0.9s2.6-0.3,3.6-0.9l43.2-24.9l5.2-3c2-1.1,2-3,0-4.1l-28.8-17.1
			C1082.5,220.3,1081.2,220.1,1079.9,220.1z"/>
	</g>
	<g>
		<path class="st34" d="M1049.5,363l-3.3-1.9v-93.5l3.3,1.9V363z"/>
		<path class="st8" d="M1049.5,363l3.3-1.9v-93.5l-3.3,1.9V363z"/>
	</g>
	<g>
		<path class="st35" d="M1053.8,317.4l-25.6-16.9v-9.4c0-6,2.2-11.4,6.7-12c1.4-0.2,5.8-0.1,5.8-0.1l-1.3-15.3
			c0-1.6,1.1-2.3,2.5-1.5l0,0c1.4,0.8,2.5,2.8,2.5,4.4l-1.1,13.3c0,0,7.2,4.9,8.6,6.7C1062.5,299.9,1053.8,317.4,1053.8,317.4
			L1053.8,317.4z"/>
		<path class="st36" d="M1053.8,308v9.4l-27.5-15.9v-9.4c0-6,2.2-10.8,6.7-11.3c1.4-0.2,5.8,0,5.8,0l-1.3-16.2
			c0-1.6,1.1-2.3,2.5-1.5l0,0c1.4,0.8,2.5,2.8,2.5,4.4l-1.2,14.7c0,0,4.4,4.9,5.7,6.6C1051.5,294.7,1053.8,302,1053.8,308
			L1053.8,308z"/>
		<path class="st37" d="M1053.1,310.8v6.2l-26.1-15.1v-6.2c0-5.7,2.1-10.2,6.4-10.7c1.3-0.2,4-0.4,5.5,0c0.6,0.2,1.9,0.9,2.5,1.4
			c1.5,1.2,4.1,4.6,5.4,6.3C1051,298.1,1053.1,305.1,1053.1,310.8z"/>
	</g>
	<g>
		<path class="st29" d="M1067.6,322.5l-4.2,2.4c0,0-0.4-2.4,0-3.1c0.6-1,3.2-3,4.2-2.4C1068.2,319.8,1067.6,322.5,1067.6,322.5z"/>
		<path class="st27" d="M1096.3,329.7l-2.4,32.9v0.1c0,0.6-0.4,1.2-1.2,1.6l-16,9c-0.6,0.4-1.5,0.6-2.3,0.6
			c-1.2,0.1-2.4-0.1-3.3-0.6l-10.1-5.9c-0.6-0.3-1-0.8-1.1-1.2l0,0l-0.1-0.5l-2.4-33.1l17,1.4L1096.3,329.7L1096.3,329.7z"/>
		<path class="st28" d="M1096.3,329.7l-2.4,32.9v0.1c0,0.6-0.4,1.2-1.2,1.6l-16,9c-0.6,0.4-1.5,0.6-2.3,0.6v-40L1096.3,329.7
			L1096.3,329.7z"/>
		<path class="st29" d="M1070.9,341.6l-12.9-7.4c-1.9-1.1-2.5-5.5-0.6-6.6l18.3-7.5c1.9-1.1,5.1-1.1,7.1,0l14,5.2
			c2,1.1,0.8,5.2-1.2,6.3l-17.8,10C1076.1,342.7,1072.9,342.7,1070.9,341.6L1070.9,341.6z"/>
		<path class="st9" d="M1074.2,338.6c-1.2,0-2.4-0.3-3.3-0.8l-12.9-7.4c-0.8-0.5-1.2-1-1.2-1.6s0.4-1.1,1.2-1.6l17.8-10
			c0.9-0.5,2-0.8,3.3-0.8c1.2,0,2.4,0.3,3.3,0.8l12.9,7.4c0.8,0.4,1.2,1,1.2,1.6s-0.4,1.1-1.2,1.6l-17.8,10
			C1076.6,338.4,1075.4,338.6,1074.2,338.6z"/>
		<path class="st1" d="M1079.1,317.1c1.1,0,2.2,0.3,3,0.7l12.9,7.4c0.6,0.3,0.9,0.8,0.9,1.1c0,0.4-0.3,0.8-0.9,1.1l-17.8,10
			c-0.8,0.4-1.9,0.7-3,0.7s-2.2-0.3-3-0.7l-12.9-7.4c-0.6-0.3-0.9-0.8-0.9-1.1s0.3-0.8,0.9-1.1l17.8-10
			C1076.8,317.3,1077.9,317.1,1079.1,317.1L1079.1,317.1z M1079.1,316c-1.3,0-2.6,0.3-3.5,0.9l-17.8,10c-2,1.1-2,3,0,4.1l12.9,7.4
			c1,0.6,2.3,0.8,3.5,0.8s2.6-0.3,3.5-0.8l17.8-10c2-1.1,2-3,0-4.1l-12.9-7.4C1081.6,316.3,1080.4,316,1079.1,316z"/>
		<path class="st29" d="M1088.1,333.8l-4.2,2.4c0,0-0.4-2.4,0-3.1c0.6-1,3.2-3,4.2-2.4C1088.8,331.1,1088.1,333.8,1088.1,333.8z"/>
		<path class="st25" d="M1086.3,332.7c0,0-9.5,17.1-11.8,18.1c-3.1,1.3-18.2-6.1-17.9-8.8c0.2-1.6,1.4-3.5,1.4-3.5l-0.1-1.1
			c0,0-2.3,3.3-2.3,4.9c0,2.6,14.1,11,18.7,9.6c3.6-1.1,12.5-18.9,12.5-18.9S1086.6,332.1,1086.3,332.7z"/>
	</g>
	<g>
		<path class="st38" d="M1082.9,290.4l-12.4-7.1v-3.5l12.4,7.1V290.4z"/>
		<path class="st39" d="M1082.9,290.4l8.9-5.1v-3.5l-8.9,5.1V290.4z"/>
		<g>
			<path class="st20" d="M1082.9,286.3l-12.4-7.1l8.9-5.1l12.4,7.1L1082.9,286.3z"/>
			<path class="st2" d="M1082.9,289.9l-12.4-7.1v-3.5l12.4,7.1V289.9z"/>
			<path class="st9" d="M1082.9,289.9l8.9-5.1v-3.5l-8.9,5.1V289.9z"/>
		</g>
	</g>
	<g>
		<path class="st38" d="M1070.2,303.1l-12.4-7.1v-3.5l12.4,7.1V303.1z"/>
		<path class="st39" d="M1070.2,303.1l8.9-5.1v-3.5l-8.9,5.1V303.1z"/>
		<g>
			<path class="st12" d="M1070.2,299l-12.4-7.1l8.9-5.1l12.4,7.1L1070.2,299z"/>
			<path class="st10" d="M1070.2,302.5l-12.4-7.1v-3.5l12.4,7.1V302.5z"/>
			<path class="st9" d="M1070.2,302.5l8.9-5.1v-3.5l-8.9,5.1V302.5z"/>
		</g>
	</g>
	<g>
		<path class="st38" d="M1091.7,294.9l-10.7-10.7l1.2-2.2l10.7,10.7L1091.7,294.9z"/>
		<path class="st39" d="M1091.7,294.9l8.9-5.1v-0.6l-7.7,3.5L1091.7,294.9z"/>
		<g>
			<path class="st36" d="M1092.9,292.1l-10.7-10.7l8.9-5.1l10.7,10.7L1092.9,292.1z"/>
			<path class="st37" d="M1091.7,294.3l-10.7-10.7l1.2-2.2l10.7,10.7L1091.7,294.3z"/>
			<path class="st35" d="M1091.7,294.3l8.9-5.1l1.2-2.2l-8.9,5.1L1091.7,294.3z"/>
		</g>
	</g>
	<g>
		<path class="st40" d="M1073.6,234.7l-4.1,8.6c-1.3,0.7-6.6-3.4-6.7-4.5l-1-9.9c0-4.3,8.2-13,8.2-13c2.2-2.7,4-5.4,5.3-3.9l0.2,0.1
			c1.1,0.4,1.7,3.8,1.7,5.3l-1.2,13.5C1076,232.2,1074.9,233.9,1073.6,234.7L1073.6,234.7z"/>
		<path class="st40" d="M1077.5,216.5l-2.2,1.3c-3,1.7-5.4,0.7-5.4-2.2v-7.8l5.2-3L1077.5,216.5z"/>
		<path class="st36" d="M1080.6,218.3l-2.5,16.7c-3,1.7-5.1-14.7-5.1-17.6v-7.8l5.1-3L1080.6,218.3L1080.6,218.3z"/>
		<path class="st7" d="M1072.5,210.1l-3.1-1.8v-1.8l3.1,1.8V210.1z"/>
		<path class="st33" d="M1078.8,206.5l-6.3,3.6v-1.8l6.3-3.6V206.5z"/>
		<path class="st34" d="M1064.1,215.7c-0.3,0.2-0.3,0-0.2-0.5c1.7-3.9,0.7-5.9,2.9-9.3c7.9-5.4,3.9,0.7,5,0.3
			c-3.5-0.6-6.2,10.3-6.2,10.3S1064.3,216,1064.1,215.7L1064.1,215.7z"/>
		<path class="st7" d="M1065.6,216.5L1065.6,216.5c-0.3,0.2-0.3,0-0.2-0.5c1.7-3.9,0.7-5.9,2.9-9.3c7.9-5.4,3.9,0.7,5,0.3
			c-3.5-0.6-4.3,3.8-6.5,8C1066,216.2,1065.8,216.4,1065.6,216.5L1065.6,216.5z"/>
		<path class="st41" d="M1074.8,203.9l-5.9,3.6c0,0-1.8-1.5-3.1-1.8c0.1-0.6,0.2-2.7,0.3-3.3l11.9-5.3
			C1075.7,199.7,1074.9,202.4,1074.8,203.9L1074.8,203.9z"/>
		<path class="st36" d="M1079.1,238.5l-8.4,4.8c-1.3,0.7-2.3,0.4-2.4-0.8l-1-9.9c0-4.3,5.9-15,5.9-15c2.2-2.7,6.7-2.9,6.7-2.9
			c2.2,1.1,2.9,5.1,2.9,6.5l-1.2,13.5C1081.5,236,1080.4,237.7,1079.1,238.5L1079.1,238.5z"/>
		<path class="st42" d="M1070.7,241.2c-0.2,0.1-0.3,0.1-0.3-0.1l-1-9.8c0.1-2.2,3.8-8.2,6.4-11.7c0.4-0.4,0.9-0.8,1.3-1
			c0.8-0.5,1.6-0.6,2.2-0.4l0.2,0.1c0.4,0.3,1,2.6,1,4.1l-1.2,13.5v0.1c0,0.2-0.1,0.4-0.3,0.5L1070.7,241.2L1070.7,241.2z"/>
		<path class="st6" d="M1079.1,236.9l-8.4,4.8c-0.4,0.2-0.8,0.1-0.8-0.3l-1-9.8l0,0c0.1-2.6,4.1-8.9,6.6-12.2l0.1-0.1
			c0.5-0.5,1-0.9,1.6-1.2c1-0.6,1.9-0.7,2.6-0.5l0.3,0.1c0.6,0.4,1.1,2.9,1.1,4.3l-1.2,13.5l0,0
			C1079.9,236,1079.5,236.6,1079.1,236.9L1079.1,236.9z M1070.9,240.5l7.9-4.6l1.1-13.4c0-1.4-0.6-3.4-0.9-3.7l-0.2-0.1
			c-0.8-0.3-1.9,0.2-2.9,1.1c-2.9,3.9-6,9.2-6.1,11.1L1070.9,240.5L1070.9,240.5z"/>
		<path class="st43" d="M1081.1,198.8l-11.9,6.9v-1.6l10.6-6.1L1081.1,198.8z"/>
		<path class="st42" d="M1077.9,205.7l-3.5,2c-2.3,0.3-4.2,0.1-5.5-0.3c0.1-0.6,0.1-1.1,0.2-1.7l12-6.9
			C1078.9,201.5,1078,204.2,1077.9,205.7L1077.9,205.7z"/>
		<path class="st44" d="M1079.8,198l-10.6,6.1l-3.1-1.8l10.6-6.1L1079.8,198z"/>
		<path class="st45" d="M1068.4,205.6c0-0.7-0.5-1.6-1.1-2c-0.3-0.2-0.7-0.2-0.9,0l0,0l-2.1,1.6l0.7,1.1l0.7,1l2.2-0.9
			c0.1,0,0.2-0.1,0.3-0.1l0,0l0,0C1068.3,206.1,1068.4,205.9,1068.4,205.6L1068.4,205.6z"/>
		<path class="st42" d="M1065.8,206.8c0,0.6-0.4,0.8-0.9,0.5s-0.9-1-0.9-1.6s0.4-0.8,0.9-0.5S1065.8,206.2,1065.8,206.8z"/>
	</g>
	<g>
		<path class="st25" d="M1095.7,245.7v0.2l0,0C1095.7,245.9,1095.7,245.8,1095.7,245.7z"/>
		<path class="st2" d="M1095.3,227.6v18.1c0,0.1,0,0.1,0,0.2c-0.1,0.9-0.8,1.9-2,2.6c-2.7,1.5-7,1.5-9.7,0c-1.2-0.7-1.9-1.6-2-2.6
			l0,0v-18.3L1095.3,227.6L1095.3,227.6z"/>
		<path class="st20" d="M1095.3,227.2c-0.3-3.4-3.5-4.6-3.5-4.6l-0.8,1.2c-0.9-0.2-1.8-0.3-2.8-0.3v0l-3.3-0.8c0,0-2.9,2.5-3.3,4
			l0,0c-0.5,1.3,0.2,2.6,1.8,3.6c2.7,1.6,7,1.6,9.7,0c1.4-0.8,2.1-1.9,2-3C1095.3,227.3,1095.3,227.3,1095.3,227.2L1095.3,227.2z"/>
		<path class="st46" d="M1091.1,225.1c-0.8,1.3-3.5,1.1-5.4,0c-1.5-0.9-1.5-2.2,0-3.1c1.5-0.9,3.9-0.9,5.4,0
			S1092,223.7,1091.1,225.1z"/>
		<path class="st9" d="M1090.9,220.4v2.6c0,0.3-0.3,0.7-0.7,0.9c-1,0.6-2.6,0.6-3.5,0c-0.4-0.3-0.7-0.6-0.7-0.9l0,0v-2.6H1090.9
			L1090.9,220.4z"/>
		<path class="st12" d="M1090.1,221.4c-1,0.6-2.6,0.6-3.5,0c-1-0.6-1-1.5,0-2s2.6-0.6,3.5,0S1091.1,220.9,1090.1,221.4z"/>
	</g>
	<g>
		<path class="st2" d="M1056.3,222.5v32.3c0,0.1,0,0.1,0,0.2c-0.1,1-0.8,1.9-2.1,2.6c-2.8,1.6-7.2,1.6-10,0c-1.3-0.7-1.9-1.7-2-2.6
			l0,0v-32.5H1056.3L1056.3,222.5z"/>
		<path class="st30" d="M1054.2,225.2c-2.8,1.6-7.2,1.6-10,0s-2.8-4.2,0-5.8s7.2-1.6,10,0S1057,223.6,1054.2,225.2z"/>
		<g>
			<path class="st27" d="M1056.3,214.8v9.6c0,0.1,0,0.1,0,0.2c-0.1,1-0.8,1.9-2.1,2.6c-2.8,1.6-7.2,1.6-10,0c-1.3-0.7-1.9-1.7-2-2.6
				l0,0v-9.8H1056.3L1056.3,214.8z"/>
			<path class="st29" d="M1054.2,217.5c-2.8,1.6-7.2,1.6-10,0s-2.8-4.2,0-5.8s7.2-1.6,10,0S1057,215.9,1054.2,217.5z"/>
		</g>
	</g>
	<g>
		<path class="st42" d="M1062.6,256.8l4.1,8.6c1.3,0.7,6.6-3.4,6.7-4.5l1-9.9c0-4.3-8.2-13-8.2-13c-2.2-2.7-4-5.4-5.3-3.9l-0.2,0.1
			c-1.1,0.4-1.7,3.8-1.7,5.3l1.2,13.5C1060.2,254.3,1061.3,256,1062.6,256.8L1062.6,256.8z"/>
		<path class="st41" d="M1058.7,238.5l2.2,1.3c3,1.7,5.4,0.7,5.4-2.2v-7.8l-5.1-3L1058.7,238.5L1058.7,238.5z"/>
		<path class="st34" d="M1055.6,240.4l2.5,16.7c3,1.7,5.1-14.7,5.1-17.6v-7.8l-5.1-3L1055.6,240.4L1055.6,240.4z"/>
		<path class="st47" d="M1063.7,232.2l3.1-1.8v-1.8l-3.1,1.8V232.2z"/>
		<path class="st10" d="M1057.4,228.6l6.3,3.6v-1.8l-6.3-3.6V228.6z"/>
		<path class="st48" d="M1072.1,237.8c0.3,0.2,0.3,0,0.2-0.5c-1.7-3.9-0.7-5.9-2.9-9.3c-7.9-5.4-3.9,0.7-5,0.3
			c3.5-0.6,6.2,10.3,6.2,10.3S1071.9,238,1072.1,237.8L1072.1,237.8z"/>
		<path class="st47" d="M1070.6,238.6L1070.6,238.6c0.3,0.2,0.3,0,0.2-0.5c-1.7-3.9-0.7-5.9-2.9-9.3c-7.9-5.4-3.9,0.7-5,0.3
			c3.5-0.6,4.3,3.8,6.5,8C1070.2,238.2,1070.5,238.5,1070.6,238.6L1070.6,238.6z"/>
		<path class="st9" d="M1061.5,225.9l5.9,3.6c0,0,1.8-1.5,3.1-1.8c-0.1-0.6-0.2-2.7-0.3-3.3l-11.9-5.3
			C1060.5,221.8,1061.3,224.5,1061.5,225.9L1061.5,225.9z"/>
		<path class="st34" d="M1057.2,260.6l8.4,4.8c1.3,0.7,2.3,0.4,2.4-0.8l1-9.9c0-4.3-5.9-15.1-5.9-15.1c-2.2-2.7-6.7-2.9-6.7-2.9
			c-2.2,1.1-2.9,5-2.9,6.5l1.2,13.5C1054.7,258.1,1055.8,259.8,1057.2,260.6z"/>
		<path class="st36" d="M1065.5,263.3c0.2,0.1,0.3,0,0.3-0.1l1-9.8c-0.1-2.2-3.8-8.2-6.4-11.7c-0.4-0.4-0.9-0.8-1.3-1
			c-0.8-0.5-1.6-0.6-2.2-0.4l-0.2,0.1c-0.4,0.3-1,2.6-1,4.1l1.2,13.5v0.1c0,0.2,0.1,0.4,0.3,0.5L1065.5,263.3L1065.5,263.3z"/>
		<path class="st49" d="M1057.2,259l8.4,4.8c0.4,0.2,0.8,0.1,0.8-0.3l1-9.8l0,0c-0.1-2.6-4.1-8.9-6.6-12.2l-0.1-0.1
			c-0.5-0.5-1-0.9-1.6-1.2c-1-0.6-1.9-0.7-2.6-0.5l-0.3,0.1c-0.6,0.4-1.1,2.9-1.1,4.3l1.2,13.5l0,0
			C1056.3,258.1,1056.7,258.7,1057.2,259z M1065.3,262.6l-7.9-4.6l-1.1-13.4c0-1.4,0.6-3.4,0.9-3.7l0.2-0.1c0.8-0.3,2,0.1,2.9,1.1
			c3,3.5,6.5,7.4,6.1,11.1L1065.3,262.6z"/>
		<path class="st20" d="M1055.1,220.9l11.9,6.9v-1.6l-10.6-6.1L1055.1,220.9z"/>
		<path class="st2" d="M1058.3,227.7l3.5,2c2.3,0.3,4.2,0.1,5.5-0.3c-0.1-0.6-0.1-1.1-0.2-1.7l-12-6.9
			C1057.4,223.6,1058.2,226.3,1058.3,227.7L1058.3,227.7z"/>
		<path class="st46" d="M1056.5,220.1l10.6,6.1l3.1-1.8l-10.6-6.1L1056.5,220.1z"/>
		<path class="st46" d="M-38.7-14.5"/>
		<path class="st50" d="M1070.4,228.9c0,0.6,0.4,0.8,0.9,0.5s0.9-1,0.9-1.6s-0.4-0.8-0.9-0.5
			C1070.8,227.6,1070.4,228.3,1070.4,228.9z"/>
	</g>
</g>
<path class="st9" d="M927.5,223.6c0,0,13.1-21.7,19.1-23.7s9.5,4.9,9.5,4.9s-12.9-2.4-18.4,18.6
	C935.3,232.4,927.5,223.6,927.5,223.6L927.5,223.6z"/>
<polygon class="st0" points="751,420.6 674.4,464.5 629.5,438.6 706.1,394.7 "/>
<g>
	<polygon class="st51" points="725.9,432.1 722,429.9 720.5,424 723.7,422.1 	"/>
	<polygon class="st52" points="673.3,314.1 711.4,292.1 704,399.1 686.4,409.3 684.4,400.4 672.5,407.3 667.6,410.1 655.7,417 
		653.8,428.1 636.1,438.3 	"/>
	<polygon class="st51" points="676,315.6 714.1,293.6 706.7,400.7 689.1,410.8 687.1,401.9 675.2,408.8 670.3,411.7 658.4,418.5 
		656.5,429.7 638.8,439.9 	"/>
	<polygon class="st52" points="679.1,317.4 717.2,295.5 743.5,422 725.9,432.1 724,423.3 712.1,430.1 707.1,433 695.2,439.8 
		693.3,451 675.7,461.1 	"/>
	<g>
		<polygon class="st53" points="679.1,317.4 673.3,314.1 636.1,438.3 638.8,439.9 676,315.7 676,315.7 672.5,459.3 675.7,461.1 		
			"/>
	</g>
	<polygon class="st54" points="711.4,292.1 717.2,295.5 679.1,317.4 673.3,314.1 	"/>
	<path class="st55" d="M712.8,306.6l-2.9,1.7c0.1,4.6-0.8,12.9-8.1,18.2c-0.6,0.4-3.6,2.2-4.2,2.4c-2.6,1.1-4.7,1.2-6.6,0.6
		c2.3,1.9,5.5,3,9.8,1.1c0.6-0.2,3.6-2,4.2-2.4C715.7,320.5,712.8,306.6,712.8,306.6z"/>
	<g>
		<path class="st51" d="M709.9,308.2l-1.8,1.1c-1,4.8-3.7,11.7-11,16.4c-0.7,0.4-4,2.2-4.6,2.4c-0.8,0.3-1.5,0.5-2.1,0.7
			c0.2,0.2,0.5,0.5,0.7,0.7c1.8,0.5,4,0.5,6.6-0.6c0.6-0.2,3.6-2,4.2-2.4C709.2,321.2,710.1,312.9,709.9,308.2z"/>
		<path class="st55" d="M697.1,325.7c7.3-4.7,10-11.6,11-16.4l-4,2.3c-1.6,4-4.4,8.3-9.5,11.6c-0.7,0.4-4,2.2-4.6,2.4
			c-0.6,0.2-1.2,0.4-1.7,0.6c0.6,0.9,1.2,1.8,2.1,2.6c0.7-0.2,1.4-0.4,2.1-0.7C693.1,327.9,696.4,326.1,697.1,325.7z"/>
		<path class="st56" d="M688.2,326.2c0.5-0.1,1.1-0.3,1.7-0.6c0.6-0.2,4-2,4.6-2.4c5.1-3.2,7.9-7.6,9.5-11.6l-17.9,10.3
			C686.2,321.9,686.9,324,688.2,326.2z"/>
	</g>
	<g>
		<path d="M689.1,354.4l2-1.1l1,5.7c0.2,1.3,0.4,2.6,0.6,3.9l0.1,0c0.1-1.5,0.2-2.9,0.2-4.4l0.5-6.5l1.6-0.9l1.3,5.5
			c0.3,1.2,0.5,2.5,0.8,3.8l0.1,0c0-1.5,0-2.9,0.1-4.3l0.2-6.4l1.8-1.1l-0.6,13.7l-2.4,1.4l-1.2-5.4c-0.2-0.9-0.4-1.9-0.5-2.8
			l-0.1,0c0,1-0.1,2.1-0.2,3.2L694,365l-2.4,1.4L689.1,354.4z"/>
		<path d="M700.6,347.8l5.3-3.1l0.2,2.4l-3.4,2l0.2,2.6l2.9-1.7l0.2,2.4l-2.9,1.7l0.2,3l3.5-2l0.2,2.4l-5.5,3.2L700.6,347.8z"/>
		<path d="M709.5,345.2l-2.3,1.3l-0.2-2.4l6.6-3.8l0.2,2.4l-2.3,1.3l0.7,10.4l-1.9,1.1L709.5,345.2z"/>
		<path d="M684.1,374.5l5.4-3.1l0.2,2.4l-3.4,2l0.2,3l3-1.7l0.2,2.4l-3,1.7l0.3,5l-1.9,1.1L684.1,374.5z"/>
		<path d="M690.9,370.5l1.9-1.1l0.7,10.4l3.4-1.9l0.2,2.4l-5.3,3.1L690.9,370.5z"/>
		<path d="M697.2,373.5c-0.3-4.2,1.1-7.5,3.4-8.8c2.3-1.3,4,0.2,4.3,4.4c0.3,4.2-1.1,7.6-3.4,9C699.3,379.3,697.5,377.7,697.2,373.5
			z M703,370.2c-0.2-2.6-1-3.7-2.2-3c-1.2,0.7-1.8,2.6-1.6,5.2c0.2,2.6,1,3.8,2.2,3.1C702.6,374.8,703.2,372.7,703,370.2z"/>
		<path d="M706.2,368.3c-0.3-4.2,1.1-7.5,3.4-8.8c2.3-1.3,4,0.2,4.3,4.4c0.3,4.2-1.1,7.6-3.4,9C708.2,374.2,706.5,372.5,706.2,368.3
			z M711.9,365c-0.2-2.6-1-3.7-2.2-3c-1.2,0.7-1.8,2.6-1.6,5.2c0.2,2.6,1,3.8,2.2,3.1C711.5,369.6,712.1,367.6,711.9,365z"/>
		<path d="M715.1,356.6l3.1-1.8c1.8-1,3.3-0.9,3.5,2.1c0.1,1.9-0.4,3.4-1.3,4.6l2.3,4l-2.2,1.2l-1.9-3.7l-1.1,0.6l0.3,4.6l-1.9,1.1
			L715.1,356.6z M718.4,360.8c1-0.6,1.5-1.5,1.4-2.8c-0.1-1.3-0.7-1.4-1.7-0.8l-1,0.6l0.2,3.6L718.4,360.8z"/>
	</g>
	<path d="M719,410.2c-0.9,0.2-1.5,0.3-2.4,1c-0.2-2-1.2-6.3-1.5-7.5c-1.3-2.1-3.9-2.3-5.6-2.6c0.2-1.8-0.3-2.2-0.8-4.1
		c-0.3-1.4-0.4-1.8-0.3-2.9c0.1-1.2,1.2-2.5,1.6-3.7c1.3-3.7,1.1-7.2-0.2-9.9c-0.1-0.2-0.4,0-0.4,0.3c-0.2,3,1,4.3-0.3,8.7
		c-0.8,1-1.5,2.1-2.2,3.5c-0.3,0.6-0.6,1.5-0.8,2c-0.2-0.5-0.4-0.6-0.4-0.8c0.1-0.3,0.4-0.6,0.4-1c0-1.2-1.1-2.5-1.5-2.6
		c0.1-0.3,0.3-0.7,0.1-1.3c-0.3,0.6-0.7,0.9-1,1.1c-0.4,0.3-0.8,0.7-1.1,1.3c-0.4,1-0.3,1.8,0.1,2.2c-0.3,0.5-0.1,1.3,0.2,1.8
		c0.4,0.6,1.4-0.4,1.5-0.4c0.1,0.3,0.3,1.1,0.3,1.6c-0.2,0.3-0.5,0.8-0.9,1.4c-0.7,1-1.1,2.2-1.5,3.6c-0.6,1.8-0.9,4.4-1.4,6.3
		c-0.2,1.1-0.8,2.2-0.9,3.3c-0.2,2,0.2,2.5,0.6,1.8c0.6-1,0.7-3.8,0.9-4.6c0.4-1.3,0.8-2.6,1.4-4.2c0.5-1.4,1.1-2.9,1.9-3.8
		c0.4,0.9,0.5,3.5,1.6,3.9c-0.1,1.2,0,2,0.3,3.2c0.4,1.4,1.4,2.6,1.9,4.8c-0.4,3.1-0.4,4.3-1.2,7.8c-0.7,0.7-0.7,1.6-0.3,2.4
		c0.9,1.4,1.7,1.7,3,0.8c0.2-0.1,0.3-0.5,0.2-0.8c-0.4-0.6-1.3-1.5-1.8-1.8c0.6-1.3,2.3-6.5,2.6-8.6c0.2-1.8-0.4-4.7-1.2-7.3
		c0.8,0.9,2.7,1.3,3.8,1.1c0.3,2.5,1.5,4.6,1.8,6.3c-0.1,1.1,0.2,1.7,0.6,1.6c1-0.6,2.2-1.5,3-3C719.3,410.8,719.2,410.2,719,410.2z
		"/>
	<polygon points="696.2,431.9 722.4,416.8 722.2,415 696,430.1 	"/>
</g>
</svg>
