<?xml version="1.0" encoding="utf-8"?>
<!-- Generator: Adobe Illustrator 21.0.0, SVG Export Plug-In . SVG Version: 6.00 Build 0)  -->
<svg version="1.1" id="Layer_1" xmlns="http://www.w3.org/2000/svg" xmlns:xlink="http://www.w3.org/1999/xlink" x="0px" y="0px"
	 viewBox="0 0 1280 720" style="enable-background:new 0 0 1280 720;" xml:space="preserve">
<style type="text/css">
	.st0{fill:#EEFFFF;}
	.st1{fill:#FFCCB3;}
	.st2{fill:#FFAE30;}
	.st3{fill:#0AA1C4;}
	.st4{fill:#FCDEB3;}
	.st5{fill:#9DBDC4;}
	.st6{fill:#0295AD;}
	.st7{fill:#6CB3C4;}
	.st8{fill:#3BAAC4;}
	.st9{fill:#FF5D0D;}
	.st10{fill:#FFB28D;}
	.st11{fill:#4C262A;}
	.st12{fill:#FF884D;}
	.st13{fill:#FF5A2E;}
	.st14{fill:#FF8C6E;}
	.st15{fill:#FFBFAE;}
	.st16{fill:#FF7133;}
	.st17{fill:#FF3C08;}
	.st18{fill:#FF716E;}
	.st19{fill:#F1F2F2;}
	.st20{fill:#FFBE59;}
	.st21{fill:#42B9CC;}
	.st22{fill:#2F444A;}
	.st23{fill:#4C727E;}
	.st24{fill:#ADD4E1;}
	.st25{fill:#0D252D;}
	.st26{fill:#5CA9C2;}
	.st27{fill:#FF7D3D;}
	.st28{fill:#F46E34;}
	.st29{fill:#FF9E6E;}
	.st30{fill:#1A4A5A;}
	.st31{fill:#3394B3;}
	.st32{fill:#73B5CB;}
	.st33{fill:#85BFD1;}
	.st34{fill:#79C7D3;}
	.st35{fill:#2FB299;}
	.st36{fill:#45CCB8;}
	.st37{fill:#37BFA8;}
	.st38{fill:#653338;}
	.st39{fill:#190D0E;}
	.st40{fill:#3DECFF;}
	.st41{fill:#AADCE6;}
	.st42{fill:#95D3E0;}
	.st43{fill:#BFE5EC;}
	.st44{fill:#D5EDF3;}
	.st45{fill:#709EA8;}
	.st46{fill:#FFCE83;}
	.st47{fill:#FF9764;}
	.st48{fill:#FFB48F;}
	.st49{fill:#30EBFF;}
	.st50{fill:#FFC4A7;}
</style>
<ellipse transform="matrix(0.9727 -0.232 0.232 0.9727 -73.6874 241.224)" class="st0" cx="988.8" cy="433.9" rx="273.3" ry="122.2"/>
<path class="st1" d="M947,202.4c0,0-15.1-5-11.6,23c2.3,18.2,7.9,30.6,7.9,30.6s-9.2,2.6-14.2,17.4c-2.4,7.2-8,11.2-8,11.2l3.2,9.2
	c0,0,24.3-18,26.2-29.9S958.3,205.4,947,202.4z"/>
<path class="st2" d="M927.4,274.8c0,0,3.1-1.4,7,1.9s0.9,8.6,0.9,8.6l-11.2,9.5c0,0-10.8,5.3-12.2,4.9c-1.5-0.5-6.2-8.9-6.2-8.9
	s4.8-9.9,6.9-11.1c2.1-1.2,9.2-1.4,9.2-1.4l0.5,4.5L927.4,274.8L927.4,274.8z"/>
<path class="st3" d="M932.8,241c0,0-2.5-32.8,3.5-36.3s12.6-6.7,12.6-6.7l-0.5,53.3L932.8,241L932.8,241z"/>
<path class="st4" d="M993.5,385.5c0,0,7.3,5.9,9.7,11.4s12.8,45.5,10,51.9c-2.8,6.4-12.8,20.6-12.8,24.7s-1.2,4.5,7.7,2.8
	c8.9-1.7,9.3-2.1,10.7-5.9c1.4-3.8,6.2-16.1,6.2-16.1l0.7-10.6c0,0-2.4-3.4-2.4-6.5s1.4-30.9-0.7-37.5c-2.1-6.6-11.4-17.3-11.4-17.3
	s-1-72.3-4.8-77.7s-11.8-18-11.8-18l-19.2,5.3c0,0-7.2,20-3.6,30.1C975.4,332.1,990.4,382.3,993.5,385.5L993.5,385.5z"/>
<path class="st5" d="M956.5,429.4c0,0-3.2,2.1-0.8,4.5c2.4,2.4,14-0.7,19.2-2.7c5.3-2,4.1-7,4.1-7s1.7,4.7,1.7,7.8s-0.2,4.7-2.3,5.9
	c-2.1,1.2-10-0.9-12,0s-9.8,6.5-15.5,5.6c-5.7-0.9-12.5-4.6-12.5-4.6s-3.5-2.6,11.9-8.6C953.5,429,956.5,429.4,956.5,429.4
	L956.5,429.4z"/>
<path class="st4" d="M958.5,274.5c0,0-8.7,2.6-10.4,18.5c-1.7,15.9,4.8,42.2,10.4,53c5.5,10.8,2.4,14.8,4.8,17.2
	c2.4,2.4,2.4,2.2,2.4,14.3v45.1l-13.2,6.1c0,0-2.8-1.8-5.5,0.9s-6.6,3.1-6.6,6.3s10.8,2.6,12.7,2.6s7.1-4.8,15.1-4.8
	s10.2,2.4,11.5-1.8s-2-8,0-16s10.7-29.8,7.9-36.4s-5.7-16.9-5.7-23s2-17.2,0.6-27.6C981,318.5,976.9,271.4,958.5,274.5L958.5,274.5z
	"/>
<path class="st6" d="M992.4,353.8c-5.1-19.9-8.4-24.2-8.5-38.5c-0.1-14.4-16.1-44.5-28.8-34.9l-2.2-1.3c0,0-8.7,12.8-6.5,28.1
	s11,46.4,13.1,54.2c1.8,6.6,4.7,16.5,5.8,25.4l-1.2,34.9c0,0,0.8,3.6,7.8,3.1c7-0.5,13.7-3.9,13.7-3.9S997.5,373.7,992.4,353.8
	L992.4,353.8z"/>
<path class="st7" d="M956.5,426.8c0,0-3.2,2.1-0.8,4.5c2.4,2.4,14-0.7,19.2-2.7c5.3-2,4.1-7,4.1-7s1.7,4.7,1.7,7.8s-0.2,4.7-2.3,5.9
	s-10-0.9-12,0s-9.8,6.5-15.5,5.6s-12.5-4.6-12.5-4.6s8.4-8.6,11.9-8.6S956.5,426.8,956.5,426.8L956.5,426.8z"/>
<path class="st5" d="M1004.6,464.2c0,0-0.5,1.7,4.2,3.3c4.7,1.6,9.9-3.4,12.3-7.2s4.2-16.7,4.2-16.7s0.6,0.8,1.3,3.2
	c0.7,2.3,0,6,0,6s-0.5,15.4-5.2,21.6c-4.7,6.2-19.3,7-19.3,7s-4.2-2.3-2.1-8.1C1002.1,467.6,1004.6,464.3,1004.6,464.2L1004.6,464.2
	z"/>
<path class="st7" d="M1008,458.4c0,0-4.8,5.3,0,6.9c4.7,1.6,9.9-3.4,12.3-7.3s4.2-16.7,4.2-16.7s0.6,0.8,1.3,3.2c0.7,2.3,0,6,0,6
	s-0.5,15.4-5.2,21.6s-19.3,7-19.3,7s-4.2-2.3-2.1-8.1C1001.3,465.3,1008,458.4,1008,458.4L1008,458.4z"/>
<path class="st3" d="M1023.8,401.5L1023.8,401.5c0.1-8.1-9.2-16.6-9.2-16.6s0-65.2-5.1-81.9c-5.1-16.7-26-26.2-39.4-18.5
	s18,97.5,18,97.5s20.9,36.9,22.5,46.2s1.6,15.3,1.6,15.3s-1.7,4.7,6.5,2.6c8.2-2.2,12.8-9.4,12.8-9.4S1026.1,414.2,1023.8,401.5
	L1023.8,401.5z"/>
<path class="st8" d="M938,218.9c0,0-4.4-17,10.9-20.9c15.3-3.9,41.5,16.6,49.5,24.5c8,7.9,1.7,23.3-1.8,39.2
	c-3.6,15.9,1.7,7.4,6.6,22.7s6.3,18.5,6.3,18.5s-9.3,13.4-23.4,13.4s-40.8-9.8-40.8-9.8s0.5-20,1.2-35.1
	C947.5,250.7,938,218.9,938,218.9L938,218.9z"/>
<path class="st9" d="M949,222.1l25.9,14.9c0,0,1.6,19.2,6.6,27.8s18.4,12.2,18.4,12.2l4.3,72.3c0,0-15.4,8.3-37.4,0
	c-16-6-19.3-16-19.3-16l-5.8-83.2c0,0,1.7,0,5.2-6.5C948.7,240.5,949,222.2,949,222.1L949,222.1z"/>
<path class="st9" d="M946.9,243.8c0,0-5.8-27.2-3.7-34.6s7.5-11.7,7.5-11.7l4.5,2.6c0,0-7.9,4.6-6.6,13.7c1.2,9.1,3.5,23.3,3.5,23.3
	L946.9,243.8L946.9,243.8z"/>
<path class="st10" d="M956.1,207.7c0,0,0.5,2.8,0,6.1c-0.5,3.4,0.1,5.2,0.7,6.8c2.2,5.9,16.8-7.2,22.6-10.8c3.3-2-6.6-3-5.7-9.1
	c0.9-6.1-2-10.6-2-10.6L956.1,207.7L956.1,207.7z"/>
<path class="st1" d="M962.1,159.3c-0.8,0.1-14.4,3.4-18.1,11.6s-0.5,12.7-0.6,15.1c-0.1,2.3-1.6,1.8-1.7,5.4s2.3,5.8,2.2,7.8
	c-0.1,1.9,2.7,3.5,2.6,7.2c-0.1,3.7,4.2,3.9,8.5,3.3c6-0.8,22.2-12.5,25-21C982.8,179.7,985.9,155.8,962.1,159.3L962.1,159.3z"/>
<path class="st11" d="M948.4,164.5c0,0,3.7,17.1,8,21.8c4.4,4.7,17.4,11.1,17.4,11.1s-1.4,5.4-0.4,6.8c2,2.7,12.7,8.1,12.7,8.1
	s0.2-9.7-2.2-12.3c-2.4-2.6-5.1-6.7-5.1-6.7s17.2-22-1.2-34.4C957.2,145.2,948.4,164.5,948.4,164.5L948.4,164.5z"/>
<path class="st12" d="M968.1,189.7c0.1-0.1,2.5-2.7,3.6-1.3s1.4,3.6,0.1,6c-1.3,2.4-3.6,5.1-5.4,4.5c-1.7-0.6-2.3-0.5-2.8-2.2
	s0.6-3,0.6-3L968.1,189.7L968.1,189.7z"/>
<path class="st1" d="M967.4,189.7c0.1-0.1,2.5-2.7,3.6-1.3c1.1,1.4,1.4,3.6,0.1,6c-1.3,2.4-3.6,5.1-5.4,4.5
	c-1.7-0.6-2.3-0.5-2.8-2.2c-0.5-1.6,0.6-3,0.6-3L967.4,189.7L967.4,189.7z"/>
<path class="st12" d="M968.5,190.9c0,0,0,1.7,0,2.4c0,0.7-0.2,1.9-0.7,2.3c-0.5,0.4-1,0.6-1,0.6s1-2.6,1.1-3.7c0.1-1.1,0.3-2,1-2.6
	s1.4-1.4,1.8-0.3c0.4,1.1,0.7,2.3,0,3.8c-0.7,1.6-1.8,3.1-2.8,3.6s-2.1,0.5-2.1,0.5s2.2-0.2,3.2-1.9c1-1.7,2.1-4.5,1.7-5.2
	c-0.4-0.7-0.4-0.8-0.7-0.1c-0.3,0.7-0.2,1.8-0.6,1.3s-0.1-1.5-0.5-1.2C968.4,190.8,968.5,190.9,968.5,190.9L968.5,190.9z"/>
<path class="st12" d="M967.1,193.9c0,0,0.2-1.6-0.1-1.6s-0.4-0.1-0.8,0.4c-0.4,0.4-0.5,0.6-0.9,0.3c-0.4-0.3-0.6-0.8-0.4,0
	c0.2,0.8,0.5,0.1,1.1,0.8c0.5,0.7,0.1,1.3,0.5,1.5c0.5,0.2,0.5-0.9,0.5-1.3L967.1,193.9L967.1,193.9z"/>
<path class="st11" d="M942.6,179.6c0,0-3.6-6.1-1.5-11.4c2.1-5.2,7.4-4.9,7.4-4.9s3.5,1.8,1.2,5.1
	C947.5,171.7,942.6,175.6,942.6,179.6z"/>
<path class="st13" d="M943.7,263.4c0,0,1.7,11.4,4.9,14.5s7.2-3.3,9.3-5.4c2.1-2.1,4.1-6.9,0.8-10.4
	C955.3,258.6,943.7,263.4,943.7,263.4z"/>
<path class="st1" d="M993.7,226.4c0,0-7.4-1.5-11.8,8.3c-4.4,9.8-2.3,20.6-2.8,24.8c-0.8,6.5-2.7,16-2.7,16s-9-4.9-17-8.7
	c-6.5-3-17.7-19.3-17.7-19.3l-5.3,7.9c0,0,16.9,20.9,27.3,27.9c6,4.1,12.7,9.7,14.6,8.2c1.9-1.5,17-26,18.6-33.5
	C998.3,250.7,1007.2,228.7,993.7,226.4L993.7,226.4z"/>
<g>
	<path class="st14" d="M893.9,467.8c-2-0.7-4-0.7-5.4-2c0.7,1.4,2,2.7,3.4,3.4c-2,0-3.4-1.3-4.7-2c-0.7,0-1.3,0-0.7,0.7
		c1.3,0.7,2,2,3.4,2.7c-2,0-3.4-2-5.4-2c1.3,0.7,1.3,2.7,2.7,3.4c-1.3-0.7-2.7-2.7-4.7-2.7c0.7,0.7,0.7,2,0.7,3.4
		c-1.3-1.4-0.7-3.4-2-4c0,1.3-0.7,2.7-2,4c-0.7-1.4,0.7-2.7,0.7-4c-1.3,1.3-2.7,2-4,3.4c0-1.3,0.7-2.7,2-4c-2,0-2.7,2.7-4.7,2.7
		c0-1.4,2-2,2-3.4c-1.3,0.7-2.7,2-4.7,2l2.7-2.7c-2,0-3.4,2-5.4,2c0.7-1.4,3.4-1.4,3.4-3.4c-2,0-3.4,1.3-4.7,2c0.7-1.4,2-2,2.7-3.4
		c-1.3,2-4,1.3-5.4,2.7c0.7-2,2.7-2,3.4-3.4c-2,0-3.4,1.3-4.7,2c-0.7,0-0.7,0-0.7-0.7c0.7-1.3,2.7-0.7,3.4-2.7c-2,0-3.4,2-5.4,2
		c0.7-1.4,2.7-1.4,3.4-3.4c-2,0.7-3.4,1.3-5.4,2c0.7,0,1.3-0.7,1.3-0.7c0.7-0.7,0.7-1.3,2-2c-2,0.7-3.4,1.4-5.4,2
		c0.7-2,2.7-2,3.4-3.4c-2,0-3.4,1.3-4.7,2c-0.7,0-0.7,0-0.7-0.7c0.7-1.3,2.7-0.7,3.4-2.7c-2,0-3.4,1.4-4.7,2c-0.7,0-0.7,0-0.7-0.7
		c0.7-1.4,2.7-0.7,3.4-2.7c-2,0.7-3.4,1.3-5.4,2c0.7-1.3,2.7-1.3,3.4-2.7c-2-0.7-3.4,1.4-5.4,1.4c2,0,2-2.7,4-2.7
		c-2,0.7-4,0.7-6.1,2c1.3-1.4,2.7-2,4-3.4c-2,0-4,2-6.1,2c1.3-1.4,2.7-2,4-3.4c-2,0-4,2-6,2c1.3-1.3,2.7-2,4-3.4c-2,0-4,2-6,2
		c2-0.7,2.7-2,4-3.4c-2,1.4-4.7,0.7-6,2.7c1.3-1.3,2-2.7,4-3.4c-2,0-4,2-6,2c1.3-1.4,2.7-2,4-2.7c0.7-0.7,0-0.7-0.7-0.7
		c-2,0.7-3.4,1.4-5.4,2c1.3-1.4,2.7-2,4-2.7c0.7-0.7,0-0.7-0.7-0.7c-1.3,1.3-2.7,2-4.7,2c0.7-1.4,2.7-2,3.4-3.4
		c-1.3,1.4-4,1.4-5.4,2.7c0.7-1.3,2-2.7,3.4-3.4c-2,0-3.4,1.3-5.4,2c0.7-2,3.4-1.4,4-3.4c-2,0.7-4,0.7-5.4,2c-0.7,0.7-1.3,0-0.7-0.7
		c1.3-0.7,2.7-1.4,4-2.7c-2,0.7-4,1.3-6.1,2c1.3-1.4,2.7-2.7,4.7-2.7c-2.7,0-4.7,0.7-6.7,1.3c2-0.7,3.4-1.3,4.7-2.7
		c-2,0.7-3.4,0-5.4,1.3c-0.7,0-0.7-0.7-0.7-0.7c2,0,3.4-1.3,5.4-2c-2-0.7-4.7,0.7-6.7,0.7c2-1.4,4.7-1.4,6.7-1.4
		c-2-0.7-4.7-0.7-6.7-1.3c2-0.7,4.7,0.7,6.7,0.7c-1.3-2-3.4-1.4-4.7-2.7c2-0.7,4,1.3,6,1.3c-1.3-1.3-2.7-2-4-2.7c2,0,4,2,6,1.4
		c-2,0-2-2.7-4-2.7c2.7-0.7,3.4,2,6,2c-1.3-1.3-2.7-2-4-3.4c2,0,4,2,6,2c-1.3-1.4-2.7-2-4-3.4c2,0,4,2,6.1,2c-2-0.7-2-2-3.4-3.4
		c1.3,1.3,2.7,2,4.7,2.7c0-1.4-1.3-2-2-3.4c1.3,1.3,2.7,2,4,3.4v-4c1.3,1.4,0.7,2.7,1.3,4c1.3-1.4,1.3-2.7,2.7-4
		c0,1.4-1.3,2.7-0.7,4c1.3-1.4,2.7-2,4-3.4c-1.3,1.3-2,2.7-2,4c1.3-1.3,2.7-2.7,4.7-2.7c0,2-3.4,2-2.7,3.4c0.7,0.7,2-0.7,3.4-2
		c0.7-0.7,1.3-0.7,2-0.7c-1.3,0.7-2,2.7-3.4,3.4c2,0,3.4-2,5.4-2l-2.7,2.7c2,0,3.4-1.3,4.7-2c0,2-3.4,2-2.7,2.7
		c1.3,1.4,3.4-1.3,5.4-1.3c-0.7,1.3-3.4,1.3-3.4,3.4c2,0,3.4-1.3,4.7-2l-2.7,2.7c2-0.7,3.4-1.3,5.4-2c0,2-3.4,1.3-3.4,3.4
		c2,0,3.4-1.3,4.7-2c0.7,0,0.7,0,0.7,0.7c-0.7,0.7-2,0.7-2.7,1.3c-0.7,0-0.7,1.4-0.7,1.4c2,0.7,3.4-2,5.4-2
		c-0.7,1.4-2.7,1.4-3.4,2.7c2,0.7,3.4-0.7,4.7-1.4c-1.3,0.7-1.3,2.7-3.4,2.7c2-0.7,4-0.7,6.1-1.3c-2,0-2,2.7-4,2.7
		c2-0.7,4-0.7,6.1-2c-1.3,1.4-2.7,2-4,3.4c2,0,4-2,6.1-2c-0.7,2-3.4,1.3-4,3.4c2,0,3.4-2,5.4-2c0,0.7-0.7,0.7-0.7,1.4
		c-0.7,0.7-2,0.7-2.7,1.3c2,0.7,3.4-1.3,5.4-1.3c-0.7,0-1.3,0.7-1.3,0.7c-0.7,0.7-0.7,1.4-2,2c2-0.7,3.4-1.3,5.4-2
		c0,2-3.4,1.4-3.4,3.4c2,0,3.4-1.4,4.7-2c0.7,0,1.3,0,0.7,0.7c-1.3,0.7-2.7,1.4-4,2.7c2-0.7,3.4-1.4,5.4-2c-0.7,2-2.7,2-3.4,3.4
		c2,0,3.4-2.7,6-2c-2,0-2,2.7-4,2.7c2,0,4-1.3,6-2c-1.3,1.4-2.7,2-4,3.4c2-0.7,4-1.4,6-2c-1.3,1.3-3.4,1.3-4,3.4
		c1.3-1.3,3.4-1.3,5.4-2c-1.3,1.3-2.7,2-4,3.4c2-0.7,4-2,6.1-2c-1.3,0.7-2.7,2-4,2.7c2,0,4-2,6-1.3c-2,0-2.7,2.7-4.7,2.7
		c2-0.7,4.7-0.7,6.7-2c-1.3,2-3.4,1.4-4.7,3.4c2-0.7,4-1.3,6-1.3c-1.3,0.7-3.4,1.3-4.7,2c-0.7,0.7,0,0.7,0.7,0.7
		c2-1.4,3.4-0.7,5.4-1.4c-1.3,1.4-3.4,1.4-5.4,2h6.7c-2,0-4,1.4-6,0.7c2,1.3,4,0.7,6,1.3h-6.7c2,0.7,3.4,1.4,5.4,2c-2,0-4-1.4-6-0.7
		c1.3,1.3,3.4,0.7,4,2.7c-1.3-1.4-3.4-1.4-5.4-2c0,2,3.4,1.3,3.4,3.4c-2-0.7-3.4-2-5.4-2c0.7,0,1.3,0.7,1.3,0.7
		C892.5,466.4,892.5,467.1,893.9,467.8z"/>
	<path class="st15" d="M828.6,428.9c1.9,0,3.9,0.6,5.2,1.3c-1.3-0.6-1.3-2.6-3.2-2.6c1.9,0,3.9,1.9,5.8,1.9
		c-0.7-1.3-2.6-1.3-3.2-2.6c-0.7-0.6,0-0.6,0.6-0.6c1.3,1.3,3.2,1.3,3.9,2.6c0-1.3-1.9-2.6-1.9-3.9c1.3,1.3,2.6,1.9,3.9,3.2
		c0-1.3,0-1.9-0.7-3.2l0.7-0.6c0.7,1.3,0,3.2,1.3,3.2c1.3,0.6,1.3-1.9,2.6-3.2c0,1.3-1.3,2.6-0.7,3.9c0.7-1.3,2.6-1.9,3.9-3.2
		c-1.3,1.3-1.9,2.6-1.9,3.9c1.3-1.3,2.6-2.6,4.5-2.6c-0.7,1.3-2.6,1.3-2.6,3.2c1.9,0,3.2-1.3,4.5-1.9c-1.3,0.6-1.3,2.6-2.6,2.6
		c1.9,0,3.2-1.9,5.2-1.9l-3.2,3.2c1.9,0,3.2-1.9,5.2-1.9c-1.3,0.6-1.3,2.6-3.2,2.6c1.9-0.6,3.9-0.6,5.8-1.9
		c-1.3,1.3-2.6,1.9-3.9,3.2c1.9,0,3.9-1.9,5.8-1.9c-1.3,1.3-2.6,1.9-3.9,3.2c1.9,0,3.9-1.9,5.8-1.9c-1.9,0.6-2.6,1.9-3.9,3.2
		c1.3-1.3,3.9-0.6,5.2-1.9c-1.3,0.6-1.3,2.6-3.2,2.6c1.9-0.6,3.9-0.6,5.8-1.9c-1.3,1.3-2.6,1.9-3.9,3.2c1.9,0,3.9-1.9,5.8-1.9
		c-1.3,1.3-2.6,1.9-3.9,3.2c1.9,0,3.9-1.9,5.8-1.9c-1.3,1.3-2.6,1.9-3.9,3.2c1.9-0.6,3.9-1.9,5.8-1.9c-1.9,0-1.9,2.6-3.9,2.6
		c1.9,0,3.2-1.3,5.2-1.3c-1.3,0.6-1.9,1.9-3.2,2.6c1.9-0.6,3.2-1.3,5.2-1.9c-0.7,1.9-2.6,1.9-3.2,3.2c1.9,0,3.2-1.3,4.5-1.9
		c0.7,0,0.7,0,0.7,0.6c-0.7,1.3-2.6,0.6-3.2,2.6c1.9,0,3.2-1.3,4.5-1.9c0.7,0,0.7,0,0.7,0.6c-0.7,1.3-2.6,0.6-3.2,2.6
		c1.9-0.6,3.2-1.3,5.2-1.9c-1.3,0.6-1.9,1.9-3.2,2.6c1.9-0.6,3.2-1.3,5.2-1.9c-1.3,1.3-1.9,2.6-3.9,3.2c1.9,0,3.2-1.3,5.2-1.9
		c0.7,0,1.3,0,0.7,0.6c-1.3,0.6-2.6,1.3-3.9,2.6c1.9-0.6,3.2-1.3,5.2-1.9c0.7,0,1.3,0,0.7,0.6c-1.3,0.6-2.6,1.3-3.9,2.6
		c1.9,0,3.9-1.9,5.8-1.9c-1.9,0.6-2.6,1.9-3.9,3.2c1.9-1.3,3.9-1.3,5.8-2.6c-1.3,1.3-1.9,2.6-3.9,3.2c1.9,0,3.9-1.9,5.8-1.9
		c-1.3,1.3-2.6,1.9-3.9,2.6c-0.7,0.6,0,0.6,0.7,0.6c1.9-0.6,3.2-1.3,5.2-1.9c-1.3,1.9-3.2,1.9-4.5,3.2c1.9-0.6,3.9-1.3,5.8-1.9
		c-0.7,1.3-2.6,1.9-3.9,2.6c1.9,0,3.9-0.6,5.8-1.3c-1.3,0.6-2.6,1.9-4.5,2.6c2.6,0,4.5-0.6,6.5-1.3c-1.9,1.3-3.9,1.3-5.8,2.6
		c1.9,0.6,4.5-0.6,6.5-0.6c-1.9,1.3-3.9,0.6-5.8,1.3c1.9,1.3,3.9,0,5.8,1.3c-1.9,0.6-4.5-0.6-6.5-0.6c1.3,1.3,3.2,1.3,4.5,2.6
		c-1.9-0.6-3.9-1.3-5.8-1.3c1.9,0,1.9,2.6,3.9,2.6c-1.9,0.6-3.2-1.9-5.2-1.3c1.3,0.6,1.9,1.9,3.2,2.6c-1.9-0.6-3.9-0.6-5.2-1.9
		c0,1.9,3.2,1.3,3.2,3.2c-1.9,0-3.2-1.3-4.5-1.9c-0.7,0-0.7,0-0.7,0.6c0.7,1.3,1.9,1.3,3.2,1.9c-1.9,0.6-3.2-1.3-5.2-1.3
		c1.3,0.6,1.3,2.6,3.2,2.6c-1.9,0-3.2-1.3-4.5-1.9c-0.7,0-0.7,0-0.7,0.6c1.3,0.6,1.9,1.3,1.9,2.6c-1.3-0.6-1.9-2.6-3.2-2.6
		c-0.7-0.6-0.7,1.3,0,2.6l-0.7,0.6c-0.7-1.3-0.7-2.6-1.3-3.9c0,1.9-2.6,1.9-1.9,3.9c0-1.3,0-1.9,0.7-3.2l-0.7-0.6
		c-0.7,1.3-2.6,1.3-3.2,3.2c0-1.3,1.3-2.6,1.3-3.9c-1.3,1.3-2.6,1.9-3.9,2.6c0-1.3,2.6-1.9,1.9-3.2c-1.3-0.6-2.6,1.9-3.9,2.6
		c-0.7,0.6-0.7,0-0.7-0.6c0.7-1.3,2.6-1.3,2.6-2.6c-1.9,0-3.2,1.3-4.5,1.9c0-1.9,2.6-1.9,2.6-3.2c-1.9,0.6-3.2,1.3-5.2,1.9
		c1.9,0,1.3-2.6,3.2-2.6c-1.9,0-3.2,1.3-4.5,1.9c-0.7,0-0.7,0-0.7-0.6c0.7-1.3,2.6-1.3,3.2-2.6c-1.9,0-3.2,1.9-5.2,1.9l3.2-3.2
		c-1.9,1.3-3.9,0.6-5.2,2.6c0.7-1.9,1.3-2.6,3.2-3.2c-1.9,0-3.2,1.3-5.2,1.9c0-1.9,2.6-1.9,3.2-3.2c-1.9,0-3.2,1.3-4.5,1.9
		c-0.7,0-0.7,0-0.7-0.6c0.7-1.3,3.2-0.6,3.2-2.6c-1.9,0-3.2,1.9-5.2,1.9c0.7-1.3,2.6-1.9,3.2-3.2c-1.9,0.6-3.2,1.3-5.2,1.9
		c0.7,0,1.3-0.6,1.3-0.6c0.7-0.6,0.7-1.3,1.9-1.9c-1.9,0.6-3.2,1.3-5.2,1.9c0.7-1.9,2.6-1.9,3.2-3.2c-1.9,0-3.2,1.3-4.5,1.9
		c-0.7,0-0.7,0-0.7-0.6c0.7-0.6,1.9-0.6,2.6-1.3c0.7,0,0.7-1.3,0.7-1.3c-1.9-0.6-3.2,1.9-5.2,1.9c1.3-1.3,2.6-1.9,3.9-3.2
		c-1.3,1.3-3.9,0.6-5.2,1.9c1.3-0.6,1.3-2.6,3.2-2.6c-1.9,0.6-3.9,0.6-5.8,1.9c1.3-1.3,2.6-1.9,3.9-3.2c-1.9,0-3.9,1.9-5.8,1.9
		c1.3-1.3,2.6-1.9,3.9-2.6c0.7-0.6,0-0.6-0.7-0.6c-1.3,1.3-3.2,0.6-4.5,1.9c0-1.9,2.6-1.3,3.2-2.6c0.7-0.6,0-0.6-0.7-0.6
		c-1.3,1.3-2.6,1.9-4.5,1.9c0.7,0,1.3-0.6,1.3-0.6c0.7-0.6,0.7-1.3,1.9-1.9c-1.9,0-3.9,0.6-5.2,1.9c0.7-1.3,2.6-1.9,3.9-3.2
		c-1.9,0.6-3.9,0.6-5.2,1.9c-0.6,0.6-1.3,0-0.6-0.6c1.3-0.6,2.6-1.3,3.9-2.6c-1.9,0.6-3.9,1.3-5.8,1.9c1.3-1.3,2.6-1.9,3.9-2.6
		c0.7-0.6,0-0.6-0.7-0.6c-1.3,1.3-3.2,1.9-5.2,1.9c1.9,0,2.6-3.2,4.5-2.6c-1.9-0.6-3.9,1.9-5.8,1.3c1.9,0,1.9-2.6,3.9-2.6
		c-1.9-0.6-3.9,1.3-5.8,1.3c1.3-1.3,3.2-1.3,4.5-2.6c-1.9,0.6-3.9,1.3-6.5,1.3c1.9-0.6,3.2-1.9,5.2-2.6c-1.9,0.6-3.9,1.3-6.5,1.3
		c1.9-0.6,3.2-1.3,5.2-1.9h-6.5c2.6,0,4.5-0.6,6.5-1.3c-1.9,0.6-4.5-0.6-6.5-0.6h6.5c-1.3-1.3-3.2-1.3-5.2-1.9
		c1.9,0,4.5,1.3,6.5,0.6c-1.9,0-3.2-1.3-4.5-2.6c1.9,1.3,3.9,1.3,5.8,1.9c-1.3-1.3-2.6-1.9-3.9-3.2c1.9,0.6,3.9,1.3,5.8,1.9
		C831.2,430.8,830.5,428.9,828.6,428.9L828.6,428.9z"/>
</g>
<path class="st16" d="M877,465.3L829.7,438l15.7-9l47.3,27.3L877,465.3z"/>
<g>
	<path class="st17" d="M856.5,435.4l25.2,14.5l-15.8,9.1l-25.2-14.5l0.8-1c2.1-2.8,4.5-5.1,7-6.5l0.1,0c2.2-1.3,4.4-1.9,6.3-1.7
		L856.5,435.4L856.5,435.4z"/>
	<path class="st14" d="M866.6,441.2l5.6,3.2l-15.8,9.1l-5.6-3.2l0.8-1c2.1-2.8,4.5-5.1,7-6.5l0.1,0c2.2-1.3,4.4-1.9,6.3-1.7
		L866.6,441.2L866.6,441.2z"/>
	<path class="st17" d="M866.6,441.2l-10.7,6.2l-5.1,2.9l0.8-1c2.1-2.8,4.5-5.1,7-6.5l0.1,0c2.2-1.3,4.4-1.9,6.3-1.7L866.6,441.2
		L866.6,441.2z"/>
	<path class="st18" d="M861.2,448.4l-2.8-1.6c-0.3-0.2-0.6-0.6-0.6-1v-1.1c0-0.9,0.9-1.4,1.7-1l3.3,1.9c0.5,0.3,0.7,1,0.4,1.5
		l-0.5,0.8C862.4,448.6,861.7,448.8,861.2,448.4L861.2,448.4z"/>
	<path class="st17" d="M872.2,444.5l-15.8,9.1l0.7-1c2.1-2.8,4.5-5.1,7-6.5l0.1,0c2.2-1.3,4.4-1.9,6.3-1.7L872.2,444.5L872.2,444.5z
		"/>
	<path class="st13" d="M881.7,450l-15.8,9.1l0.7-1c2.1-2.8,4.5-5.1,7-6.5l0.1,0c3.9-2.5,4.9-2.2,6.3-1.7L881.7,450L881.7,450z"/>
</g>
<g>
	<path class="st5" d="M928.8,239L859,444.1c-0.1,0.2-0.1,0.6,0.2,0.9c0.5,0.7,1.5,1.2,2.3,1.1c0.4,0,0.7-0.2,0.8-0.4L932,240.6
		L928.8,239L928.8,239z"/>
	<path class="st19" d="M932.1,240.6c-0.9,1.1-3.7-0.3-3.3-1.6C929.7,237.9,932.4,239.2,932.1,240.6z"/>
</g>
<path class="st2" d="M937.5,239.8l-9.5-4.4c0,0-3.5-2.3-4.8,0.5s1,4.4,1,4.4s-2.2,0-2.6,2.6c-0.4,2.4,1.9,3.4,1.9,3.4
	s-2.5-0.8-2.5,1.6c0,1.1,1.3,2.8,1.3,2.8s-1.5,0.4,0,2.5s4,3.6,6.4,3.2c2.4-0.3,3.9,0.5,3.9,0.5l15.9,20.9c0,0-2.7-7,2-11.7
	c4.2-4.2,8.1-4.1,8.1-4.1L937.5,239.8L937.5,239.8z"/>
<path class="st20" d="M910.2,291.1l-3-1.1c0,0-4.1,1-3.4,2.5c0.7,1.5,3.1,4.2,3.2,5.2c0.1,1,6.4,2.2,6.4,2.2s2.1-0.4,0.3-2.4
	s-3.7-2-3.7-2l-0.7-2.1L910.2,291.1L910.2,291.1z"/>
<path class="st20" d="M910.4,287l-3.5-1.4c0,0-4.9,1.2-4,3s3.6,5,3.8,6.2c0.1,1.2,7.6,2.7,7.6,2.7s2.5-0.5,0.4-2.8
	c-2.1-2.3-4.3-2.3-4.3-2.3l-0.8-2.5L910.4,287L910.4,287z"/>
<path class="st20" d="M912.9,283.2l-3.1-2.2c0,0-5.1,0-4.6,2s2.4,5.7,2.2,6.9c-0.2,1.2,6.8,4.4,6.8,4.4s2.5,0.1,1-2.6
	s-3.7-3.3-3.7-3.3l-0.2-2.7L912.9,283.2L912.9,283.2z"/>
<path class="st20" d="M915,281l1.2-4c0,0-9.2-0.4-9,1.8c0.2,2.2,1.9,6.4,1.6,7.7c-0.3,1.3,6.7,5.4,6.7,5.4s2.6,0.4,1.4-2.8
	s-3.5-3.9-3.5-3.9l0.1-2.9L915,281L915,281z"/>
<path class="st20" d="M911.2,276.1c0,0,1.3,2.8,4.2,2.8s2.5-1.5,2.5-1.5l1.7,4.6c0,0-2,5.2,0,6.1c2,0.9,5.6-0.5,5.6-4.8
	s-1-6.5-1-6.5l-4.4-4.4L911.2,276.1L911.2,276.1z"/>
<path class="st21" d="M992.2,221.2c0,0-12.2,0-15,13.3s-3.7,28.6-3.7,28.6s11.2,11.5,17.7,7.8c6.4-3.7,10-5.6,10-5.6
	S1012.4,224.7,992.2,221.2L992.2,221.2z"/>
<g>
	<path class="st22" d="M1059.8,383.5c-7.8-4.5-14.2-15.6-14.2-24.6s6.4-12.7,14.2-8.2s14.2,15.6,14.2,24.6
		S1067.7,388.1,1059.8,383.5z M1059.8,354.4c-6.1-3.5-11.1-0.7-11.1,6.4c0,7,5,15.6,11.1,19.2c6.1,3.5,11.1,0.7,11.1-6.4
		S1066,357.9,1059.8,354.4z"/>
	<path class="st23" d="M1059.1,383.1l-1.6-0.9V353l1.6,0.9V383.1z"/>
	<path class="st23" d="M1048.8,352.9l1.1-0.6l17.9,31l-1.1,0.6L1048.8,352.9z"/>
	<path class="st23" d="M1070.9,376.2l-25.3-14.6v-1.8l25.3,14.6V376.2z"/>
	<path class="st23" d="M1048.8,372.2l17.9-10.3l1.1,1.9l-17.9,10.3L1048.8,372.2z"/>
	<path class="st24" d="M1058.3,384.5c-7.8-4.5-14.2-15.6-14.2-24.6c0-9,6.4-12.7,14.2-8.2s14.2,15.6,14.2,24.6
		C1072.5,385.3,1066.1,389,1058.3,384.5z M1058.3,355.3c-6.1-3.5-11.1-0.7-11.1,6.4s5,15.6,11.1,19.2c6.1,3.5,11.1,0.7,11.1-6.4
		C1069.3,367.4,1064.4,358.8,1058.3,355.3z"/>
	<path class="st25" d="M1058.3,384.5c-7.8-4.5-14.2-15.6-14.2-24.6c0-9,6.4-12.7,14.2-8.2s14.2,15.6,14.2,24.6
		C1072.5,385.3,1066.1,389,1058.3,384.5z M1058.3,355.3c-6.1-3.5-11.1-0.7-11.1,6.4s5,15.6,11.1,19.2c6.1,3.5,11.1,0.7,11.1-6.4
		C1069.3,367.4,1064.4,358.8,1058.3,355.3z"/>
	<path class="st26" d="M1061,344.9l-8.9,5.1c9.2,5.3,16.7,18.2,16.7,28.9l8.9-5.1C1077.6,363.1,1070.2,350.2,1061,344.9z"/>
	<path class="st22" d="M1105.2,357.3c-7.8-4.5-14.2-15.6-14.2-24.6c0-9,6.4-12.7,14.2-8.2s14.2,15.6,14.2,24.6
		C1119.5,358.1,1113.1,361.8,1105.2,357.3z M1105.2,328.1c-6.1-3.5-11.1-0.7-11.1,6.4c0,7,5,15.6,11.1,19.1
		c6.1,3.5,11.1,0.7,11.1-6.4C1116.3,340.2,1111.3,331.6,1105.2,328.1z"/>
	<path class="st23" d="M1104.4,356.8l-1.6-0.9v-29.2l1.6,0.9V356.8z"/>
	<path class="st23" d="M1094.1,326.6l1.1-0.6l17.9,31l-1.1,0.6L1094.1,326.6z"/>
	<path class="st23" d="M1116.3,350l-25.3-14.6v-1.8l25.3,14.6V350z"/>
	<path class="st23" d="M1094.2,346l17.9-10.3l1.1,1.9l-17.9,10.3L1094.2,346z"/>
	<path class="st24" d="M1103.7,358.2c-7.8-4.5-14.2-15.6-14.2-24.6c0-9,6.4-12.7,14.2-8.2s14.2,15.6,14.2,24.6
		C1117.9,359,1111.5,362.7,1103.7,358.2z M1103.7,329c-6.1-3.5-11.1-0.7-11.1,6.4s5,15.6,11.1,19.2c6.1,3.5,11.1,0.7,11.1-6.4
		C1114.7,341.1,1109.8,332.5,1103.7,329z"/>
	<path class="st25" d="M1103.7,358.2c-7.8-4.5-14.2-15.6-14.2-24.6c0-9,6.4-12.7,14.2-8.2s14.2,15.6,14.2,24.6
		C1117.9,359,1111.5,362.7,1103.7,358.2z M1103.7,329c-6.1-3.5-11.1-0.7-11.1,6.4s5,15.6,11.1,19.2c6.1,3.5,11.1,0.7,11.1-6.4
		C1114.7,341.1,1109.8,332.5,1103.7,329z"/>
	<path class="st26" d="M1106.3,318.6l-8.9,5.1c9.2,5.3,16.7,18.2,16.7,28.9l8.9-5.1C1123,336.9,1115.5,324,1106.3,318.6z"/>
	<g>
		<path class="st27" d="M1114.2,240.8l-5.7,77.7v0.2c0,1.4-0.9,2.8-2.7,3.8l-37.8,21.2c-1.5,0.9-3.5,1.4-5.4,1.5
			c-2.8,0.2-5.6-0.3-7.8-1.5l-23.9-13.8c-1.4-0.8-2.3-1.8-2.6-2.9v0l-0.1-1.1l-5.7-78.3l40.1,3.2L1114.2,240.8L1114.2,240.8z"/>
		<path class="st28" d="M1114.2,240.8l-5.7,77.7v0.2c0,1.4-0.9,2.8-2.7,3.8l-37.8,21.2c-1.5,0.9-3.5,1.4-5.4,1.5v-94.5L1114.2,240.8
			L1114.2,240.8z"/>
		<path class="st29" d="M1054.2,268.9l-30.4-17.6c-4.6-2.7-6-12.9-1.3-15.6l43.3-17.7c4.6-2.7,12.1-2.7,16.7,0l33.2,12.4
			c4.6,2.7,1.9,12.2-2.8,14.9l-42,23.6C1066.3,271.6,1058.8,271.6,1054.2,268.9z"/>
		<path class="st9" d="M1061.8,262c-3,0-5.7-0.7-7.8-1.9l-30.4-17.6c-1.9-1.1-2.9-2.4-2.9-3.9s1-2.8,2.9-3.9l42-23.6
			c2.1-1.2,4.8-1.9,7.8-1.9s5.7,0.7,7.8,1.9l30.4,17.6c1.9,1.1,2.9,2.4,2.9,3.9s-1,2.8-2.9,3.9l-42,23.6
			C1067.5,261.4,1064.8,262,1061.8,262L1061.8,262z"/>
		<path class="st1" d="M1073.4,210.6c2.7,0,5.4,0.6,7.2,1.7l30.4,17.6c1.5,0.9,2.3,1.9,2.3,2.9s-0.8,2-2.3,2.9l-42,23.6
			c-1.9,1.1-4.5,1.7-7.2,1.7s-5.4-0.6-7.2-1.7l-30.4-17.6c-1.5-0.9-2.3-1.9-2.3-2.9s0.8-2,2.3-2.9l42-23.6
			C1068,211.2,1070.7,210.6,1073.4,210.6L1073.4,210.6z M1073.4,208.3c-3,0-6.1,0.7-8.4,2l-42,23.6c-4.6,2.7-4.6,7,0,9.7l30.4,17.6
			c2.3,1.3,5.3,2,8.4,2s6.1-0.7,8.4-2l42-23.6c4.6-2.7,4.6-7,0-9.7l-30.4-17.6C1079.5,209,1076.4,208.3,1073.4,208.3z"/>
	</g>
	<g>
		<path class="st30" d="M1118,409.2l3.1-8l-7.6-4.5v8.9c0,1.5,1,3.4,2.3,4.1l0,0C1116.8,410.3,1117.7,410.1,1118,409.2L1118,409.2z"
			/>
		<path class="st22" d="M1121.1,410.4c0,1.7-0.6,2.9-1.5,3.5l-4.8,2.8l-7.6-13.3l4.7-2.8l0.3-0.2l0,0c0.9-0.5,2.2-0.4,3.6,0.5
			C1118.7,402.7,1121.1,406.9,1121.1,410.4L1121.1,410.4z"/>
		<path class="st25" d="M1105.8,406.9c0,3.5,2.4,7.7,5.3,9.5c2.9,1.7,5.3,0.3,5.3-3.2s-2.4-7.7-5.3-9.5
			C1108.1,402,1105.8,403.4,1105.8,406.9z"/>
		<path class="st31" d="M1108.4,408.5c0,1.7,1.2,3.9,2.6,4.7s2.6,0.2,2.6-1.6s-1.2-3.9-2.6-4.7S1108.4,406.8,1108.4,408.5z"/>
		<path class="st26" d="M1113.2,412.1l3.1-8l-7.6-4.5v8.9c0,1.5,1,3.4,2.3,4.1l0,0C1112.1,413.2,1112.9,413,1113.2,412.1
			L1113.2,412.1z"/>
		<g>
			<path class="st24" d="M1108.7,399.5l4.7-2.8l7.6,4.5l-4.7,2.8L1108.7,399.5z"/>
		</g>
		<g>
			<path class="st32" d="M1116.7,396.6h-3.6v2.9h0c-0.1,0.3,0.1,0.6,0.5,0.9c0.7,0.4,1.8,0.4,2.6,0c0.4-0.2,0.6-0.6,0.5-0.9h0
				L1116.7,396.6L1116.7,396.6z"/>
			<path class="st33" d="M1116.2,397.4c-0.7,0.4-1.8,0.4-2.6,0c-0.7-0.4-0.7-1.1,0-1.5c0.9-0.5,2.2-0.6,2.6,0
				C1116.6,396.6,1116.9,396.9,1116.2,397.4z"/>
		</g>
	</g>
	<g>
		<path class="st30" d="M1166.8,381l3.1-8l-7.6-4.5v8.9c0,1.5,1,3.4,2.3,4.1l0,0C1165.6,382.1,1166.5,381.9,1166.8,381L1166.8,381z"
			/>
		<path class="st22" d="M1169.9,382.2c0,1.7-0.6,2.9-1.5,3.5l-4.8,2.8l-7.6-13.3l4.7-2.8l0.3-0.2l0,0c0.9-0.5,2.2-0.4,3.6,0.5
			C1167.5,374.5,1169.9,378.7,1169.9,382.2L1169.9,382.2z"/>
		<path class="st25" d="M1154.6,378.7c0,3.5,2.4,7.7,5.3,9.5c2.9,1.7,5.3,0.3,5.3-3.2s-2.4-7.7-5.3-9.5
			C1157,373.8,1154.6,375.2,1154.6,378.7z"/>
		<path class="st31" d="M1157.3,380.3c0,1.7,1.2,3.9,2.6,4.7s2.6,0.2,2.6-1.6c0-1.7-1.2-3.9-2.6-4.7
			C1158.4,377.9,1157.3,378.6,1157.3,380.3z"/>
		<path class="st26" d="M1162.1,383.9l3.1-8l-7.6-4.5v8.9c0,1.5,1,3.4,2.3,4.1l0,0C1160.9,385,1161.8,384.8,1162.1,383.9
			L1162.1,383.9z"/>
		<g>
			<path class="st24" d="M1157.6,371.3l4.7-2.8l7.6,4.5l-4.7,2.8L1157.6,371.3z"/>
		</g>
		<g>
			<path class="st32" d="M1165.5,368.4h-3.6v2.9h0c-0.1,0.3,0.1,0.6,0.5,0.9c0.7,0.4,1.8,0.4,2.6,0c0.4-0.2,0.6-0.6,0.5-0.9h0
				L1165.5,368.4L1165.5,368.4z"/>
			<path class="st33" d="M1165,369.2c-0.7,0.4-1.8,0.4-2.6,0c-0.7-0.4-0.7-1.1,0-1.5c0.9-0.5,2.2-0.6,2.6,0
				C1165.4,368.4,1165.7,368.7,1165,369.2z"/>
		</g>
	</g>
	<g>
		<path class="st8" d="M1160.8,361.7v0.6l-40.5-23.4c-2-1.1-5.2-1.1-7.1,0l-40.5,23.4v-0.6h-9.4v7.2c0,0.8,0.5,1.5,1.5,2.1l48.4,28
			c2,1.1,5.2,1.1,7.1,0l48.4-28c1-0.6,1.5-1.3,1.5-2.1v-7.2H1160.8z"/>
		<path class="st31" d="M1168.7,363.8l-5.2,3l-43.2,24.9c-1.9,1.1-5.2,1.1-7.1,0l-43.1-24.9l-5.3-3c-2-1.1-2-3,0-4.1l48.4-27.9
			c1.9-1.1,5.2-1.1,7.1,0l48.4,27.9C1170.7,360.8,1170.7,362.6,1168.7,363.8z"/>
		<path class="st8" d="M1163.5,366.8l-43.2,24.9c-1.9,1.1-5.2,1.1-7.1,0l-43.1-24.9l44.4-25.7c0.6-0.3,1.4-0.5,2.3-0.5
			c0.9,0,1.7,0.2,2.3,0.5L1163.5,366.8z"/>
		<path class="st34" d="M1116.7,331.9c1.1,0,2.2,0.2,3,0.7l48.4,27.9c0.6,0.4,0.9,0.8,0.9,1.1c0,0.3-0.3,0.7-0.9,1.1l-5.2,3
			l-43.2,24.9c-0.8,0.4-1.8,0.7-3,0.7s-2.2-0.2-3-0.7l-43.1-24.9l-5.3-3c-0.6-0.3-0.9-0.7-0.9-1.1c0-0.4,0.3-0.8,0.9-1.1l48.4-27.9
			C1114.5,332.2,1115.6,331.9,1116.7,331.9L1116.7,331.9z M1116.7,330.8c-1.3,0-2.6,0.3-3.6,0.9l-48.4,27.9c-2,1.2-2,3,0,4.1l5.3,3
			l43.1,24.9c1,0.6,2.3,0.8,3.6,0.8s2.6-0.3,3.6-0.8l43.2-24.9l5.2-3c2-1.1,2-3,0-4.1l-48.4-27.9
			C1119.3,331.1,1118,330.8,1116.7,330.8z"/>
	</g>
	<g>
		<path class="st34" d="M1132.6,351.8l-3.3-1.9v-93.5l3.3,1.9V351.8z"/>
		<path class="st8" d="M1132.6,351.8l3.3-1.9v-93.5l-3.3,1.9V351.8z"/>
	</g>
	<g>
		<path class="st8" d="M1143,301.4v0.6l-20.8-12.6c-2-1.1-5.2-1.1-7.1,0l-40.5,23.4v-0.6h-9.4v7.2c0,0.8,0.5,1.5,1.5,2.1l28.8,17.2
			c2,1.1,5.2,1.1,7.1,0l48.4-28c1-0.6,1.5-1.3,1.5-2.1v-7.2H1143z"/>
		<path class="st31" d="M1150.9,303.5l-5.2,3l-43.2,24.9c-1.9,1.1-5.2,1.1-7.1,0l-23.5-14.1l-5.3-3c-2-1.1-2-3,0-4.1l48.4-27.9
			c1.9-1.1,5.2-1.1,7.1,0l28.8,17.1C1152.9,300.5,1152.9,302.4,1150.9,303.5z"/>
		<path class="st8" d="M1145.7,306.5l-43.2,24.9c-1.9,1.1-5.2,1.1-7.1,0l-23.5-14.1l44.4-25.7c0.6-0.3,1.4-0.5,2.3-0.5
			c0.9,0,1.7,0.2,2.3,0.5L1145.7,306.5L1145.7,306.5z"/>
		<path class="st34" d="M1118.6,282.5c1.1,0,2.2,0.2,3,0.7l28.8,17.2c0.6,0.4,0.9,0.8,0.9,1.1c0,0.3-0.3,0.7-0.9,1.1l-5.2,3
			l-43.2,24.9c-0.8,0.4-1.8,0.7-3,0.7s-2.2-0.2-3-0.7l-23.5-14.1l-5.3-3c-0.6-0.3-0.9-0.7-0.9-1.1c0-0.4,0.3-0.8,0.9-1.1l48.4-27.9
			C1116.4,282.7,1117.5,282.5,1118.6,282.5L1118.6,282.5z M1118.6,281.3c-1.3,0-2.6,0.3-3.6,0.9l-48.4,27.9c-2,1.2-2,3,0,4.1l5.3,3
			l23.5,14.1c1,0.6,2.3,0.9,3.6,0.9s2.6-0.3,3.6-0.9l43.2-24.9l5.2-3c2-1.1,2-3,0-4.1l-28.8-17.1
			C1121.2,281.6,1119.9,281.3,1118.6,281.3z"/>
	</g>
	<g>
		<path class="st8" d="M1143,254.6v0.6l-20.8-12.6c-2-1.1-5.2-1.1-7.1,0l-40.5,23.4v-0.6h-9.4v7.2c0,0.8,0.5,1.5,1.5,2.1l28.8,17.2
			c2,1.1,5.2,1.1,7.1,0l48.4-28c1-0.6,1.5-1.3,1.5-2.1v-7.2H1143z"/>
		<path class="st31" d="M1150.9,256.7l-5.2,3l-43.2,24.9c-1.9,1.1-5.2,1.1-7.1,0l-23.5-14.1l-5.3-3c-2-1.1-2-3,0-4.1l48.4-27.9
			c1.9-1.1,5.2-1.1,7.1,0l28.8,17.1C1152.9,253.7,1152.9,255.6,1150.9,256.7z"/>
		<path class="st8" d="M1145.7,259.7l-43.2,24.9c-1.9,1.1-5.2,1.1-7.1,0l-23.5-14.1l44.4-25.7c0.6-0.3,1.4-0.5,2.3-0.5
			c0.9,0,1.7,0.2,2.3,0.5L1145.7,259.7L1145.7,259.7z"/>
		<path class="st34" d="M1118.6,235.7c1.1,0,2.2,0.2,3,0.7l28.8,17.2c0.6,0.4,0.9,0.8,0.9,1.1c0,0.3-0.3,0.7-0.9,1.1l-5.2,3
			l-43.2,24.9c-0.8,0.4-1.8,0.7-3,0.7s-2.2-0.2-3-0.7l-23.5-14.1l-5.3-3c-0.6-0.3-0.9-0.7-0.9-1.1s0.3-0.8,0.9-1.1l48.4-27.9
			C1116.4,236,1117.5,235.7,1118.6,235.7L1118.6,235.7z M1118.6,234.6c-1.3,0-2.6,0.3-3.6,0.8l-48.4,27.9c-2,1.2-2,3,0,4.1l5.3,3
			l23.5,14.1c1,0.6,2.3,0.9,3.6,0.9s2.6-0.3,3.6-0.9l43.2-24.9l5.2-3c2-1.1,2-3,0-4.1l-28.8-17.1
			C1121.2,234.8,1119.9,234.6,1118.6,234.6z"/>
	</g>
	<g>
		<path class="st34" d="M1088.2,377.5l-3.3-1.9v-93.5l3.3,1.9V377.5z"/>
		<path class="st8" d="M1088.2,377.5l3.3-1.9v-93.5l-3.3,1.9V377.5z"/>
	</g>
	<g>
		<path class="st35" d="M1092.5,331.9l-25.6-16.9v-9.4c0-6,2.2-11.4,6.7-12c1.4-0.2,5.8-0.1,5.8-0.1l-1.3-15.3
			c0-1.6,1.1-2.3,2.5-1.5l0,0c1.4,0.8,2.5,2.8,2.5,4.4l-1.1,13.3c0,0,7.2,4.9,8.6,6.7C1101.2,314.4,1092.5,331.9,1092.5,331.9
			L1092.5,331.9z"/>
		<path class="st36" d="M1092.5,322.5v9.4L1065,316v-9.4c0-6,2.2-10.8,6.7-11.3c1.4-0.2,5.8,0,5.8,0l-1.3-16.2
			c0-1.6,1.1-2.3,2.5-1.5l0,0c1.4,0.8,2.5,2.8,2.5,4.4l-1.2,14.7c0,0,4.4,4.9,5.7,6.6C1090.2,309.2,1092.5,316.5,1092.5,322.5
			L1092.5,322.5z"/>
		<path class="st37" d="M1091.8,325.3v6.2l-26.1-15.1v-6.2c0-5.7,2.1-10.2,6.4-10.7c1.3-0.2,4-0.4,5.5,0c0.6,0.2,1.9,0.9,2.5,1.4
			c1.5,1.2,4.1,4.6,5.4,6.3C1089.7,312.6,1091.8,319.6,1091.8,325.3z"/>
	</g>
	<g>
		<path class="st29" d="M1106.3,337l-4.2,2.4c0,0-0.4-2.4,0-3.1c0.6-1,3.2-3,4.2-2.4C1106.9,334.3,1106.3,337,1106.3,337z"/>
		<path class="st27" d="M1135,344.2l-2.4,32.9v0.1c0,0.6-0.4,1.2-1.2,1.6l-16,9c-0.6,0.4-1.5,0.6-2.3,0.6c-1.2,0.1-2.4-0.1-3.3-0.6
			l-10.1-5.9c-0.6-0.3-1-0.8-1.1-1.2v0l-0.1-0.5l-2.4-33.1l17,1.4L1135,344.2L1135,344.2z"/>
		<path class="st28" d="M1135,344.2l-2.4,32.9v0.1c0,0.6-0.4,1.2-1.2,1.6l-16,9c-0.6,0.4-1.5,0.6-2.3,0.6v-40L1135,344.2L1135,344.2
			z"/>
		<path class="st29" d="M1109.6,356.1l-12.9-7.4c-1.9-1.1-2.5-5.5-0.6-6.6l18.3-7.5c1.9-1.1,5.1-1.1,7.1,0l14,5.2
			c2,1.1,0.8,5.2-1.2,6.3l-17.8,10C1114.8,357.2,1111.6,357.2,1109.6,356.1L1109.6,356.1z"/>
		<path class="st9" d="M1112.9,353.1c-1.2,0-2.4-0.3-3.3-0.8l-12.9-7.4c-0.8-0.5-1.2-1-1.2-1.6c0-0.6,0.4-1.1,1.2-1.6l17.8-10
			c0.9-0.5,2-0.8,3.3-0.8c1.2,0,2.4,0.3,3.3,0.8l12.9,7.4c0.8,0.4,1.2,1,1.2,1.6s-0.4,1.1-1.2,1.6l-17.8,10
			C1115.3,352.9,1114.1,353.1,1112.9,353.1z"/>
		<path class="st1" d="M1117.8,331.6c1.1,0,2.2,0.3,3,0.7l12.9,7.4c0.6,0.3,0.9,0.8,0.9,1.1c0,0.4-0.3,0.8-0.9,1.1l-17.8,10
			c-0.8,0.4-1.9,0.7-3,0.7s-2.2-0.3-3-0.7l-12.9-7.4c-0.6-0.3-0.9-0.8-0.9-1.1s0.3-0.8,0.9-1.1l17.8-10
			C1115.5,331.8,1116.6,331.6,1117.8,331.6L1117.8,331.6z M1117.8,330.5c-1.3,0-2.6,0.3-3.5,0.9l-17.8,10c-2,1.1-2,3,0,4.1l12.9,7.4
			c1,0.6,2.3,0.8,3.5,0.8s2.6-0.3,3.5-0.8l17.8-10c2-1.1,2-3,0-4.1l-12.9-7.4C1120.3,330.8,1119.1,330.5,1117.8,330.5z"/>
		<path class="st29" d="M1126.8,348.3l-4.2,2.4c0,0-0.4-2.4,0-3.1c0.6-1,3.2-3,4.2-2.4C1127.5,345.6,1126.8,348.3,1126.8,348.3z"/>
		<path class="st25" d="M1125,347.2c0,0-9.5,17.1-11.8,18.1c-3.1,1.3-18.2-6.1-17.9-8.8c0.2-1.6,1.4-3.5,1.4-3.5l-0.1-1.1
			c0,0-2.3,3.3-2.3,4.9c0,2.6,14.1,11,18.7,9.6c3.6-1.1,12.5-18.9,12.5-18.9S1125.3,346.6,1125,347.2z"/>
	</g>
	<g>
		<path class="st38" d="M1121.6,304.9l-12.4-7.1v-3.5l12.4,7.1V304.9z"/>
		<path class="st39" d="M1121.6,304.9l8.9-5.1v-3.5l-8.9,5.1V304.9z"/>
		<g>
			<path class="st20" d="M1121.6,300.8l-12.4-7.1l8.9-5.1l12.4,7.1L1121.6,300.8z"/>
			<path class="st2" d="M1121.6,304.4l-12.4-7.1v-3.5l12.4,7.1V304.4z"/>
			<path class="st9" d="M1121.6,304.4l8.9-5.1v-3.5l-8.9,5.1V304.4z"/>
		</g>
	</g>
	<g>
		<path class="st38" d="M1108.9,317.6l-12.4-7.1V307l12.4,7.1V317.6z"/>
		<path class="st39" d="M1108.9,317.6l8.9-5.1v-3.5l-8.9,5.1V317.6z"/>
		<g>
			<path class="st12" d="M1108.9,313.5l-12.4-7.1l8.9-5.1l12.4,7.1L1108.9,313.5z"/>
			<path class="st10" d="M1108.9,317l-12.4-7.1v-3.5l12.4,7.1V317z"/>
			<path class="st9" d="M1108.9,317l8.9-5.1v-3.5l-8.9,5.1V317z"/>
		</g>
	</g>
	<g>
		<path class="st38" d="M1130.4,309.4l-10.7-10.7l1.2-2.2l10.7,10.7L1130.4,309.4z"/>
		<path class="st39" d="M1130.4,309.4l8.9-5.1v-0.6l-7.7,3.5L1130.4,309.4z"/>
		<g>
			<path class="st36" d="M1131.6,306.6l-10.7-10.7l8.9-5.1l10.7,10.7L1131.6,306.6z"/>
			<path class="st37" d="M1130.4,308.8l-10.7-10.7l1.2-2.2l10.7,10.7L1130.4,308.8z"/>
			<path class="st35" d="M1130.4,308.8l8.9-5.1l1.2-2.2l-8.9,5.1L1130.4,308.8z"/>
		</g>
	</g>
	<g>
		<path class="st40" d="M1112.3,249.2l-4.1,8.6c-1.3,0.7-6.6-3.4-6.7-4.5l-1-9.9c0-4.3,8.2-13,8.2-13c2.2-2.7,4-5.4,5.3-3.9l0.2,0.1
			c1.1,0.4,1.7,3.8,1.7,5.3l-1.2,13.5C1114.7,246.7,1113.6,248.4,1112.3,249.2L1112.3,249.2z"/>
		<path class="st40" d="M1116.2,231l-2.2,1.3c-3,1.7-5.4,0.7-5.4-2.2v-7.8l5.2-3L1116.2,231z"/>
		<path class="st36" d="M1119.3,232.8l-2.5,16.7c-3,1.7-5.1-14.7-5.1-17.6v-7.8l5.1-3L1119.3,232.8L1119.3,232.8z"/>
		<path class="st7" d="M1111.2,224.6l-3.1-1.8V221l3.1,1.8V224.6z"/>
		<path class="st33" d="M1117.5,221l-6.3,3.6v-1.8l6.3-3.6V221z"/>
		<path class="st34" d="M1102.8,230.2c-0.3,0.2-0.3,0-0.2-0.5c1.7-3.9,0.7-5.9,2.9-9.3c7.9-5.4,3.9,0.7,5,0.3
			c-3.5-0.6-6.2,10.3-6.2,10.3S1103,230.5,1102.8,230.2L1102.8,230.2z"/>
		<path class="st7" d="M1104.3,231C1104.3,231,1104.3,231,1104.3,231c-0.3,0.2-0.3,0-0.2-0.5c1.7-3.9,0.7-5.9,2.9-9.3
			c7.9-5.4,3.9,0.7,5,0.3c-3.5-0.6-4.3,3.8-6.5,8C1104.7,230.7,1104.5,230.9,1104.3,231L1104.3,231z"/>
		<path class="st41" d="M1113.5,218.4l-5.9,3.6c0,0-1.8-1.5-3.1-1.8c0.1-0.6,0.2-2.7,0.3-3.3l11.9-5.3
			C1114.4,214.2,1113.6,216.9,1113.5,218.4L1113.5,218.4z"/>
		<path class="st36" d="M1117.8,253l-8.4,4.8c-1.3,0.7-2.3,0.4-2.4-0.8l-1-9.9c0-4.3,5.9-15,5.9-15c2.2-2.7,6.7-2.9,6.7-2.9
			c2.2,1.1,2.9,5.1,2.9,6.5l-1.2,13.5C1120.2,250.5,1119.1,252.2,1117.8,253L1117.8,253z"/>
		<path class="st42" d="M1109.4,255.7c-0.2,0.1-0.3,0.1-0.3-0.1l-1-9.8c0.1-2.2,3.8-8.2,6.4-11.7c0.4-0.4,0.9-0.8,1.3-1
			c0.8-0.5,1.6-0.6,2.2-0.4l0.2,0.1c0.4,0.3,1,2.6,1,4.1l-1.2,13.5v0.1c0,0.2-0.1,0.4-0.3,0.5L1109.4,255.7L1109.4,255.7z"/>
		<path class="st6" d="M1117.8,251.4l-8.4,4.8c-0.4,0.2-0.8,0.1-0.8-0.3l-1-9.8v0c0.1-2.6,4.1-8.9,6.6-12.2l0.1-0.1
			c0.5-0.5,1-0.9,1.6-1.2c1-0.6,1.9-0.7,2.6-0.5l0.3,0.1c0.6,0.4,1.1,2.9,1.1,4.3l-1.2,13.5v0
			C1118.6,250.5,1118.2,251.1,1117.8,251.4L1117.8,251.4z M1109.6,255l7.9-4.6l1.1-13.4c0-1.4-0.6-3.4-0.9-3.7l-0.2-0.1
			c-0.8-0.3-1.9,0.2-2.9,1.1c-2.9,3.9-6,9.2-6.1,11.1L1109.6,255L1109.6,255z"/>
		<path class="st43" d="M1119.8,213.3l-11.9,6.9v-1.6l10.6-6.1L1119.8,213.3z"/>
		<path class="st42" d="M1116.6,220.2l-3.5,2c-2.3,0.3-4.2,0.1-5.5-0.3c0.1-0.6,0.1-1.1,0.2-1.7l12-6.9
			C1117.6,216,1116.7,218.7,1116.6,220.2L1116.6,220.2z"/>
		<path class="st44" d="M1118.5,212.5l-10.6,6.1l-3.1-1.8l10.6-6.1L1118.5,212.5z"/>
		<path class="st45" d="M1107.1,220.1c0-0.7-0.5-1.6-1.1-2c-0.3-0.2-0.7-0.2-0.9,0v0l-2.1,1.6l0.7,1.1l0.7,1l2.2-0.9
			c0.1,0,0.2-0.1,0.3-0.1l0,0v0C1107,220.6,1107.1,220.4,1107.1,220.1L1107.1,220.1z"/>
		<path class="st42" d="M1104.5,221.3c0,0.6-0.4,0.8-0.9,0.5s-0.9-1-0.9-1.6s0.4-0.8,0.9-0.5C1104.1,220,1104.5,220.7,1104.5,221.3z
			"/>
	</g>
	<g>
		<path class="st25" d="M1134.4,260.2v0.2h0C1134.4,260.4,1134.4,260.3,1134.4,260.2z"/>
		<path class="st2" d="M1134,242.1v18.1c0,0.1,0,0.1,0,0.2c-0.1,0.9-0.8,1.9-2,2.6c-2.7,1.5-7,1.5-9.7,0c-1.2-0.7-1.9-1.6-2-2.6h0
			v-18.3L1134,242.1L1134,242.1z"/>
		<path class="st20" d="M1134,241.7c-0.3-3.4-3.5-4.6-3.5-4.6l-0.8,1.2c-0.9-0.2-1.8-0.3-2.8-0.3V238l-3.3-0.8c0,0-2.9,2.5-3.3,4v0
			c-0.5,1.3,0.2,2.6,1.8,3.6c2.7,1.6,7,1.6,9.7,0c1.4-0.8,2.1-1.9,2-3C1134,241.8,1134,241.8,1134,241.7L1134,241.7z"/>
		<path class="st46" d="M1129.8,239.6c-0.8,1.3-3.5,1.1-5.4,0c-1.5-0.9-1.5-2.2,0-3.1c1.5-0.9,3.9-0.9,5.4,0
			S1130.7,238.2,1129.8,239.6z"/>
		<path class="st9" d="M1129.6,234.9v2.6c0,0.3-0.3,0.7-0.7,0.9c-1,0.6-2.6,0.6-3.5,0c-0.4-0.3-0.7-0.6-0.7-0.9h0v-2.6L1129.6,234.9
			L1129.6,234.9z"/>
		<path class="st12" d="M1128.8,235.9c-1,0.6-2.6,0.6-3.5,0c-1-0.6-1-1.5,0-2s2.6-0.6,3.5,0S1129.8,235.4,1128.8,235.9z"/>
	</g>
	<g>
		<path class="st2" d="M1095,237v32.3c0,0.1,0,0.1,0,0.2c-0.1,1-0.8,1.9-2.1,2.6c-2.8,1.6-7.2,1.6-10,0c-1.3-0.7-1.9-1.7-2-2.6h0
			V237L1095,237L1095,237z"/>
		<path class="st30" d="M1092.9,239.7c-2.8,1.6-7.2,1.6-10,0c-2.8-1.6-2.8-4.2,0-5.8c2.8-1.6,7.2-1.6,10,0
			S1095.7,238.1,1092.9,239.7z"/>
		<g>
			<path class="st27" d="M1095,229.3v9.6c0,0.1,0,0.1,0,0.2c-0.1,1-0.8,1.9-2.1,2.6c-2.8,1.6-7.2,1.6-10,0c-1.3-0.7-1.9-1.7-2-2.6h0
				v-9.8H1095L1095,229.3z"/>
			<path class="st29" d="M1092.9,232c-2.8,1.6-7.2,1.6-10,0c-2.8-1.6-2.8-4.2,0-5.8c2.8-1.6,7.2-1.6,10,0S1095.7,230.4,1092.9,232z"
				/>
		</g>
	</g>
	<g>
		<path class="st42" d="M1101.3,271.3l4.1,8.6c1.3,0.7,6.6-3.4,6.7-4.5l1-9.9c0-4.3-8.2-13-8.2-13c-2.2-2.7-4-5.4-5.3-3.9l-0.2,0.1
			c-1.1,0.4-1.7,3.8-1.7,5.3l1.2,13.5C1098.9,268.8,1100,270.5,1101.3,271.3L1101.3,271.3z"/>
		<path class="st41" d="M1097.4,253l2.2,1.3c3,1.7,5.4,0.7,5.4-2.2v-7.8l-5.1-3L1097.4,253L1097.4,253z"/>
		<path class="st34" d="M1094.3,254.9l2.5,16.7c3,1.7,5.1-14.7,5.1-17.6v-7.8l-5.1-3L1094.3,254.9L1094.3,254.9z"/>
		<path class="st47" d="M1102.4,246.7l3.1-1.8v-1.8l-3.1,1.8V246.7z"/>
		<path class="st10" d="M1096.1,243.1l6.3,3.6v-1.8l-6.3-3.6V243.1z"/>
		<path class="st48" d="M1110.8,252.3c0.3,0.2,0.3,0,0.2-0.5c-1.7-3.9-0.7-5.9-2.9-9.3c-7.9-5.4-3.9,0.7-5,0.3
			c3.5-0.6,6.2,10.3,6.2,10.3S1110.6,252.5,1110.8,252.3L1110.8,252.3z"/>
		<path class="st47" d="M1109.3,253.1L1109.3,253.1c0.3,0.2,0.3,0,0.2-0.5c-1.7-3.9-0.7-5.9-2.9-9.3c-7.9-5.4-3.9,0.7-5,0.3
			c3.5-0.6,4.3,3.8,6.5,8C1108.9,252.7,1109.2,253,1109.3,253.1L1109.3,253.1z"/>
		<path class="st9" d="M1100.2,240.4l5.9,3.6c0,0,1.8-1.5,3.1-1.8c-0.1-0.6-0.2-2.7-0.3-3.3l-11.9-5.3
			C1099.2,236.3,1100,239,1100.2,240.4L1100.2,240.4z"/>
		<path class="st34" d="M1095.9,275.1l8.4,4.8c1.3,0.7,2.3,0.4,2.4-0.8l1-9.9c0-4.3-5.9-15.1-5.9-15.1c-2.2-2.7-6.7-2.9-6.7-2.9
			c-2.2,1.1-2.9,5-2.9,6.5l1.2,13.5C1093.4,272.6,1094.5,274.3,1095.9,275.1z"/>
		<path class="st36" d="M1104.2,277.8c0.2,0.1,0.3,0,0.3-0.1l1-9.8c-0.1-2.2-3.8-8.2-6.4-11.7c-0.4-0.4-0.9-0.8-1.3-1
			c-0.8-0.5-1.6-0.6-2.2-0.4l-0.2,0.1c-0.4,0.3-1,2.6-1,4.1l1.2,13.5v0.1c0,0.2,0.1,0.4,0.3,0.5L1104.2,277.8L1104.2,277.8z"/>
		<path class="st49" d="M1095.9,273.5l8.4,4.8c0.4,0.2,0.8,0.1,0.8-0.3l1-9.8v0c-0.1-2.6-4.1-8.9-6.6-12.2l-0.1-0.1
			c-0.5-0.5-1-0.9-1.6-1.2c-1-0.6-1.9-0.7-2.6-0.5l-0.3,0.1c-0.6,0.4-1.1,2.9-1.1,4.3l1.2,13.5v0
			C1095,272.6,1095.4,273.2,1095.9,273.5z M1104,277.1l-7.9-4.6l-1.1-13.4c0-1.4,0.6-3.4,0.9-3.7l0.2-0.1c0.8-0.3,2,0.1,2.9,1.1
			c3,3.5,6.5,7.4,6.1,11.1L1104,277.1z"/>
		<path class="st20" d="M1093.8,235.4l11.9,6.9v-1.6l-10.6-6.1L1093.8,235.4z"/>
		<path class="st2" d="M1097,242.2l3.5,2c2.3,0.3,4.2,0.1,5.5-0.3c-0.1-0.6-0.1-1.1-0.2-1.7l-12-6.9
			C1096.1,238.1,1096.9,240.8,1097,242.2L1097,242.2z"/>
		<path class="st46" d="M1095.2,234.6l10.6,6.1l3.1-1.8l-10.6-6.1L1095.2,234.6z"/>
		<path class="st46" d="M0,0"/>
		<path class="st50" d="M1109.1,243.4c0,0.6,0.4,0.8,0.9,0.5c0.5-0.3,0.9-1,0.9-1.6c0-0.6-0.4-0.8-0.9-0.5
			C1109.5,242.1,1109.1,242.8,1109.1,243.4z"/>
	</g>
</g>
<path class="st9" d="M966.2,238.1c0,0,13.1-21.7,19.1-23.7s9.5,4.9,9.5,4.9s-12.9-2.4-18.4,18.6C974,246.9,966.2,238.1,966.2,238.1
	L966.2,238.1z"/>
</svg>
