<svg version="1.1" id="Layer_1" xmlns="http://www.w3.org/2000/svg" x="0" y="0" viewBox="0 0 1280 720" xml:space="preserve"><style>.st0{fill:#ffccb3}.st1{fill:#ffae30}.st2{fill:#0aa1c4}.st3{fill:#fcdeb3}.st4{fill:#9dbdc4}.st5{fill:#0295ad}.st6{fill:#6cb3c4}.st7{fill:#3baac4}.st8{fill:#ff5d0d}.st9{fill:#ffb28d}.st10{fill:#4c262a}.st11{fill:#ff884d}.st12{fill:#ff5a2e}.st13{fill:#ff8c6e}.st16{fill:#ff3c08}.st19{fill:#ffbe59}.st21{fill:#2f444a}.st22{fill:#4c727e}.st23{fill:#add4e1}.st24{fill:#0d252d}.st25{fill:#5ca9c2}.st26{fill:#ff7d3d}.st27{fill:#f46e34}.st28{fill:#ff9e6e}.st29{fill:#1a4a5a}.st30{fill:#3394b3}.st31{fill:#73b5cb}.st32{fill:#85bfd1}.st33{fill:#79c7d3}.st34{fill:#2fb299}.st35{fill:#45ccb8}.st36{fill:#37bfa8}.st37{fill:#653338}.st38{fill:#190d0e}.st39{fill:#3decff}.st40{fill:#aadce6}.st41{fill:#95d3e0}.st45{fill:#ffce83}.st46{fill:#ff9764}.st50{fill:#07a2b2}.st53{fill:#48baaf}.st55{fill:#f0caa9}.st57{fill:#e5ac7f}.st59{fill:#266f86}.st60{fill:#fdefd9}</style><path class="st0" d="M946.99 202.41s-15.06-5.01-11.57 22.96c2.28 18.24 7.88 30.58 7.88 30.58s-9.21 2.6-14.17 17.4c-2.4 7.16-8.02 11.23-8.02 11.23l3.2 9.25s24.26-18.02 26.21-29.89 7.81-58.51-3.53-61.53z"/><path class="st1" d="M927.43 274.8s3.07-1.4 7.05 1.92.9 8.58.9 8.58l-11.22 9.48s-10.78 5.31-12.24 4.86c-1.47-.45-6.16-8.92-6.16-8.92s4.83-9.93 6.93-11.14c2.1-1.21 9.22-1.39 9.22-1.39l.47 4.45 5.05-7.84z"/><path class="st2" d="M932.8 241.02s-2.55-32.79 3.52-36.29 12.57-6.69 12.57-6.69l-.48 53.27-15.61-10.29z"/><path class="st3" d="M993.51 385.45s7.28 5.89 9.71 11.44c2.43 5.55 12.83 45.53 10.05 51.89-2.77 6.36-12.83 20.58-12.83 24.74s-1.2 4.51 7.72 2.77c8.92-1.73 9.27-2.08 10.66-5.89 1.39-3.81 6.24-16.14 6.24-16.14l.69-10.65s-2.43-3.38-2.43-6.5 1.39-30.86-.69-37.45c-2.08-6.59-11.44-17.34-11.44-17.34s-1.04-72.27-4.85-77.74c-3.81-5.47-11.77-18-11.77-18l-19.19 5.31s-7.25 20.05-3.62 30.1c3.62 10.06 18.63 60.33 21.75 63.46z"/><path class="st4" d="M956.51 429.41s-3.16 2.12-.77 4.51c2.43 2.43 13.96-.68 19.24-2.68 5.28-2 4.07-7.02 4.07-7.02s1.65 4.74 1.65 7.8c0 3.06-.21 4.67-2.34 5.89-2.13 1.23-9.98-.87-12.01 0-2.03.87-9.83 6.48-15.55 5.63-5.72-.86-12.48-4.65-12.48-4.65s-3.46-2.58 11.92-8.58c3.3-1.28 6.27-.9 6.27-.9z"/><path class="st3" d="M958.49 274.49s-8.67 2.58-10.4 18.45c-1.73 15.87 4.85 42.22 10.4 52.97 5.55 10.75 2.43 14.79 4.85 17.22 2.43 2.43 2.43 2.2 2.43 14.34v45.08l-13.17 6.09s-2.83-1.78-5.55.94c-2.72 2.72-6.59 3.07-6.59 6.34s10.75 2.57 12.66 2.57c1.91 0 7.11-4.76 15.08-4.76s10.19 2.38 11.51-1.81c1.32-4.19-2.01-8 0-15.97 2.01-7.97 10.68-29.82 7.91-36.41-2.77-6.59-5.66-16.93-5.66-23.03 0-6.1 2.04-17.19.56-27.59-1.5-10.39-5.66-57.55-24.03-54.43z"/><path class="st5" d="M992.38 353.79c-5.12-19.91-8.42-24.16-8.53-38.55-.12-14.4-16.09-44.55-28.81-34.86l-2.19-1.26s-8.65 12.75-6.46 28.07c2.19 15.32 10.98 46.36 13.13 54.17 1.81 6.6 4.7 16.45 5.82 25.4l-1.15 34.89s.8 3.58 7.81 3.13c7.02-.45 13.74-3.92 13.74-3.92s11.76-47.16 6.64-67.07z"/><path class="st6" d="M956.51 426.83s-3.16 2.12-.77 4.51c2.43 2.43 13.96-.68 19.24-2.68 5.28-2 4.07-7.03 4.07-7.03s1.65 4.74 1.65 7.81-.21 4.66-2.34 5.89c-2.13 1.23-9.98-.87-12.01 0-2.03.87-9.83 6.49-15.55 5.63-5.72-.86-12.48-4.64-12.48-4.64s8.38-8.58 11.92-8.58 6.27-.91 6.27-.91z"/><path class="st4" d="M1004.6 464.25s-.54 1.74 4.2 3.32c4.74 1.59 9.94-3.35 12.28-7.25s4.22-16.69 4.22-16.69.58.83 1.3 3.17c.72 2.34 0 6 0 6s-.53 15.37-5.22 21.61c-4.68 6.24-19.29 6.98-19.29 6.98s-4.16-2.34-2.08-8.06c2.09-5.72 4.59-9.08 4.59-9.08z"/><path class="st6" d="M1007.95 458.38s-4.75 5.34 0 6.93c4.74 1.59 9.94-3.36 12.28-7.26s4.22-16.69 4.22-16.69.58.83 1.3 3.17c.72 2.34 0 6 0 6s-.54 15.37-5.22 21.61-19.29 6.98-19.29 6.98-4.16-2.34-2.08-8.06c2.09-5.73 8.79-12.68 8.79-12.68z"/><path class="st2" d="M1023.76 401.47v-.01c.1-8.08-9.2-16.58-9.2-16.58s0-65.23-5.12-81.92c-5.12-16.69-25.99-26.22-39.36-18.5-13.37 7.72 18.03 97.47 18.03 97.47s20.94 36.85 22.5 46.21c1.56 9.36 1.56 15.34 1.56 15.34s-1.73 4.74 6.5 2.56c8.24-2.19 12.77-9.4 12.77-9.4s-5.35-22.39-7.68-35.17z"/><path class="st7" d="M937.99 218.89s-4.43-17 10.9-20.86c15.32-3.87 41.55 16.57 49.5 24.52 7.95 7.94 1.74 23.3-1.82 39.17-3.56 15.86 1.65 7.39 6.63 22.69s6.26 18.55 6.26 18.55-9.35 13.38-23.36 13.38-40.79-9.76-40.79-9.76.53-19.98 1.21-35.13c.93-20.79-8.53-52.56-8.53-52.56z"/><path class="st8" d="M948.98 222.15l25.87 14.94s1.64 19.18 6.63 27.82 18.38 12.23 18.38 12.23l4.35 72.31s-15.4 8.3-37.44 0c-15.99-6.02-19.29-15.99-19.29-15.99l-5.82-83.18s1.71 0 5.2-6.47c1.82-3.36 2.12-21.66 2.12-21.66z"/><path class="st8" d="M946.86 243.8s-5.84-27.22-3.69-34.59c2.15-7.37 7.55-11.71 7.55-11.71l4.47 2.58s-7.87 4.59-6.63 13.66c1.24 9.07 3.5 23.3 3.5 23.3l-5.2 6.76z"/><path class="st9" d="M956.13 207.72s.49 2.76 0 6.12c-.5 3.35.08 5.24.66 6.82 2.16 5.92 16.75-7.16 22.64-10.82 3.29-2.04-6.61-3.01-5.72-9.07.89-6.06-2.05-10.61-2.05-10.61l-15.53 17.56z"/><path class="st0" d="M962.07 159.29c-.8.12-14.44 3.36-18.13 11.55-3.69 8.19-.48 12.73-.57 15.07-.09 2.34-1.57 1.76-1.71 5.4-.14 3.64 2.33 5.84 2.25 7.78-.07 1.94 2.73 3.48 2.59 7.18-.14 3.7 4.2 3.9 8.46 3.31 6.05-.83 22.23-12.48 24.99-21 2.88-8.86 5.93-32.82-17.88-29.29z"/><path class="st10" d="M948.4 164.47s3.69 17.09 8.05 21.79c4.37 4.71 17.38 11.13 17.38 11.13s-1.43 5.38-.44 6.75c1.96 2.74 12.69 8.13 12.69 8.13s.2-9.74-2.16-12.28c-2.36-2.55-5.08-6.67-5.08-6.67s17.16-22.02-1.22-34.39c-20.42-13.73-29.22 5.54-29.22 5.54z"/><path class="st11" d="M968.14 189.7c.07-.09 2.54-2.73 3.64-1.29s1.44 3.62.14 6.02c-1.3 2.4-3.64 5.11-5.36 4.52-1.73-.59-2.34-.53-2.84-2.18-.5-1.65.56-3.02.56-3.02l3.86-4.05z"/><path class="st0" d="M967.36 189.71c.07-.09 2.54-2.73 3.64-1.29 1.11 1.44 1.44 3.62.14 6.02-1.3 2.4-3.64 5.11-5.36 4.52-1.73-.59-2.33-.53-2.84-2.18-.5-1.65.56-3.03.56-3.03l3.86-4.04z"/><path class="st11" d="M968.47 190.93s.04 1.7.03 2.43c-.02.73-.17 1.89-.7 2.31-.53.41-.98.65-.98.65s.96-2.65 1.07-3.74c.11-1.08.32-2.01 1.01-2.61.69-.6 1.36-1.44 1.77-.34.4 1.1.65 2.26-.05 3.82-.69 1.55-1.77 3.09-2.75 3.58-.98.49-2.08.52-2.08.52s2.25-.19 3.24-1.9c.99-1.71 2.09-4.49 1.7-5.16-.4-.67-.44-.8-.73-.13-.28.67-.24 1.83-.62 1.33s-.12-1.48-.55-1.19c-.44.3-.36.43-.36.43z"/><path class="st11" d="M967.06 193.86s.25-1.58-.08-1.64c-.33-.06-.4-.07-.76.36-.37.44-.47.62-.89.32-.43-.3-.62-.81-.44 0 .18.82.54.13 1.07.83.53.69.08 1.26.53 1.46.45.2.52-.92.47-1.26l.1-.07z"/><path class="st10" d="M942.61 179.65s-3.61-6.13-1.5-11.38c2.12-5.25 7.42-4.9 7.42-4.9s3.54 1.76 1.24 5.06c-2.3 3.31-7.19 7.19-7.16 11.22z"/><path class="st12" d="M943.68 263.37s1.73 11.35 4.88 14.5c3.15 3.15 7.16-3.31 9.29-5.43 2.13-2.13 4.13-6.85.78-10.37-3.34-3.52-14.95 1.3-14.95 1.3z"/><path class="st0" d="M993.67 226.45s-7.39-1.51-11.79 8.31c-4.39 9.82-2.29 20.56-2.83 24.84-.81 6.47-2.7 15.96-2.7 15.96s-8.97-4.91-17.02-8.69c-6.5-3.05-17.68-19.27-17.68-19.27l-5.34 7.94s16.89 20.88 27.27 27.95c6 4.09 12.73 9.68 14.62 8.17 1.89-1.51 16.98-25.98 18.56-33.48 1.59-7.5 10.44-29.47-3.09-31.73z"/><g><path class="st13" d="M893.88 467.75c-2.02-.67-4.04-.67-5.38-2.02.67 1.35 2.02 2.69 3.36 3.36-2.02 0-3.36-1.34-4.71-2.02-.67 0-1.35 0-.67.67 1.34.67 2.02 2.02 3.36 2.69-2.02 0-3.36-2.02-5.38-2.02 1.34.67 1.34 2.69 2.69 3.36-1.35-.67-2.69-2.69-4.71-2.69.67.67.67 2.02.67 3.37-1.34-1.35-.67-3.37-2.02-4.04 0 1.34-.67 2.69-2.02 4.04-.67-1.35.67-2.69.67-4.04-1.35 1.34-2.69 2.02-4.04 3.36 0-1.34.67-2.69 2.02-4.04-2.02 0-2.69 2.69-4.71 2.69 0-1.35 2.02-2.02 2.02-3.36-1.35.67-2.69 2.02-4.71 2.02l2.69-2.69c-2.02 0-3.36 2.02-5.38 2.02.67-1.35 3.36-1.35 3.36-3.37-2.02 0-3.36 1.34-4.71 2.02.67-1.35 2.02-2.02 2.69-3.36-1.34 2.02-4.04 1.34-5.38 2.69.67-2.02 2.69-2.02 3.36-3.36-2.02 0-3.36 1.34-4.71 2.02-.67 0-.67 0-.67-.67.67-1.34 2.69-.67 3.37-2.69-2.02 0-3.37 2.02-5.38 2.02.67-1.35 2.69-1.35 3.37-3.36-2.02.67-3.37 1.34-5.38 2.02.67 0 1.34-.67 1.34-.67.67-.67.67-1.34 2.02-2.02-2.02.68-3.36 1.35-5.38 2.02.67-2.02 2.69-2.02 3.36-3.36-2.02 0-3.36 1.34-4.71 2.02-.67 0-.67 0-.67-.68.67-1.34 2.69-.67 3.36-2.69-2.02 0-3.36 1.35-4.71 2.02-.67 0-.67 0-.67-.67.67-1.35 2.69-.67 3.36-2.69-2.02.67-3.36 1.34-5.38 2.02.67-1.34 2.69-1.34 3.36-2.69-2.02-.67-3.36 1.35-5.38 1.35 2.02 0 2.02-2.69 4.04-2.69-2.02.67-4.04.67-6.06 2.02 1.35-1.35 2.69-2.02 4.04-3.37-2.02 0-4.04 2.02-6.06 2.02 1.35-1.35 2.69-2.02 4.04-3.36-2.02 0-4.04 2.02-6.05 2.02 1.34-1.34 2.69-2.02 4.04-3.36-2.02 0-4.04 2.02-6.05 2.02 2.02-.67 2.69-2.02 4.03-3.36-2.02 1.35-4.71.67-6.05 2.69 1.34-1.34 2.02-2.69 4.04-3.36-2.02 0-4.04 2.02-6.05 2.02 1.34-1.35 2.69-2.02 4.04-2.69.67-.67 0-.67-.68-.67-2.02.67-3.36 1.35-5.38 2.02 1.35-1.35 2.69-2.02 4.04-2.69.67-.67 0-.67-.67-.67-1.34 1.34-2.69 2.02-4.71 2.02.68-1.35 2.69-2.02 3.37-3.36-1.35 1.35-4.04 1.35-5.38 2.69.67-1.34 2.02-2.69 3.36-3.36-2.02 0-3.36 1.34-5.38 2.02.67-2.02 3.36-1.35 4.03-3.37-2.02.67-4.03.67-5.38 2.02-.67.67-1.34 0-.67-.67 1.35-.67 2.69-1.35 4.04-2.69-2.02.67-4.04 1.34-6.06 2.02 1.35-1.35 2.69-2.69 4.71-2.69-2.69 0-4.71.67-6.73 1.34 2.02-.67 3.36-1.34 4.71-2.69-2.02.67-3.36 0-5.38 1.34-.67 0-.67-.67-.67-.67 2.02 0 3.36-1.34 5.38-2.02-2.02-.67-4.71.67-6.73.67 2.02-1.35 4.71-1.35 6.73-1.35-2.02-.67-4.71-.67-6.73-1.34 2.02-.67 4.71.67 6.73.67-1.35-2.02-3.36-1.35-4.71-2.69 2.02-.67 4.03 1.34 6.05 1.34-1.35-1.34-2.69-2.02-4.04-2.69 2.02 0 4.04 2.02 6.05 1.35-2.02 0-2.02-2.69-4.04-2.69 2.69-.67 3.36 2.02 6.05 2.02-1.34-1.34-2.69-2.02-4.04-3.36 2.02 0 4.04 2.02 6.05 2.02-1.35-1.35-2.69-2.02-4.04-3.37 2.02 0 4.04 2.02 6.06 2.02-2.02-.67-2.02-2.02-3.37-3.36 1.35 1.34 2.69 2.02 4.71 2.69 0-1.35-1.34-2.02-2.02-3.36 1.34 1.34 2.69 2.02 4.03 3.36v-4.04c1.35 1.35.68 2.69 1.35 4.04 1.34-1.35 1.34-2.69 2.69-4.04 0 1.35-1.34 2.69-.67 4.04 1.34-1.35 2.69-2.02 4.04-3.36-1.34 1.34-2.02 2.69-2.02 4.04 1.34-1.34 2.69-2.69 4.71-2.69 0 2.02-3.36 2.02-2.69 3.37.67.67 2.02-.67 3.36-2.02.67-.67 1.35-.67 2.02-.67-1.35.67-2.02 2.69-3.37 3.37 2.02 0 3.37-2.02 5.38-2.02l-2.69 2.69c2.02 0 3.36-1.34 4.71-2.02 0 2.02-3.36 2.02-2.69 2.69 1.35 1.35 3.36-1.34 5.38-1.34-.67 1.34-3.37 1.34-3.37 3.36 2.02 0 3.37-1.34 4.71-2.02l-2.69 2.69c2.02-.67 3.36-1.34 5.38-2.02 0 2.02-3.36 1.34-3.36 3.36 2.02 0 3.36-1.34 4.71-2.02.67 0 .67 0 .67.67-.67.67-2.02.67-2.69 1.34-.67 0-.67 1.35-.67 1.35 2.02.67 3.36-2.02 5.38-2.02-.67 1.35-2.69 1.35-3.36 2.69 2.02.67 3.36-.67 4.71-1.35-1.35.67-1.35 2.69-3.36 2.69 2.02-.67 4.03-.67 6.06-1.34-2.02 0-2.02 2.69-4.04 2.69 2.02-.67 4.04-.67 6.06-2.02-1.35 1.35-2.69 2.02-4.04 3.36 2.02 0 4.04-2.02 6.06-2.02-.67 2.02-3.37 1.34-4.04 3.36 2.02 0 3.36-2.02 5.38-2.02 0 .67-.67.67-.67 1.35-.67.67-2.02.67-2.69 1.34 2.02.67 3.36-1.34 5.38-1.34-.67 0-1.34.67-1.34.67-.67.67-.67 1.35-2.02 2.02 2.02-.67 3.36-1.34 5.38-2.02 0 2.02-3.36 1.35-3.36 3.36 2.02 0 3.36-1.35 4.71-2.02.67 0 1.34 0 .67.67-1.35.67-2.69 1.35-4.04 2.69 2.02-.67 3.37-1.35 5.38-2.02-.67 2.02-2.69 2.02-3.36 3.37 2.02 0 3.36-2.69 6.05-2.02-2.02 0-2.02 2.69-4.04 2.69 2.02 0 4.04-1.34 6.05-2.02-1.34 1.35-2.69 2.02-4.04 3.36 2.02-.67 4.04-1.35 6.05-2.02-1.34 1.34-3.36 1.34-4.04 3.36 1.35-1.34 3.37-1.34 5.38-2.02-1.35 1.34-2.69 2.02-4.04 3.36 2.02-.67 4.04-2.02 6.06-2.02-1.35.67-2.69 2.02-4.04 2.69 2.02 0 4.04-2.02 6.05-1.34-2.02 0-2.69 2.69-4.71 2.69 2.02-.67 4.71-.67 6.73-2.02-1.34 2.02-3.36 1.35-4.71 3.36 2.02-.67 4.04-1.34 6.05-1.34-1.34.67-3.36 1.34-4.71 2.02-.67.67 0 .67.67.67 2.02-1.35 3.36-.67 5.38-1.35-1.35 1.35-3.37 1.35-5.38 2.02h6.73c-2.02 0-4.04 1.35-6.05.68 2.02 1.34 4.04.67 6.05 1.34h-6.73c2.02.67 3.36 1.35 5.38 2.02-2.02 0-4.04-1.35-6.05-.67 1.34 1.34 3.36.67 4.04 2.69-1.35-1.35-3.36-1.35-5.38-2.02 0 2.02 3.37 1.34 3.37 3.36-2.02-.68-3.37-2.02-5.38-2.02.67 0 1.34.67 1.34.67.72.66.72 1.33 2.06 2.01z"/><path d="M828.57 428.86c1.94 0 3.88.65 5.17 1.29-1.29-.64-1.29-2.58-3.23-2.58 1.94 0 3.88 1.94 5.82 1.94-.65-1.29-2.59-1.29-3.23-2.59-.65-.65 0-.65.64-.65 1.29 1.29 3.23 1.29 3.88 2.59 0-1.29-1.94-2.59-1.94-3.88 1.29 1.29 2.59 1.94 3.88 3.23 0-1.29 0-1.94-.65-3.23l.65-.65c.65 1.29 0 3.23 1.29 3.23 1.29.65 1.29-1.94 2.58-3.23 0 1.29-1.29 2.59-.65 3.88.65-1.29 2.59-1.94 3.88-3.23-1.29 1.29-1.94 2.59-1.94 3.88 1.29-1.29 2.59-2.59 4.52-2.59-.65 1.29-2.59 1.29-2.59 3.23 1.94 0 3.23-1.29 4.52-1.94-1.29.65-1.29 2.58-2.58 2.58 1.94 0 3.23-1.94 5.17-1.94l-3.23 3.23c1.94 0 3.23-1.94 5.17-1.94-1.29.64-1.29 2.58-3.23 2.58 1.94-.65 3.88-.65 5.82-1.94-1.29 1.29-2.58 1.94-3.88 3.23 1.94 0 3.88-1.94 5.82-1.94-1.29 1.29-2.59 1.94-3.88 3.23 1.94 0 3.88-1.94 5.82-1.94-1.94.65-2.59 1.94-3.88 3.23 1.29-1.29 3.88-.65 5.17-1.94-1.29.65-1.29 2.59-3.23 2.59 1.94-.65 3.88-.65 5.82-1.94-1.29 1.29-2.58 1.94-3.88 3.23 1.94 0 3.88-1.94 5.82-1.94-1.29 1.29-2.58 1.94-3.88 3.23 1.94 0 3.88-1.94 5.82-1.94-1.29 1.29-2.59 1.94-3.88 3.23 1.94-.65 3.88-1.94 5.82-1.94-1.94 0-1.94 2.59-3.88 2.59 1.94 0 3.23-1.29 5.17-1.29-1.29.65-1.94 1.94-3.23 2.59 1.94-.65 3.23-1.29 5.17-1.94-.65 1.94-2.58 1.94-3.23 3.23 1.94 0 3.23-1.29 4.52-1.94.65 0 .65 0 .65.65-.65 1.29-2.59.65-3.23 2.59 1.94 0 3.23-1.29 4.52-1.94.65 0 .65 0 .65.65-.65 1.29-2.59.65-3.23 2.58 1.94-.65 3.23-1.29 5.17-1.94-1.29.65-1.94 1.94-3.23 2.59 1.94-.65 3.23-1.29 5.17-1.94-1.29 1.29-1.94 2.59-3.88 3.23 1.94 0 3.23-1.29 5.17-1.94.65 0 1.29 0 .65.65-1.29.65-2.59 1.29-3.88 2.59 1.94-.65 3.23-1.29 5.17-1.94.65 0 1.29 0 .65.65-1.29.65-2.59 1.29-3.88 2.59 1.94 0 3.88-1.94 5.82-1.94-1.94.65-2.59 1.94-3.88 3.23 1.94-1.29 3.88-1.29 5.82-2.59-1.29 1.29-1.94 2.59-3.88 3.23 1.94 0 3.88-1.94 5.82-1.94-1.29 1.29-2.59 1.94-3.88 2.58-.65.65 0 .65.65.65 1.94-.65 3.23-1.29 5.17-1.94-1.29 1.94-3.23 1.94-4.53 3.23 1.94-.65 3.88-1.29 5.82-1.94-.65 1.29-2.59 1.94-3.88 2.59 1.94 0 3.88-.65 5.82-1.29-1.29.65-2.58 1.94-4.52 2.59 2.59 0 4.52-.65 6.46-1.29-1.94 1.29-3.88 1.29-5.82 2.59 1.94.65 4.52-.65 6.46-.65-1.94 1.29-3.88.65-5.82 1.29 1.94 1.29 3.88 0 5.82 1.29-1.94.65-4.52-.65-6.46-.65 1.29 1.29 3.23 1.29 4.52 2.59-1.94-.65-3.88-1.29-5.82-1.29 1.94 0 1.94 2.59 3.88 2.59-1.94.65-3.23-1.94-5.17-1.29 1.29.65 1.94 1.94 3.23 2.59-1.94-.65-3.88-.65-5.17-1.94 0 1.94 3.23 1.29 3.23 3.23-1.94 0-3.23-1.29-4.52-1.94-.65 0-.65 0-.65.65.65 1.29 1.94 1.29 3.23 1.94-1.94.65-3.23-1.29-5.17-1.29 1.29.65 1.29 2.59 3.23 2.59-1.94 0-3.23-1.29-4.52-1.94-.65 0-.65 0-.65.65 1.29.65 1.94 1.29 1.94 2.58-1.29-.64-1.94-2.58-3.23-2.58-.65-.65-.65 1.29 0 2.58l-.65.65c-.65-1.29-.65-2.59-1.29-3.88 0 1.94-2.58 1.94-1.94 3.88 0-1.29 0-1.94.65-3.23l-.65-.65c-.65 1.29-2.59 1.29-3.23 3.23 0-1.29 1.29-2.58 1.29-3.88-1.29 1.29-2.59 1.94-3.88 2.59 0-1.29 2.58-1.94 1.94-3.23-1.29-.65-2.58 1.94-3.88 2.59-.65.65-.65 0-.65-.65.65-1.29 2.59-1.29 2.59-2.59-1.94 0-3.23 1.29-4.52 1.94 0-1.94 2.59-1.94 2.59-3.23-1.94.65-3.23 1.29-5.17 1.94 1.94 0 1.29-2.59 3.23-2.59-1.94 0-3.23 1.29-4.52 1.94-.65 0-.65 0-.65-.65.65-1.29 2.58-1.29 3.23-2.59-1.94 0-3.23 1.94-5.17 1.94l3.23-3.23c-1.94 1.29-3.88.65-5.17 2.59.65-1.94 1.29-2.59 3.23-3.23-1.94 0-3.23 1.29-5.17 1.94 0-1.94 2.59-1.94 3.23-3.23-1.94 0-3.23 1.29-4.52 1.94-.65 0-.65 0-.65-.65.65-1.29 3.23-.65 3.23-2.59-1.94 0-3.23 1.94-5.17 1.94.65-1.29 2.59-1.94 3.23-3.23-1.94.65-3.23 1.29-5.17 1.94.65 0 1.29-.65 1.29-.65.65-.65.65-1.29 1.94-1.94-1.94.65-3.23 1.29-5.17 1.94.65-1.94 2.59-1.94 3.23-3.23-1.94 0-3.23 1.29-4.52 1.94-.65 0-.65 0-.65-.65.65-.65 1.94-.65 2.58-1.29.65 0 .65-1.29.65-1.29-1.94-.65-3.23 1.94-5.17 1.94 1.29-1.29 2.59-1.94 3.88-3.23-1.29 1.29-3.88.65-5.17 1.94 1.29-.65 1.29-2.59 3.23-2.59-1.94.65-3.88.65-5.82 1.94 1.29-1.29 2.59-1.94 3.88-3.23-1.94 0-3.88 1.94-5.82 1.94 1.29-1.29 2.58-1.94 3.88-2.59.65-.65 0-.65-.65-.65-1.29 1.29-3.23.65-4.52 1.94 0-1.94 2.58-1.29 3.23-2.59.65-.65 0-.65-.65-.65-1.29 1.29-2.58 1.94-4.52 1.94.65 0 1.29-.65 1.29-.65.65-.65.65-1.29 1.94-1.94-1.94 0-3.88.65-5.17 1.94.65-1.29 2.59-1.94 3.88-3.23-1.94.65-3.88.65-5.17 1.94-.64.65-1.29 0-.64-.65 1.29-.65 2.58-1.29 3.88-2.58-1.94.65-3.88 1.29-5.82 1.94 1.29-1.29 2.58-1.94 3.88-2.59.65-.65 0-.65-.65-.65-1.29 1.29-3.23 1.94-5.17 1.94 1.94 0 2.59-3.23 4.52-2.59-1.94-.65-3.88 1.94-5.82 1.29 1.94 0 1.94-2.59 3.88-2.59-1.94-.65-3.88 1.29-5.82 1.29 1.29-1.29 3.23-1.29 4.53-2.59-1.94.65-3.88 1.29-6.46 1.29 1.94-.65 3.23-1.94 5.17-2.59-1.94.65-3.88 1.29-6.46 1.29 1.94-.65 3.23-1.29 5.17-1.94h-6.46c2.59 0 4.52-.65 6.46-1.29-1.94.65-4.52-.65-6.46-.65h6.46c-1.29-1.29-3.23-1.29-5.17-1.94 1.94 0 4.52 1.29 6.46.65-1.94 0-3.23-1.29-4.52-2.59 1.94 1.29 3.88 1.29 5.82 1.94-1.29-1.29-2.59-1.94-3.88-3.23 1.94.64 3.88 1.29 5.82 1.94-1.29-.61-1.94-2.55-3.88-2.55z" fill="#ffbfae"/></g><path fill="#ff7133" d="M877.02 465.34l-47.3-27.31 15.68-9.05 47.3 27.31z"/><g><path class="st16" d="M856.5 435.43l25.19 14.54-15.76 9.1-25.19-14.54.75-1.01c2.07-2.82 4.51-5.09 7.01-6.54l.07-.04c2.2-1.27 4.37-1.85 6.28-1.67l1.65.16z"/><path class="st13" d="M866.57 441.25l5.6 3.23-15.77 9.1-5.6-3.23.75-1.01c2.07-2.81 4.51-5.09 7.01-6.54l.07-.04c2.21-1.27 4.37-1.85 6.27-1.67l1.67.16z"/><path class="st16" d="M866.57 441.25l-10.69 6.18-5.07 2.93.75-1.01c2.07-2.81 4.51-5.09 7.01-6.54l.07-.04c2.21-1.27 4.37-1.85 6.27-1.67l1.66.15z"/><path d="M861.2 448.44l-2.85-1.65c-.35-.2-.57-.57-.57-.98v-1.06c0-.86.94-1.41 1.69-.97l3.32 1.92c.54.31.72 1.01.41 1.54l-.47.79c-.31.54-1 .72-1.53.41z" fill="#ff716e"/><path class="st16" d="M872.17 444.48l-15.77 9.1.74-1.01c2.07-2.82 4.51-5.09 7.01-6.54l.08-.04c2.2-1.27 4.37-1.85 6.27-1.67l1.67.16z"/><path class="st12" d="M881.69 449.97l-15.76 9.1.74-1.01c2.07-2.82 4.51-5.09 7.01-6.54l.07-.04c3.94-2.5 4.86-2.2 6.28-1.67l1.66.16z"/></g><g><path class="st4" d="M928.81 238.99l-69.84 205.12c-.12.24-.08.56.15.89.45.68 1.48 1.18 2.29 1.13.41-.03.68-.19.8-.43l69.84-205.12-3.24-1.59z"/><path d="M932.1 240.61c-.91 1.1-3.68-.26-3.35-1.65.9-1.1 3.68.26 3.35 1.65z" fill="#f1f2f2"/></g><path class="st1" d="M937.46 239.79l-9.46-4.42s-3.51-2.31-4.77.52c-1.26 2.83 1.05 4.4 1.05 4.4s-2.18-.03-2.57 2.57c-.36 2.41 1.91 3.36 1.91 3.36s-2.48-.8-2.48 1.61c0 1.15 1.26 2.83 1.26 2.83s-1.51.4 0 2.51 3.98 3.56 6.39 3.24c2.41-.31 3.86.53 3.86.53l15.93 20.94s-2.7-7 1.99-11.69c4.21-4.2 8.08-4.11 8.08-4.11l-21.19-22.29z"/><path class="st19" d="M910.17 291.06l-2.98-1.15s-4.14.99-3.41 2.51c.73 1.53 3.06 4.2 3.17 5.19.11 1 6.42 2.25 6.42 2.25s2.08-.4.34-2.37c-1.74-1.97-3.66-1.95-3.66-1.95l-.66-2.15.78-2.33z"/><path class="st19" d="M910.4 287.01l-3.54-1.37s-4.92 1.18-4.05 2.99c.87 1.81 3.63 4.98 3.76 6.17.13 1.18 7.63 2.67 7.63 2.67s2.47-.47.4-2.81c-2.06-2.34-4.35-2.32-4.35-2.32l-.78-2.55.93-2.78z"/><path class="st19" d="M912.87 283.22l-3.12-2.16s-5.06-.01-4.64 1.96c.42 1.97 2.36 5.7 2.21 6.88-.15 1.18 6.79 4.38 6.79 4.38s2.51.12 1.05-2.64c-1.46-2.76-3.68-3.27-3.68-3.27l-.16-2.67 1.55-2.48z"/><path class="st19" d="M914.95 281.02l1.19-4.04s-9.21-.41-8.97 1.78c.24 2.19 1.89 6.44 1.62 7.72-.28 1.29 6.67 5.39 6.67 5.39s2.62.35 1.37-2.8-3.53-3.9-3.53-3.9l.1-2.93 1.55-1.22z"/><path class="st19" d="M911.18 276.06s1.31 2.81 4.22 2.81c2.91 0 2.51-1.47 2.51-1.47l1.72 4.65s-1.99 5.16 0 6.07c1.99.9 5.61-.5 5.61-4.82s-1-6.48-1-6.48l-4.42-4.37-8.64 3.61z"/><path d="M992.15 221.16s-12.2.01-15.03 13.32-3.7 28.61-3.7 28.61 11.25 11.54 17.68 7.83c6.42-3.71 9.97-5.56 9.97-5.56s11.29-40.63-8.92-44.2z" fill="#42b9cc"/><g><path class="st21" d="M1059.85 383.54c-7.84-4.53-14.22-15.57-14.22-24.63s6.38-12.74 14.22-8.21c7.84 4.53 14.22 15.58 14.22 24.63s-6.38 12.74-14.22 8.21zm0-29.19c-6.1-3.52-11.06-.66-11.06 6.39 0 7.04 4.96 15.63 11.06 19.16 6.1 3.52 11.06.66 11.06-6.39s-4.96-15.64-11.06-19.16z"/><path class="st22" d="M1059.06 383.08l-1.58-.91v-29.19l1.58.91z"/><path transform="rotate(-30 1058.361 368.084)" class="st22" d="M1057.63 350.15h1.29v35.75h-1.29z"/><path class="st22" d="M1070.91 376.24l-25.28-14.6v-1.82l25.28 14.6z"/><path transform="rotate(-30.037 1058.207 367.985)" class="st22" d="M1047.95 366.91h20.64v2.23h-20.64z"/><path class="st23" d="M1058.27 384.45c-7.84-4.53-14.22-15.58-14.22-24.63 0-9.05 6.38-12.74 14.22-8.21 7.84 4.53 14.22 15.57 14.22 24.63 0 9.05-6.38 12.74-14.22 8.21zm0-29.19c-6.1-3.52-11.06-.66-11.06 6.38s4.96 15.63 11.06 19.16c6.1 3.52 11.06.66 11.06-6.38 0-7.05-4.96-15.64-11.06-19.16z"/><path class="st24" d="M1058.27 384.45c-7.84-4.53-14.22-15.58-14.22-24.63 0-9.05 6.38-12.74 14.22-8.21 7.84 4.53 14.22 15.57 14.22 24.63 0 9.05-6.38 12.74-14.22 8.21zm0-29.19c-6.1-3.52-11.06-.66-11.06 6.38s4.96 15.63 11.06 19.16c6.1 3.52 11.06.66 11.06-6.38 0-7.05-4.96-15.64-11.06-19.16z"/><path class="st25" d="M1060.96 344.91l-8.88 5.13c9.2 5.31 16.66 18.23 16.66 28.85l8.88-5.13c0-10.62-7.46-23.53-16.66-28.85z"/><path class="st21" d="M1105.24 357.26c-7.84-4.52-14.22-15.58-14.22-24.63 0-9.05 6.38-12.74 14.22-8.21 7.84 4.53 14.22 15.58 14.22 24.63 0 9.05-6.38 12.74-14.22 8.21zm0-29.19c-6.1-3.52-11.06-.66-11.06 6.39 0 7.04 4.96 15.63 11.06 19.15 6.1 3.52 11.06.66 11.06-6.39 0-7.03-4.97-15.63-11.06-19.15z"/><path class="st22" d="M1104.45 356.81l-1.58-.92V326.7l1.58.91z"/><path transform="rotate(-30 1103.689 341.803)" class="st22" d="M1103.01 323.88h1.29v35.75h-1.29z"/><path class="st22" d="M1116.3 349.96l-25.28-14.59v-1.83l25.28 14.6z"/><path transform="rotate(-30.083 1103.717 341.705)" class="st22" d="M1093.34 340.64h20.64v2.23h-20.64z"/><path class="st23" d="M1103.66 358.17c-7.84-4.53-14.22-15.58-14.22-24.63 0-9.05 6.38-12.74 14.22-8.21 7.84 4.53 14.22 15.58 14.22 24.63 0 9.06-6.38 12.74-14.22 8.21zm0-29.19c-6.1-3.52-11.06-.66-11.06 6.38s4.96 15.63 11.06 19.16c6.1 3.52 11.06.66 11.06-6.39 0-7.03-4.96-15.62-11.06-19.15z"/><path class="st24" d="M1103.66 358.17c-7.84-4.53-14.22-15.58-14.22-24.63 0-9.05 6.38-12.74 14.22-8.21 7.84 4.53 14.22 15.58 14.22 24.63 0 9.06-6.38 12.74-14.22 8.21zm0-29.19c-6.1-3.52-11.06-.66-11.06 6.38s4.96 15.63 11.06 19.16c6.1 3.52 11.06.66 11.06-6.39 0-7.03-4.96-15.62-11.06-19.15z"/><path class="st25" d="M1106.34 318.64l-8.88 5.13c9.2 5.31 16.66 18.23 16.66 28.85l8.88-5.13c0-10.62-7.46-23.54-16.66-28.85z"/><g><path class="st26" d="M1114.21 240.78l-5.68 77.67v.2c0 1.39-.91 2.75-2.72 3.78l-37.82 21.2c-1.51.86-3.46 1.39-5.45 1.51-2.75.2-5.63-.3-7.75-1.51l-23.94-13.83c-1.41-.81-2.27-1.82-2.6-2.88v-.05l-.13-1.14-5.7-78.3 40.12 3.23 51.67-9.88z"/><path class="st27" d="M1114.21 240.78l-5.68 77.67v.2c0 1.39-.91 2.75-2.72 3.78l-37.82 21.2c-1.51.86-3.46 1.39-5.45 1.51v-94.48l51.67-9.88z"/><path class="st28" d="M1054.17 268.89l-30.42-17.56c-4.62-2.67-5.95-12.91-1.32-15.58l43.33-17.71c4.62-2.67 12.12-2.67 16.74 0l33.18 12.36c4.62 2.67 1.86 12.2-2.76 14.87l-42.01 23.62c-4.63 2.67-12.12 2.67-16.74 0z"/><path class="st8" d="M1061.81 262.02c-2.97 0-5.74-.66-7.8-1.85l-30.42-17.56c-1.87-1.08-2.9-2.45-2.9-3.85s1.03-2.77 2.9-3.85l42-23.61c2.08-1.2 4.85-1.86 7.82-1.86 2.97 0 5.74.66 7.8 1.85l30.42 17.57c1.87 1.08 2.9 2.45 2.9 3.85s-1.03 2.77-2.9 3.85l-42 23.62c-2.09 1.19-4.86 1.84-7.82 1.84z"/><path class="st0" d="M1073.4 210.57c2.73 0 5.37.62 7.24 1.7l30.42 17.56c1.48.85 2.33 1.9 2.33 2.87s-.85 2.01-2.31 2.86l-42.04 23.64c-1.87 1.08-4.51 1.7-7.24 1.7-2.73 0-5.37-.62-7.24-1.7l-30.42-17.56c-1.48-.86-2.33-1.9-2.33-2.87 0-.97.85-2.01 2.31-2.86l42.03-23.63c1.88-1.09 4.52-1.71 7.25-1.71zm0-2.27c-3.03 0-6.06.67-8.37 2l-42.01 23.62c-4.62 2.67-4.62 7 0 9.66l30.42 17.57c2.31 1.33 5.34 2 8.37 2s6.06-.67 8.37-2l42.01-23.62c4.62-2.67 4.62-7 0-9.67l-30.42-17.56c-2.31-1.33-5.34-2-8.37-2z"/></g><g><path class="st29" d="M1117.99 409.24l3.06-8.05-7.57-4.54v8.92c0 1.53 1.03 3.39 2.31 4.15l.04.02c.96.59 1.82.39 2.16-.5z"/><path class="st21" d="M1121.05 410.4c0 1.71-.56 2.92-1.48 3.51l-4.75 2.84-7.6-13.29 4.71-2.82.29-.18.02-.01c.93-.46 2.18-.35 3.55.47 2.89 1.75 5.26 5.99 5.26 9.48z"/><path class="st24" d="M1105.78 406.93c0 3.49 2.36 7.73 5.26 9.48 2.91 1.74 5.27.33 5.27-3.16s-2.36-7.73-5.27-9.48c-2.9-1.75-5.26-.33-5.26 3.16z"/><path class="st30" d="M1108.42 408.51c0 1.74 1.17 3.85 2.62 4.72 1.45.87 2.62.16 2.62-1.57s-1.17-3.85-2.62-4.72c-1.45-.87-2.62-.17-2.62 1.57z"/><path class="st25" d="M1113.25 412.09l3.06-8.05-7.57-4.54v8.92c0 1.53 1.03 3.39 2.3 4.15l.04.03c.97.57 1.83.37 2.17-.51z"/><g><path class="st23" d="M1108.74 399.5l4.74-2.84 7.57 4.54-4.74 2.84z"/></g><g><path class="st31" d="M1116.7 396.59h-3.61v2.94h.01c-.05.31.12.63.52.87.7.42 1.85.42 2.55 0 .4-.24.57-.56.52-.87h.01v-2.94z"/><path class="st32" d="M1116.17 397.35c-.7.42-1.85.42-2.55 0-.7-.42-.7-1.1 0-1.53.91-.55 2.2-.64 2.55 0 .41.73.7 1.11 0 1.53z"/></g></g><g><path class="st29" d="M1166.83 381.05l3.06-8.05-7.57-4.54v8.92c0 1.53 1.03 3.39 2.31 4.15l.04.03c.96.57 1.82.37 2.16-.51z"/><path class="st21" d="M1169.89 382.2c0 1.71-.57 2.92-1.49 3.51l-4.75 2.84-7.59-13.29 4.7-2.83.29-.18.02-.01c.93-.46 2.18-.35 3.55.47 2.91 1.76 5.27 6.01 5.27 9.49z"/><path class="st24" d="M1154.62 378.73c0 3.49 2.36 7.73 5.27 9.48 2.91 1.74 5.26.33 5.26-3.16s-2.36-7.73-5.26-9.48c-2.91-1.75-5.27-.33-5.27 3.16z"/><path class="st30" d="M1157.26 380.31c0 1.74 1.17 3.85 2.62 4.72s2.62.16 2.62-1.57c0-1.74-1.17-3.85-2.62-4.72-1.44-.87-2.62-.17-2.62 1.57z"/><path class="st25" d="M1162.09 383.89l3.06-8.05-7.57-4.54v8.92c0 1.53 1.03 3.39 2.31 4.15l.04.03c.96.57 1.83.37 2.16-.51z"/><g><path class="st23" d="M1157.58 371.3l4.74-2.84 7.57 4.54-4.74 2.84z"/></g><g><path class="st31" d="M1165.54 368.39h-3.61v2.94h.01c-.05.31.12.63.52.87.7.42 1.85.42 2.55 0 .4-.24.57-.56.52-.87h.01v-2.94z"/><path class="st32" d="M1165.01 369.16c-.7.42-1.85.42-2.55 0-.71-.42-.7-1.11 0-1.53.91-.55 2.2-.64 2.55 0 .41.72.71 1.1 0 1.53z"/></g></g><g><path class="st7" d="M1160.78 361.67v.6l-40.49-23.38c-1.97-1.14-5.16-1.14-7.13 0l-40.5 23.38v-.6h-9.4v7.23c0 .75.49 1.49 1.48 2.06l48.41 27.95c1.97 1.14 5.16 1.14 7.13 0l48.41-27.95c.99-.57 1.48-1.31 1.48-2.06v-7.23h-9.39z"/><path class="st30" d="M1168.69 363.75l-5.23 3.02-43.17 24.92c-1.95 1.13-5.18 1.13-7.13 0l-43.12-24.92-5.28-3.02c-2-1.13-2-2.97 0-4.15l48.4-27.94c1.95-1.13 5.18-1.13 7.13 0l48.4 27.94c2 1.17 2 3.02 0 4.15z"/><path class="st7" d="M1163.46 366.77l-43.17 24.92c-1.95 1.13-5.18 1.13-7.13 0l-43.12-24.92 44.4-25.69c.56-.31 1.39-.52 2.31-.52.87 0 1.69.21 2.26.52l44.45 25.69z"/><path class="st33" d="M1116.72 331.94c1.14 0 2.23.25 2.99.69l48.39 27.94c.59.35.94.77.94 1.12 0 .34-.35.74-.93 1.07l-5.23 3.02-43.17 24.92c-.76.44-1.85.69-2.99.69-1.14 0-2.23-.25-3-.69l-43.13-24.92-5.29-3.03c-.57-.32-.92-.72-.92-1.06 0-.36.35-.77.93-1.12l48.4-27.94c.78-.44 1.87-.69 3.01-.69zm0-1.14c-1.3 0-2.59.28-3.56.85l-48.4 27.94c-2 1.18-2 3.02 0 4.15l5.28 3.02 43.12 24.92c.97.56 2.27.84 3.56.84s2.59-.28 3.56-.84l43.17-24.92 5.23-3.02c2-1.13 2-2.97 0-4.15l-48.4-27.94c-.97-.56-2.26-.85-3.56-.85z"/></g><g><path class="st33" d="M1132.6 351.81l-3.33-1.92v-93.47l3.33 1.92z"/><path class="st7" d="M1132.6 351.81l3.33-1.92v-93.47l-3.33 1.92z"/></g><g><path class="st7" d="M1143.02 301.43v.6l-20.85-12.59c-1.97-1.14-5.16-1.14-7.13 0l-40.5 23.38v-.6h-9.4v7.23c0 .75.49 1.49 1.48 2.06l28.77 17.16c1.97 1.14 5.16 1.14 7.13 0l48.42-27.95c.98-.57 1.48-1.31 1.48-2.06v-7.23h-9.4z"/><path class="st30" d="M1150.93 303.51l-5.23 3.03-43.17 24.92c-1.95 1.13-5.18 1.13-7.13 0l-23.48-14.13-5.28-3.03c-2-1.13-2-2.97 0-4.15l48.4-27.94c1.95-1.13 5.18-1.13 7.13 0l28.76 17.15c1.99 1.17 1.99 3.02 0 4.15z"/><path class="st7" d="M1145.7 306.53l-43.17 24.92c-1.95 1.13-5.18 1.13-7.13 0l-23.48-14.13 44.4-25.69c.56-.31 1.38-.51 2.31-.51.87 0 1.69.2 2.26.51l24.81 14.9z"/><path class="st33" d="M1118.6 282.49c1.14 0 2.23.25 2.98.68l28.76 17.16c.59.35.95.77.94 1.13 0 .34-.35.74-.93 1.07l-5.23 3.02-43.17 24.92c-.76.44-1.85.69-2.99.69-1.14 0-2.24-.25-2.98-.68l-23.5-14.14-5.29-3.03c-.58-.32-.92-.72-.92-1.07 0-.36.35-.77.93-1.12l48.4-27.94c.77-.44 1.86-.69 3-.69zm0-1.14c-1.29 0-2.59.28-3.56.85l-48.4 27.94c-2 1.18-2 3.03 0 4.15l5.28 3.03 23.48 14.13c.97.56 2.27.85 3.56.85s2.59-.28 3.56-.85l43.17-24.92 5.23-3.03c2-1.13 2-2.97 0-4.15l-28.76-17.15c-.96-.57-2.26-.85-3.56-.85z"/></g><g><path class="st7" d="M1143.02 254.64v.6l-20.85-12.59c-1.97-1.14-5.16-1.14-7.13 0l-40.5 23.38v-.6h-9.4v7.23c0 .75.49 1.49 1.48 2.06l28.77 17.16c1.97 1.14 5.16 1.14 7.13 0l48.42-27.95c.98-.57 1.48-1.31 1.48-2.06v-7.23h-9.4z"/><path class="st30" d="M1150.93 256.72l-5.23 3.02-43.17 24.92c-1.95 1.13-5.18 1.13-7.13 0l-23.48-14.13-5.28-3.02c-2-1.13-2-2.97 0-4.15l48.4-27.94c1.95-1.13 5.18-1.13 7.13 0l28.76 17.15c1.99 1.17 1.99 3.02 0 4.15z"/><path class="st7" d="M1145.7 259.74l-43.17 24.92c-1.95 1.13-5.18 1.13-7.13 0l-23.48-14.13 44.4-25.69c.56-.31 1.38-.51 2.31-.51.87 0 1.69.21 2.26.51l24.81 14.9z"/><path class="st33" d="M1118.6 235.7c1.14 0 2.23.25 2.98.69l28.76 17.16c.59.35.95.77.94 1.12 0 .34-.35.74-.93 1.07l-5.23 3.02-43.17 24.92c-.76.44-1.85.69-2.99.69-1.14 0-2.24-.25-2.98-.68l-23.5-14.14-5.29-3.03c-.58-.32-.92-.72-.92-1.07 0-.35.35-.77.93-1.12l48.4-27.94c.77-.44 1.86-.69 3-.69zm0-1.14c-1.29 0-2.59.28-3.56.84l-48.4 27.94c-2 1.18-2 3.02 0 4.15l5.28 3.02 23.48 14.13c.97.56 2.27.85 3.56.85s2.59-.28 3.56-.85l43.17-24.92 5.23-3.02c2-1.13 2-2.97 0-4.15l-28.76-17.15c-.96-.56-2.26-.84-3.56-.84z"/></g><g><path class="st33" d="M1088.2 377.45l-3.33-1.92v-93.47l3.33 1.92z"/><path class="st7" d="M1088.2 377.45l3.33-1.92v-93.47l-3.33 1.92z"/></g><g><path class="st34" d="M1092.48 331.9l-25.55-16.94v-9.4c0-6.02 2.24-11.43 6.68-11.95 1.38-.16 5.78-.15 5.78-.15l-1.26-15.33c0-1.62 1.12-2.27 2.52-1.46l.04.02c1.4.81 2.52 2.75 2.52 4.37l-1.1 13.27s7.2 4.92 8.59 6.69c10.48 13.38 1.78 30.88 1.78 30.88z"/><path class="st35" d="M1092.48 322.5v9.4l-27.47-15.86v-9.4c0-6.01 2.24-10.78 6.67-11.3 1.39-.16 5.78.05 5.78.05l-1.26-16.16c0-1.62 1.12-2.27 2.52-1.46l.04.02c1.4.81 2.52 2.75 2.52 4.37l-1.22 14.69s4.36 4.89 5.74 6.65c4.44 5.66 6.68 12.99 6.68 19z"/><path class="st36" d="M1091.81 325.29v6.22l-26.13-15.08v-6.23c0-5.71 2.14-10.23 6.37-10.73 1.3-.16 3.99-.42 5.47.04.61.21 1.87.89 2.48 1.41 1.49 1.21 4.13 4.62 5.43 6.29 4.24 5.4 6.38 12.36 6.38 18.08z"/></g><g><path class="st28" d="M1106.26 336.97l-4.2 2.43s-.38-2.41 0-3.08c.61-1.05 3.15-3.03 4.2-2.43.67.39 0 3.08 0 3.08z"/><path class="st26" d="M1135.03 344.21l-2.4 32.85v.08c0 .59-.38 1.16-1.15 1.6l-16 8.97c-.64.36-1.46.59-2.3.64-1.16.08-2.38-.13-3.28-.64l-10.13-5.85c-.6-.34-.96-.77-1.1-1.22v-.02l-.05-.48-2.41-33.12 16.97 1.37 21.85-4.18z"/><path class="st27" d="M1135.03 344.21l-2.4 32.85v.08c0 .59-.38 1.16-1.15 1.6l-16 8.97c-.64.36-1.46.59-2.3.64V348.4l21.85-4.19z"/><path class="st28" d="M1109.64 356.1l-12.87-7.43c-1.95-1.13-2.52-5.46-.56-6.59l18.33-7.49c1.95-1.13 5.12-1.13 7.08 0l14.03 5.23c1.96 1.13.79 5.16-1.17 6.29l-17.77 9.99c-1.95 1.13-5.12 1.13-7.07 0z"/><path class="st8" d="M1112.87 353.14c-1.24 0-2.4-.28-3.27-.77l-12.87-7.43c-.77-.45-1.2-1.01-1.2-1.58 0-.57.42-1.13 1.2-1.57l17.76-9.99c.87-.5 2.03-.78 3.27-.78 1.25 0 2.41.27 3.27.77l12.87 7.43c.77.44 1.19 1 1.19 1.57 0 .57-.42 1.13-1.19 1.58l-17.76 9.99c-.87.5-2.03.78-3.27.78z"/><path class="st0" d="M1117.77 331.56c1.13 0 2.23.26 3 .7l12.87 7.43c.58.33.93.75.93 1.1 0 .36-.35.77-.92 1.1l-17.78 10c-.77.44-1.87.7-3 .7s-2.23-.26-3-.7l-12.87-7.43c-.58-.33-.92-.75-.92-1.11 0-.36.35-.77.92-1.1l17.78-10c.76-.43 1.86-.69 2.99-.69zm0-1.09c-1.28 0-2.56.28-3.54.85l-17.77 9.99c-1.96 1.13-1.96 2.96 0 4.09l12.87 7.43c.98.56 2.26.84 3.54.84 1.28 0 2.56-.28 3.54-.84l17.77-9.99c1.96-1.13 1.96-2.96 0-4.09l-12.87-7.43c-.98-.56-2.26-.85-3.54-.85z"/><path class="st28" d="M1126.81 348.29l-4.2 2.43s-.38-2.41 0-3.08c.61-1.05 3.15-3.03 4.2-2.43.66.39 0 3.08 0 3.08z"/><path class="st24" d="M1124.97 347.18s-9.47 17.08-11.79 18.07c-3.05 1.31-18.19-6.15-17.9-8.77.17-1.61 1.36-3.54 1.36-3.54l-.08-1.15s-2.26 3.31-2.26 4.9c0 2.65 14.14 11.05 18.67 9.6 3.62-1.15 12.46-18.88 12.46-18.88s-.17-.78-.46-.23z"/></g><g><path class="st37" d="M1121.56 304.93l-12.41-7.11v-3.55l12.41 7.11z"/><path class="st38" d="M1121.56 304.93l8.89-5.13v-3.55l-8.89 5.13z"/><g><path class="st19" d="M1121.56 300.83l-12.41-7.11 8.89-5.14 12.41 7.11z"/><path class="st1" d="M1121.56 304.37l-12.41-7.11v-3.54l12.41 7.11z"/><path class="st8" d="M1121.56 304.37l8.89-5.13v-3.55l-8.89 5.14z"/></g></g><g><path class="st37" d="M1108.88 317.61l-12.41-7.11v-3.55l12.41 7.11z"/><path class="st38" d="M1108.88 317.61l8.89-5.14v-3.54l-8.89 5.13z"/><g><path class="st11" d="M1108.88 313.51l-12.41-7.11 8.89-5.14 12.41 7.11z"/><path class="st9" d="M1108.88 317.05l-12.41-7.11v-3.54l12.41 7.11z"/><path class="st8" d="M1108.88 317.05l8.89-5.13v-3.55l-8.89 5.14z"/></g></g><g><path class="st37" d="M1130.4 309.35l-10.65-10.71 1.2-2.24 10.65 10.71z"/><path class="st38" d="M1130.4 309.35l8.89-5.13v-.56l-7.69 3.45z"/><g><path class="st35" d="M1131.6 306.56l-10.65-10.71 8.89-5.13 10.65 10.7z"/><path class="st36" d="M1130.4 308.8l-10.65-10.71 1.2-2.24 10.65 10.71z"/><path class="st34" d="M1130.4 308.8l8.89-5.14 1.2-2.24-8.89 5.14z"/></g></g><g><path class="st39" d="M1112.28 249.23l-4.13 8.6c-1.26.73-6.56-3.38-6.68-4.54l-1.04-9.88c-.01-4.31 8.22-12.99 8.22-12.99 2.22-2.69 4.04-5.45 5.33-3.87l.23.09c1.07.39 1.67 3.83 1.66 5.29l-1.15 13.48c0 1.33-1.1 3.04-2.44 3.82z"/><path class="st39" d="M1116.19 230.97l-2.18 1.26c-2.97 1.71-5.37.73-5.37-2.2v-7.79l5.15-2.97 2.4 11.7z"/><path class="st35" d="M1119.33 232.78l-2.46 16.66c-2.97 1.71-5.1-14.67-5.1-17.6v-7.79l5.14-2.97 2.42 11.7z"/><path class="st6" d="M1111.21 224.61l-3.14-1.8v-1.77l3.14 1.81z"/><path class="st32" d="M1117.5 220.98l-6.29 3.63v-1.76l6.29-3.63z"/><path class="st33" d="M1102.78 230.23c-.3.24-.35-.04-.17-.48 1.69-3.91.71-5.88 2.88-9.28 7.87-5.44 3.91.7 4.98.31-3.48-.64-6.16 10.26-6.16 10.26s-1.28-.57-1.53-.81z"/><path class="st6" d="M1104.33 231.03c-.01 0-.01.01 0 0-.3.24-.35-.03-.17-.48 1.69-3.91.71-5.88 2.88-9.28 7.87-5.44 3.91.7 4.98.31-3.48-.64-4.28 3.84-6.52 8-.82 1.09-1.03 1.34-1.17 1.45z"/><path class="st40" d="M1113.46 218.37l-5.89 3.57s-1.81-1.46-3.13-1.81c.11-.6.16-2.74.28-3.34l11.94-5.31c-2.23 2.7-3.06 5.41-3.2 6.89z"/><path class="st35" d="M1117.75 252.99l-8.37 4.84c-1.26.73-2.31.39-2.44-.78l-1.04-9.88c-.01-4.31 5.87-15.04 5.87-15.04 2.22-2.69 6.69-2.95 6.69-2.95 2.23 1.06 2.89 5.05 2.88 6.51l-1.15 13.49c0 1.33-1.1 3.04-2.44 3.81z"/><path class="st41" d="M1109.38 255.7c-.16.09-.28.05-.3-.09l-1.02-9.77c.09-2.25 3.77-8.18 6.37-11.69.41-.42.87-.78 1.32-1.04.83-.48 1.62-.63 2.23-.4l.2.07c.44.34 1.02 2.63 1.03 4.06l-1.15 13.48v.09c0 .16-.13.37-.3.46l-8.38 4.83z"/><path class="st5" d="M1117.75 251.41l-8.37 4.83c-.44.25-.8.14-.84-.27l-1.03-9.8v-.04c.11-2.56 4.09-8.85 6.58-12.22l.11-.13c.48-.49 1.02-.92 1.55-1.22.98-.56 1.9-.73 2.6-.47l.26.11c.55.42 1.12 2.87 1.14 4.32l-1.15 13.53v.04c-.01.46-.39 1.05-.85 1.32zm-8.15 3.63l7.92-4.57 1.14-13.36c-.02-1.38-.59-3.42-.9-3.73l-.15-.06c-.76-.27-1.92.18-2.89 1.15-2.87 3.89-5.99 9.18-6.11 11.06l.99 9.51z"/><path fill="#bfe5ec" d="M1119.8 213.3l-11.94 6.9v-1.59l10.6-6.13z"/><path class="st41" d="M1116.59 220.18l-3.5 2.02c-2.34.28-4.19.09-5.52-.26.11-.6.07-1.1.19-1.7l12.03-6.95c-2.23 2.7-3.06 5.41-3.2 6.89z"/><path fill="#d5edf3" d="M1118.46 212.48l-10.6 6.13-3.14-1.81 10.61-6.13z"/><path d="M1107.08 220.1c0-.73-.51-1.61-1.14-1.97-.35-.2-.66-.2-.87-.03v-.01l-2.12 1.6.68 1.08.73 1.04 2.16-.91c.11-.01.2-.05.28-.12l.02-.01v-.01c.17-.13.26-.35.26-.66z" fill="#709ea8"/><path class="st41" d="M1104.54 221.3c0 .58-.41.81-.91.52-.5-.29-.91-.99-.91-1.57 0-.58.41-.81.91-.52.51.28.91.99.91 1.57z"/></g><g><path class="st24" d="M1134.43 260.23v.21h-.01c.01-.07.01-.13.01-.21z"/><path class="st1" d="M1134.02 242.15v18.08c0 .08 0 .14-.01.21-.09.94-.75 1.86-2 2.59-2.69 1.55-7.04 1.55-9.72 0-1.24-.72-1.9-1.65-1.99-2.59h-.03v-18.3h13.75z"/><path class="st19" d="M1134.02 241.72c-.26-3.36-3.47-4.56-3.47-4.56l-.78 1.2c-.9-.21-1.85-.31-2.8-.29v-.11l-3.28-.79s-2.92 2.47-3.26 4.02v.02c-.46 1.27.15 2.64 1.85 3.63 2.68 1.55 7.04 1.55 9.72 0 1.43-.83 2.07-1.92 1.98-3 .01-.05.04-.08.04-.12z"/><path class="st45" d="M1129.82 239.61c-.83 1.31-3.52 1.11-5.36 0-1.47-.88-1.48-2.24 0-3.1 1.48-.85 3.88-.85 5.36 0 1.48.85.91 1.65 0 3.1z"/><path class="st8" d="M1129.55 234.94v2.65c-.03.34-.27.67-.73.94-.98.56-2.56.56-3.53 0-.45-.26-.69-.6-.72-.94h-.01v-2.64h4.99z"/><path class="st11" d="M1128.83 235.92c-.97.56-2.56.56-3.53 0-.98-.57-.98-1.48 0-2.04s2.56-.56 3.53 0c.97.56.97 1.47 0 2.04z"/></g><g><path class="st1" d="M1094.99 236.96v32.29c0 .08 0 .14-.01.22-.09.96-.77 1.91-2.05 2.65-2.76 1.59-7.22 1.59-9.97 0-1.27-.74-1.95-1.69-2.04-2.65h-.03v-32.5h14.1z"/><path class="st29" d="M1092.93 239.71c-2.75 1.59-7.22 1.59-9.97 0-2.76-1.59-2.76-4.17 0-5.76 2.75-1.59 7.22-1.59 9.97 0 2.75 1.59 2.75 4.17 0 5.76z"/><g><path class="st26" d="M1094.99 229.27v9.61c0 .08 0 .14-.01.22-.09.96-.77 1.91-2.05 2.65-2.76 1.59-7.22 1.59-9.97 0-1.27-.74-1.95-1.69-2.04-2.65h-.03v-9.83h14.1z"/><path class="st28" d="M1092.93 232.02c-2.75 1.59-7.22 1.59-9.97 0-2.76-1.59-2.76-4.17 0-5.76 2.75-1.59 7.22-1.59 9.97 0 2.75 1.59 2.75 4.17 0 5.76z"/></g></g><g><path class="st41" d="M1101.34 271.29l4.12 8.6c1.26.73 6.56-3.37 6.68-4.54l1.04-9.88c.01-4.31-8.22-12.99-8.22-12.99-2.22-2.69-4.04-5.45-5.33-3.87l-.23.08c-1.07.39-1.67 3.83-1.66 5.29l1.15 13.49c.01 1.34 1.1 3.04 2.45 3.82z"/><path class="st40" d="M1097.42 253.04l2.18 1.26c2.97 1.71 5.37.72 5.37-2.21v-7.78l-5.14-2.97-2.41 11.7z"/><path class="st33" d="M1094.29 254.85l2.46 16.66c2.97 1.71 5.1-14.67 5.1-17.6v-7.79l-5.14-2.97-2.42 11.7z"/><path class="st46" d="M1102.41 246.68l3.13-1.81v-1.76l-3.13 1.81z"/><path class="st9" d="M1096.12 243.05l6.29 3.63v-1.76l-6.29-3.63z"/><path d="M1110.83 252.29c.3.24.35-.04.17-.48-1.69-3.91-.71-5.88-2.87-9.28-7.88-5.44-3.91.7-4.98.31 3.48-.64 6.16 10.26 6.16 10.26s1.28-.56 1.52-.81z" fill="#ffb48f"/><path class="st46" d="M1109.29 253.1l.01.01c.29.23.34-.04.16-.48-1.69-3.91-.71-5.88-2.87-9.28-7.88-5.44-3.91.7-4.98.31 3.48-.64 4.28 3.84 6.52 8 .8 1.07 1.02 1.33 1.16 1.44z"/><path class="st8" d="M1100.16 240.44l5.89 3.57s1.81-1.46 3.13-1.81c-.11-.59-.16-2.74-.28-3.34l-11.94-5.3c2.23 2.69 3.06 5.4 3.2 6.88z"/><path class="st33" d="M1095.87 275.06l8.37 4.83c1.26.73 2.31.39 2.44-.78l1.04-9.88c0-4.31-5.87-15.05-5.87-15.05-2.22-2.69-6.69-2.95-6.69-2.95-2.23 1.06-2.89 5.05-2.88 6.51l1.15 13.48c0 1.36 1.09 3.06 2.44 3.84z"/><path class="st35" d="M1104.24 277.77c.15.09.28.05.3-.1l1.03-9.76c-.09-2.25-3.77-8.18-6.37-11.69-.42-.42-.87-.78-1.32-1.04-.84-.48-1.63-.62-2.23-.4l-.2.07c-.44.34-1.01 2.63-1.03 4.06l1.15 13.48v.09c0 .16.13.37.3.47l8.37 4.82z"/><path d="M1095.87 273.48l8.37 4.84c.44.25.8.13.84-.27l1.03-9.8v-.04c-.1-2.56-4.09-8.85-6.58-12.22l-.11-.13c-.48-.49-1.02-.92-1.55-1.22-.97-.56-1.9-.73-2.6-.47l-.26.11c-.55.42-1.12 2.87-1.13 4.32l1.15 13.53v.04c-.01.45.37 1.04.84 1.31zm8.15 3.62l-7.92-4.57-1.14-13.36c.02-1.38.59-3.42.9-3.73l.15-.06c.76-.28 2.01.1 2.89 1.14 2.98 3.53 6.51 7.41 6.11 11.06l-.99 9.52z" fill="#30ebff"/><path class="st19" d="M1093.82 235.37l11.94 6.89v-1.59l-10.61-6.12z"/><path class="st1" d="M1097.02 242.25l3.5 2.02c2.34.28 4.19.09 5.52-.26-.12-.59-.07-1.09-.19-1.7l-12.03-6.95c2.24 2.7 3.07 5.41 3.2 6.89z"/><path class="st45" d="M1095.15 234.55l10.61 6.12 3.13-1.81-10.61-6.12z"/><path class="st11" d="M1106.53 242.16c0-.73.51-1.61 1.14-1.98.36-.2.66-.2.87-.03v-.01l2.12 1.6-.68 1.08-.74 1.04-2.16-.91a.45.45 0 01-.28-.12l-.02-.01v-.01c-.15-.11-.25-.34-.25-.65z"/><path d="M1109.07 243.36c0 .58.41.82.91.53.5-.29.91-1 .91-1.57 0-.58-.41-.82-.91-.53-.5.29-.91.99-.91 1.57z" fill="#ffc4a7"/></g></g><path class="st8" d="M966.24 238.1s13.08-21.67 19.08-23.74c6-2.07 9.45 4.86 9.45 4.86s-12.89-2.43-18.41 18.58c-2.39 9.11-10.12.3-10.12.3z"/><g><path d="M693.41 465.72s-3.24 3.09-3.93 5.36c-.7 2.27.26 7.25 1.22 8.22.96.96 1.57 0 1.57 0s2.02 6.12 2.1 7.86c.08 1.99 1.57 12.42 5.77 17.42 4.19 5 5.82 4.33 7.52 3.68 3.48-1.33-4.89-19.69-4.89-19.69l-8.92-22.84h-.44z"/><path class="st24" d="M698.29 461.35s2.09.4 5.74 2.75c3.67 2.34 5.63 9.89 7.91 13.67 2.27 3.76-.59 9.32-.85 21.51-.18 8.25-1.59 9.37-4.7 8.9-4.1-.63-8.5-8.44-9.62-13.54-1.69-7.71-2.98-12.74-4.36-16.87-3.99-11.94 5.88-16.42 5.88-16.42z"/><path class="st33" d="M727 259.44c1.86.15 16.02 15.71 10.81 25.57-5.21 9.85-.29 34.13-.29 34.13s7.9 14.33 11.44 18.45c3.12 3.64 13.73 11.72 12.02 14.96-1.71 3.24-11.4 3.96-11.4 3.96s-33.56-24.94-37.51-31.24c-3.96-6.29-19.74-68.62 14.93-65.83z"/><path class="st50" d="M711.84 482.39c11.36-10.89 24.98-21.06 28.34-27.57 9.97-19.29-1.24-32.23-4.24-50.54-2.97-18.15-7.32-42.12-7.32-42.12-10.71-16.93-21.21-3.31-28.11 3.6-6.91 6.91 17.32 69.49 17.32 71.22 0 1.73-9.15 16.51-15.75 20.6-6.59 4.09-6.6 5.91-6.6 5.91s5.01 29.79 16.36 18.9z"/><path d="M677.39 517.82v1.4l-8.6 4.97v-3.23zM662.68 517.91c.04.87.91-2.58 2.05-1.93l4.05 4.98v3.23l-4.34-2.51c-.99-.56-1.56-1.28-1.72-2.03-.13-.54-.1-1.22-.04-1.74z"/><path d="M662.64 513.94v4.04c.06 0 4.08 2.98 7.13 3.56 3.19.6 12.74 11.95 18.03 14.42 16.61 7.79 18.29.21 18.16-.49-.5-2.74-4.12-6.5-6.65-7.96-3.18-1.83-6.14-8.07-7.65-10.53-1.52-2.45-5.01-7.63-7.49-6.2-2.48 1.43-8.27 6.2-8.27 6.2s-8.16-4.44-9.47-6.66c-1.31-2.22-1.74-5.49-1.74-5.49s-2.05 5.37-2.05 9.11z"/><path d="M666.42 510.31c-1.08-1.83-1.56-4.38-1.7-5.22.27-.43.79-.8 1.7-1.32 2.59-1.49 6.21.43 8.59 2.81 1.37 1.37 4.78 3.67 7.41 5.36-2.76 1.94-6.54 5.04-6.54 5.04s-8.15-4.44-9.46-6.67z" fill="#ab4003"/><path d="M668.47 503.71c-.68 0-1.28.15-1.82.46-.68.39-1.18.72-1.44 1.04.16.91.63 3.22 1.61 4.87.99 1.68 7.61 5.66 10.42 7.25l5.83-4.52c-2.57-1.65-7.04-4.56-8.38-5.91-1.56-1.55-4-3.19-6.22-3.19zm0-.47c2.23 0 4.74 1.53 6.54 3.33 1.37 1.37 6.23 4.5 8.86 6.2l-6.6 5.1s-9.54-5.33-10.85-7.56c-1.07-1.84-1.56-4.38-1.69-5.22.27-.43.79-.81 1.69-1.33.63-.36 1.33-.52 2.05-.52z" fill="#e0a273"/><path class="st24" d="M662.64 513.94v2.92c.03 0 1.7.74 3.65 1.8 1.81.97 4.51.26 5.65 1.38.71.7 2.45 2.94 4.08 4.56 3.65 3.61 8.07 8.64 11.78 10.24 12.49 5.4 16.29 4.63 17.51-.03.7-2.69-4.18-7.94-6.7-9.41-1.85-1.07-1.61-1.44-3.89-3.87-1.65-1.76-2.41-3.53-3.05-4.56-.95-1.54-2.69-4.15-4.45-5.53-1.05-.82-2.12-1.2-3.04-.67-.31.18-.68.42-1.08.69-.21.14-.43.3-.66.46-2.76 1.95-6.53 5.05-6.53 5.05s-8.16-4.44-9.47-6.66c-1.08-1.83-1.56-4.38-1.7-5.22-.02-.17-.04-.27-.04-.27s-.9 2.36-1.51 5.05c-.32 1.36-.55 2.81-.55 4.07z"/><path class="st50" d="M694.13 364.08s2.1-10.27 2.81 42.01c.46 34.24-2.35 41.59-6.15 51.15-5.15 12.99-1.53 53.32-1.53 53.32s-8.58 8.84-15.2 5.43c-13.59-6.99-10.42-14.3-10.42-14.3s-.58-30.34 3.61-45.58c1.51-5.53-5.2-27.9-6.46-40.08-4.28-41.35-6.71-13.11-.46-36.43 2.53-9.5 33.8-15.52 33.8-15.52z"/><path class="st53" d="M692.87 268.86s-6.38 4.72-13.15 13.05c-6.77 8.34-7.58 9.32-5.46 27.78s-.99 32.8-.99 45.56c0 2.52-6.91 9.55-10.27 15.08-3.37 5.53-4.32 21.63-4.32 21.63s0 10.1 22.11 4.8c22.11-5.28 59.33-14.63 47.83-34.6-3.18-5.53-5.99-7.65-4.55-15.34 1.45-7.69 16-76.94 8.41-81.09-7.59-4.15-22.55 1.04-27.94 2.85-5.38 1.8-11.67.28-11.67.28z"/><path class="st53" d="M719.42 292.89l-.2-.11.13-1.16c.05.76.07 1.27.07 1.27z"/><path class="st2" d="M704.69 317.64s13.72-8.23 9.86-15.81c-3.85-7.58 1.91-15.96 1.91-15.96s-44.5-9.38-33.12-13.68c11.38-4.3 43.13-23.83 55.06-3.96 10.06 16.77 9.15 27.28 6.98 36.76-3.92 17.15-14.22 39.19-14.22 42.49 0 5.66 2.79 12.89 4.07 35.82 1.28 22.95-28.24 20.9-28.24 20.9l-13.29-79.97 10.99-6.59z"/><path class="st2" d="M665.52 354.05c2.4-5.59-7.64-13.71-2.53-60.63 1.68-15.46 23.05-26.05 23.05-26.05s7.24 15.81 18.14 21.77c10.91 5.95 5.06 2.49 5.06 2.49l2.91-3.36s13.6 11.46 5.02 65.55c-1.92 12.12 0 49.06 0 49.06s-59.37 8.03-60.98-14.38c-.97-13.53 6.94-28.86 9.33-34.45z"/><path class="st30" d="M712.15 288.27c3.21 3.69 4.55 8.54 5.58 13.2 1.07 4.71 1.48 9.55 1.73 14.36.37 9.67-.39 19.34-1.61 28.93-.58 4.79-1.44 9.58-1.71 14.47-.26 4.87-.26 9.72-.21 14.57.08 9.71.54 19.4 1.24 29.08-.24-9.7-.42-19.39-.45-29.08.01-4.84.08-9.69.41-14.51.32-4.79 1.24-9.57 1.9-14.39 1.08-9.66 1.71-19.39 1.21-29.11-.31-4.84-.77-9.72-1.94-14.45-1.24-4.67-2.79-9.51-6.15-13.07z"/><path d="M718.74 269.74s-6.28 9.17-6.21 11.87c.06 2.69.79 3.49-.38 7.31-1.17 3.82-8.01-3.33-14.96-8.1-8.37-5.75-9.88-13.52-9.88-13.52s5.92-1.09 5.79-6.86c-.14-5.77 25.64 9.3 25.64 9.3z" fill="#f0a96d"/><path class="st55" d="M731.19 230.56s3.39 12.33 1.41 16.17c-1.98 3.85-3.09 1.11-2.97 5.95.11 4.84 1.88 6.87-1.15 10.05-3.04 3.19-5.46 3.25-5.32 8.77.13 5.53-8.5 4.65-14.48 1.38-5.98-3.26-17.89-10.98-20.49-18.86-2.61-7.89-15.01-39.9 19.73-42.29 15.96-1.11 23.27 18.83 23.27 18.83z"/><path d="M695.96 246.4c-.05-.12-1.92-3.79-3.59-2.56-1.66 1.24-2.71 3.51-2.05 6.55.67 3.02 2.38 6.74 4.45 6.63 2.08-.1 2.73.16 3.79-1.49 1.07-1.65.34-3.49.34-3.49l-2.94-5.64z" fill="#ffeae1"/><path class="st55" d="M696.81 246.66c-.05-.12-1.91-3.79-3.58-2.55-1.67 1.23-2.72 3.51-2.04 6.55.66 3.03 2.37 6.74 4.45 6.63 2.07-.1 2.72.15 3.79-1.49 1.07-1.65.34-3.49.34-3.49l-2.96-5.65z"/><path class="st57" d="M695.21 247.65s-.58 1.85-.8 2.66c-.21.8-.41 2.12.04 2.74.45.62.87 1.02.87 1.02s-.21-3.2.01-4.43c.22-1.22.28-2.3-.29-3.18-.56-.87-1.03-2.01-1.83-.92-.79 1.07-1.42 2.27-1.16 4.19.27 1.92.97 3.94 1.88 4.79.92.85 2.12 1.22 2.12 1.22s-2.41-.91-2.95-3.1c-.55-2.18-.87-5.58-.22-6.19.64-.61.73-.73.83.09.1.82-.32 2.08.26 1.65.58-.42.59-1.58.98-1.13.39.46.26.59.26.59z"/><path class="st57" d="M695.83 251.29s.23-1.82.6-1.78c.38.04.46.04.72.64.27.59.32.82.87.64.56-.2.93-.7.48.14-.45.83-.63-.03-1.42.56-.8.6-.5 1.36-1.05 1.44-.55.08-.28-1.17-.11-1.53l-.09-.11z"/><path d="M727.14 220.52s10.05 10.34 6.07 12.64c-3.97 2.3-18.04.13-24.65 3.95-6.61 3.82-4.83 19.13-7.51 15.83-2.68-3.3-5.79-12.03-9.05-11.48-3.27.54.12 20.2-1.85 16.38-1.97-3.82-12.28-21.52-7.79-31.39 4.49-9.88 25.82-24.9 44.78-5.93z" fill="#3d3430"/><path class="st33" d="M683.91 269.16l8.1-5.98s2.64 13.51 10.81 21.59c3.32 3.29 9.34 4.15 9.34 4.15l-2.04 8.19s-7.51-.34-14.22-6.74c-6.71-6.4-11.99-21.21-11.99-21.21zM712.54 281.61c1.56-4.28 2.35-5.7 2.35-5.7s4.83 1.76 6.34 5.04c1.15 2.48-2.03 7.64-1.87 10.44l-7.2-2.48c0 .01-1.19-3.02.38-7.3zM694.34 320.67v14.74l6.63-1 6.65-6.69v-14.73zM728.7 302.13v14.74l6.64-1 6.64-6.68v-14.74z"/><path class="st33" d="M669.9 280.25c5.19-2.33 21.73 13.99 16.52 23.85-5.21 9.86-3.12 41.49-3.12 41.49s33.91 17.1 32.2 20.34c-1.71 3.23-4.27 9.45-4.27 9.45s-40.41-11.5-44.37-17.8c-3.95-6.29-12.34-70.41 3.04-77.33z"/><g><path class="st59" d="M786.22 530.3l5.59 3.23v-25.04l-5.59-3.23z"/><path class="st30" d="M791.81 508.49l-8.5-6.93-3.83-10.5-5.9-2.32 2.41 9.89 7.29 6.63z"/><path class="st24" d="M862.77 572.69v7.77c0 .51 0 .95-.08 1.45-.6 6.42-5.13 12.76-13.69 17.72-18.4 10.61-48.18 10.61-66.58 0-8.48-4.96-13.01-11.29-13.61-17.72h-.17v-9.22h94.13z"/><ellipse class="st29" cx="815.7" cy="572.69" rx="47.07" ry="27.18"/><path class="st59" d="M799.94 543.93l2.11-7.27-15.22-8.79-24.17 14.09 25.71 32.41 24.17-23.18z"/><path class="st29" d="M777.88 550.74l22.97-15.64-6.06 11.45-19.01 11.46z"/><path class="st24" d="M775.78 558.01l2.1-7.27-15.22-8.78-4.72 5.75v9.09l30.43 17.57v-9.09z"/><path class="st24" d="M844.23 565.45v8.1c0 .3 0 .56-.05.87-.35 3.81-3.05 7.58-8.15 10.54-10.94 6.31-28.66 6.31-39.6 0-5.04-2.95-7.73-6.72-8.09-10.54h-.1v-8.96h55.99z"/><path class="st29" d="M836.03 576.87c-10.93 6.31-28.65 6.31-39.59 0-10.93-6.31-10.93-16.54 0-22.86 10.93-6.31 28.66-6.31 39.59 0 10.94 6.32 10.94 16.55 0 22.86z"/><path class="st25" d="M786.77 539.09l-8.48.54-35.34-150.74 8.47-.54zM760.62 547.89l5.59 3.23v-25.04l-5.59-3.23z"/><path class="st32" d="M766.21 526.08l8.5-17.31v-10.5l-6.84-3.95.82 10.82-8.07 17.71z"/><g><path class="st24" d="M752.7 366.64l.75-3.9 14.98.07c.41.08.81.37 1.06.85.49.92.29 2.19-.43 2.83-.33.29-.71.4-1.07.34l-.02-.01c-.07-.01-.13-.02-.19-.04l-15.08-.14zM753.09 362.4l-4.77-5.2 17.24-8.39c.43-.25 1.13-.23 1.98.12 1.63.67 3.19 2.3 3.49 3.64.14.61-.01 1.04-.36 1.28l-.03.01c-.06.04-.13.07-.21.1l-17.34 8.44z"/><path class="st29" d="M750.35 357.52c.3 1.32 1.87 2.94 3.49 3.63 1.63.69 2.7.18 2.41-1.15-.3-1.33-1.86-2.95-3.49-3.64-1.64-.68-2.71-.17-2.41 1.16z"/><path class="st24" d="M738.3 391.86l2.88 2.97c2.42 2.49 7.86 5.27 10.98 4.77l-1.83-13.16c1.65-6.98 4-24.23 2.56-30.54 0 0-7.75-4.05-10.24-2.86l-11.92 5.61c-2.49 1.16-4.05 4.06-3.48 6.51l2.48 10.69c1.44 6.24 4.38 11.73 8.57 16.01z"/><path class="st29" d="M746.35 395.5l2.88 2.98c2.42 2.51 7.05.42 8.01-3.62l1.14-4.83c1.65-7.03 1.78-14.04.34-20.41l-2.46-10.91c-.57-2.49-3.05-3.52-5.55-2.33l-11.91 5.65c-2.49 1.16-4.05 4.09-3.49 6.55l2.47 10.78c1.44 6.29 4.38 11.83 8.57 16.14z"/><path class="st11" d="M749.58 393.97c1.05 1.08 2.98 1.04 3.34-.06.04-.11.07-.22.1-.34l1.13-4.81c1.57-6.63 1.69-13.29.35-19.24l-1.62-7.15c-.25-1.13-2-1.87-3.14-1.33l-7.32 3.46c-1.91.89-3.12 3.16-2.69 5.05l2.28 9.96c1.29 5.68 3.9 10.68 7.56 14.44l.01.02z"/><path class="st24" d="M717.08 379.1l-4.77-5.18 17.19-7.72c.43-.23 1.13-.2 1.98.16 1.62.7 3.19 2.32 3.49 3.63.13.59-.01 1.01-.36 1.24l-.03.01c-.06.04-.13.07-.2.09l-17.3 7.77z"/><path class="st29" d="M711.78 375.21c.3 1.29 1.87 2.91 3.49 3.62 1.63.72 2.7.25 2.4-1.05-.3-1.3-1.86-2.92-3.49-3.63-1.63-.7-2.71-.23-2.4 1.06z"/><g><path class="st24" d="M725.87 387.39l-3.36-3.7 8.22-8.02c.3-.16.79-.13 1.4.13 1.15.5 2.25 1.65 2.46 2.58.09.42-.01.72-.25.87l-.02.01c-.04.02-.09.04-.14.06l-8.31 8.07z"/><path class="st29" d="M722.13 384.61c.22.91 1.32 2.08 2.47 2.59 1.14.51 1.9.18 1.69-.74-.21-.92-1.31-2.08-2.46-2.59-1.15-.52-1.91-.18-1.7.74z"/></g></g><g><path class="st28" d="M838.94 527.12v37.26c0 .25 0 .46-.04.71-.29 3.17-2.53 6.3-6.75 8.75-9.09 5.24-23.78 5.24-32.87 0-4.18-2.45-6.42-5.58-6.71-8.75h-.08v-37.98h46.45z"/><path class="st24" d="M838.94 525.1v35.04c0 .25 0 .46-.04.72-.29 3.17-2.53 6.29-6.75 8.74-9.09 5.24-23.78 5.24-32.87 0-4.18-2.45-6.42-5.58-6.71-8.74h-.08V525.1h46.45z"/><path class="st26" d="M838.94 527.12v10.61c0 .25 0 2.89-.04 3.14-.29 3.17-2.53 3.87-6.75 6.32-9.09 5.24-23.78 5.24-32.87 0-4.18-2.45-6.42-5.58-6.71-8.74l-.08-11.33h46.45z"/><path class="st29" d="M832.13 536.2c-9.08 5.24-23.78 5.24-32.86 0-9.07-5.24-9.07-13.73 0-18.97 9.08-5.24 23.78-5.24 32.86 0 9.08 5.24 9.08 13.73 0 18.97z"/></g><path class="st25" d="M786.24 541.95c-1.87 1.1-4.88 1.13-6.73.07-1.84-1.07-1.82-2.82.04-3.93 1.87-1.1 4.88-1.13 6.72-.07 1.85 1.07 1.83 2.83-.03 3.93z"/><g><path class="st24" d="M753.39 574.2c-6.45-3.73-12.42-13.8-12.42-21.24 0-7.45 8.86-11.61 15.31-7.88 6.45 3.72 11.7 12.81 11.7 20.26 0 7.45-8.14 12.58-14.59 8.86z"/><path class="st59" d="M762.51 566.39c0 6.3-4.42 8.85-9.87 5.7-5.46-3.14-9.88-10.8-9.88-17.1 0-6.29 4.42-8.85 9.88-5.7 5.45 3.15 9.87 10.81 9.87 17.1z"/><path class="st29" d="M752.64 574.2c-6.45-3.73-11.7-12.82-11.7-20.26 0-7.45 5.25-10.48 11.7-6.76 6.45 3.73 11.7 12.82 11.7 20.26 0 7.45-5.25 10.48-11.7 6.76zm0-22.8c-4.44-2.57-8.06-.48-8.06 4.64 0 5.12 3.61 11.38 8.06 13.94 4.44 2.56 8.05.48 8.05-4.64 0-5.13-3.61-11.38-8.05-13.94z"/><g><path class="st29" d="M756.1 562.34c0 2.21-1.55 3.1-3.46 2s-3.47-3.79-3.47-6 1.55-3.11 3.47-2c1.91 1.11 3.46 3.79 3.46 6z"/></g></g><path class="st60" d="M771.46 351.33c.67 2.63-.61 6.39-.96 8.29-.62 3.32-12.35 3.14-12.35 3.14s-1.68-5.15-3.41-6.88c-1.73-1.73-3-1.11-3-1.11s-2.54-6.7 3-8.26c5.54-1.55 15-1.93 16.72 4.82zM713.28 367.62c1.67-3.04 1.44-6.44 12.44-6.17 3.57.09 7.78 7.44 7.78 8.84 0 1.39 1.17 5.62-1.23 5.66-2.4.04-2.33 1.07-5.06 1.78-2.73.72-3.22 1.19-4.82 1.19-1.61 0-2.28-1.11-2.28-1.11s2.44-3.73-.16-5.24c-2.6-1.5-4 0-4 0s-5.85.83-2.67-4.95z"/><path class="st23" d="M755.22 510.73l13.11-18.62s3.08-1.24 4.33 0 1.57 3.41 1.57 3.41l-13.9 19.14s-1.33 1.99-4.33.26c-2.99-1.73-.78-4.19-.78-4.19z"/></g></g></svg>