<svg id="Layer_1" xmlns="http://www.w3.org/2000/svg" viewBox="0 0 48.88 42.28"><style>.st4{fill:#ffe478}.st5{fill:#feda46}</style><path d="M8.9 35.61V24.16h4.39l1.97 7.64h.03l1.97-7.64h4.4v11.45h-2.81v-8.74h-.04l-2.56 8.74h-2.11l-2.4-8.69h-.03v8.69H8.9zM28.75 34.83c-.36.38-.78.64-1.26.79-.49.15-.98.23-1.48.23-.4 0-.77-.05-1.11-.15-.35-.1-.65-.26-.9-.47-.26-.21-.46-.47-.6-.79-.15-.32-.22-.69-.22-1.12 0-.45.08-.82.23-1.13.15-.3.36-.55.61-.74.26-.19.55-.34.88-.45.33-.11.68-.19 1.03-.26.36-.07.71-.12 1.07-.16.36-.04.7-.09 1.02-.16.24-.05.41-.13.54-.24.12-.1.18-.28.18-.54 0-.16-.04-.3-.13-.4-.09-.1-.19-.19-.32-.26s-.27-.12-.42-.15c-.15-.03-.3-.05-.44-.05-.79 0-1.24.35-1.37 1.05h-2.55c.02-.54.15-1 .39-1.36.24-.37.54-.66.91-.87.38-.21.79-.36 1.24-.45.45-.09.92-.13 1.4-.13.49 0 .98.04 1.45.11s.89.21 1.25.41c.37.2.66.49.88.85.22.36.42.84.42 1.43v5.78h-2.53l-.17-.77zm-2.85-1.61c0 .35.11.59.34.73.22.14.49.22.8.22.65 0 1.1-.19 1.35-.58.22-.35.33-.88.33-1.6 0-.09 0-.19-.01-.28-.19.12-.45.2-.77.25s-.62.11-.92.2c-.31.07-.57.19-.79.34-.22.15-.33.39-.33.72z"/><path d="M35.66 39.93H6.88a.67.67 0 0 1-.67-.67V8.77c0-.37.3-.67.67-.67h28.77c.37 0 .67.3.67.67v30.5c.01.37-.29.66-.66.66zM7.55 38.6h27.44V9.44H7.55V38.6z"/><path d="M8.89 23.11V11.66h2.98v8.88h5.34v2.57H8.89zM18.67 14.78h2.73v8.32h-2.73z"/><circle cx="20.03" cy="13.02" r="1.36"/><g><path d="M33.67 26.19c-2.88 0-5.6-1.12-7.64-3.16s-3.16-4.75-3.16-7.64 1.12-5.6 3.16-7.64 4.75-3.16 7.64-3.16c2.88 0 5.6 1.12 7.64 3.16s3.16 4.75 3.16 7.64c0 2.88-1.12 5.6-3.16 7.64a10.742 10.742 0 0 1-7.64 3.16z" fill="#5fad46"/><path d="M27.62 15.29c0-2.88 1.12-5.6 3.16-7.64 1.41-1.41 3.14-2.38 5.03-2.85-.7-.14-1.42-.21-2.15-.21-2.88 0-5.6 1.12-7.64 3.16s-3.16 4.75-3.16 7.64 1.12 5.6 3.16 7.64 4.75 3.16 7.64 3.16c.89 0 1.76-.11 2.61-.31-2.07-.41-3.96-1.43-5.49-2.95a10.766 10.766 0 0 1-3.16-7.64z" fill="#48833d"/><circle cx="33.67" cy="15.39" r="9.44" fill="#fff"/><path d="M32.95 5.98a9.44 9.44 0 0 0-8.72 9.42c0 5.11 4.06 9.27 9.12 9.44-.93-.5-1.79-1.13-2.56-1.9a10.724 10.724 0 0 1-3.16-7.64c0-2.88 1.12-5.6 3.16-7.64.65-.66 1.38-1.22 2.16-1.68z" fill="#fff5cc"/><path class="st4" d="M36.08 8.01c-.36-.38-1.18-1.05-2.41-1.05-1.22 0-2.03.64-2.38 1-.01.01-.2.26-.05.62l2.25 5.44s.2.49.4 0l2.25-5.42c.14-.34-.06-.59-.06-.59zM30.09 8.4a3.3 3.3 0 0 0-3.41 3.35c0 .02.04.33.4.48l5.44 2.26s.49.2.29-.29l-2.24-5.42c-.17-.35-.48-.38-.48-.38z"/><path class="st5" d="M27.96 12.6c.39-1.53 1.12-2.96 2.15-4.2h-.02a3.3 3.3 0 0 0-3.41 3.35c0 .02.04.33.4.48l.88.37z"/><path class="st4" d="M26.29 13.01c-.38.36-1.05 1.18-1.05 2.41 0 1.22.64 2.03 1 2.38.01.01.26.2.62.05l5.44-2.25s.49-.2 0-.4l-5.42-2.25c-.35-.14-.59.06-.59.06z"/><path class="st5" d="M27.62 15.3c0-.67.06-1.33.18-1.97l-.91-.38c-.36-.14-.6.06-.6.06-.38.36-1.05 1.18-1.05 2.41 0 1.22.64 2.03 1 2.38.01.01.26.2.62.05l.97-.4c-.13-.7-.21-1.42-.21-2.15z"/><path class="st4" d="M26.67 18.97a3.3 3.3 0 0 0 3.35 3.41c.02 0 .33-.04.48-.4l2.26-5.44s.2-.49-.29-.29l-5.42 2.24c-.34.17-.38.48-.38.48z"/><path class="st5" d="M30.03 22.39c.01 0 .09-.01.19-.07a10.71 10.71 0 0 1-2.23-4.21l-.94.39c-.35.16-.39.47-.39.47a3.3 3.3 0 0 0 .96 2.44c.88.87 1.9.99 2.41.98z"/><g><path class="st4" d="M31.28 22.77c.36.38 1.18 1.05 2.41 1.05 1.22 0 2.03-.64 2.38-1 .01-.01.2-.26.05-.62l-2.25-5.44s-.2-.49-.4 0l-2.25 5.42c-.14.35.06.59.06.59zM37.25 22.39a3.3 3.3 0 0 0 3.41-3.35c0-.02-.04-.33-.4-.48l-5.44-2.26s-.49-.2-.29.29L36.78 22c.16.36.47.39.47.39zM41.05 17.8c.38-.36 1.05-1.18 1.05-2.41 0-1.22-.64-2.03-1-2.38-.01-.01-.26-.2-.62-.05l-5.44 2.25s-.49.2 0 .4l5.42 2.25c.34.13.59-.06.59-.06zM40.67 11.81a3.3 3.3 0 0 0-3.35-3.41c-.02 0-.33.04-.48.4l-2.26 5.44s-.2.49.29.29l5.42-2.24c.34-.16.38-.48.38-.48z"/></g></g></svg>