<svg xmlns="http://www.w3.org/2000/svg" xmlns:xlink="http://www.w3.org/1999/xlink" viewBox="0 0 1279.35 485.58"><defs><linearGradient id="a" x1="423.48" y1="233.21" x2="396.21" y2="280.45" gradientTransform="matrix(-1 0 0 1 1434.87 -142.42)" gradientUnits="userSpaceOnUse"><stop offset="0" stop-color="#fefcf7"/><stop offset="1" stop-color="#efd9fa"/></linearGradient><linearGradient id="b" x1="423.8" y1="266.05" x2="395.89" y2="314.4" xlink:href="#a"/><linearGradient id="c" x1="380.26" y1="258.17" x2="352.97" y2="305.43" xlink:href="#a"/><linearGradient id="d" x1="380.58" y1="291.02" x2="352.66" y2="339.37" xlink:href="#a"/><linearGradient id="e" x1="423.71" y1="158.01" x2="396.43" y2="205.26" xlink:href="#a"/><linearGradient id="f" x1="424.03" y1="190.86" x2="396.12" y2="239.2" xlink:href="#a"/><linearGradient id="g" x1="380.54" y1="182.77" x2="353.13" y2="230.24" xlink:href="#a"/><linearGradient id="h" x1="380.44" y1="215.74" x2="352.5" y2="264.12" xlink:href="#a"/><linearGradient id="j" x1="657.66" y1="274.55" x2="661.21" y2="300.45" gradientTransform="matrix(-1 0 0 1 1212.21 0)" gradientUnits="userSpaceOnUse"><stop offset="0" stop-color="#fff"/><stop offset=".15" stop-color="#c7ccce"/><stop offset=".31" stop-color="#8f9a9e"/><stop offset=".48" stop-color="#607075"/><stop offset=".63" stop-color="#3c4f56"/><stop offset=".77" stop-color="#22383f"/><stop offset=".9" stop-color="#122a32"/><stop offset="1" stop-color="#0d252d"/></linearGradient><linearGradient id="k" x1="272.77" y1="307.17" x2="245.5" y2="354.41" xlink:href="#a"/><linearGradient id="l" x1="273.09" y1="340.01" x2="245.18" y2="388.36" xlink:href="#a"/><linearGradient id="m" x1="229.55" y1="332.13" x2="202.26" y2="379.39" xlink:href="#a"/><linearGradient id="n" x1="229.87" y1="364.98" x2="201.95" y2="413.33" xlink:href="#a"/><linearGradient id="o" x1="273" y1="231.97" x2="245.73" y2="279.22" xlink:href="#a"/><linearGradient id="p" x1="273.32" y1="264.82" x2="245.41" y2="313.16" xlink:href="#a"/><linearGradient id="q" x1="229.83" y1="256.73" x2="202.43" y2="304.2" xlink:href="#a"/><linearGradient id="r" x1="229.73" y1="289.69" x2="201.8" y2="338.08" xlink:href="#a"/><clipPath id="i" transform="translate(1 -142.42)"><path d="M826.7 411.09v-36.56h56.54v33.34c0 .53-.51 1.14-1.36 1.63l-26.19 14.73a9.91 9.91 0 01-8.86 0l-19-11c-.85-.49-1.36-1.1-1.36-1.63a1.09 1.09 0 01.23-.51z" fill="none"/></clipPath></defs><g data-name="Layer 2"><g opacity=".6"><path fill="#fff" d="M1043.43 141.02l-3.73-1.98-33.08-19.11v-5.74l3.73 1.98 33.08 19.11v5.74zM1043.43 175.15l-3.73-1.99-33.08-19.11v-5.74l3.73 1.99 33.08 19.1v5.75zM1086.67 200.12l-3.73-1.98-33.1-19.13v-5.74l3.73 1.99 33.1 19.12v5.74zM1086.67 166l-3.73-1.99-33.1-19.12v-5.74l3.73 1.98 33.1 19.13V166z"/><path fill="#fbfbff" d="M1040.94 136.88l-31.83-18.39V92.1l-2.06-1.18v28.76l33.89 19.57v-2.37zM1040.94 171.01l-31.83-18.39v-27.85l-2.06-1.19v30.22l33.89 19.58v-2.37z"/><path fill="url(#a)" d="M1040.94 136.72v-26.23l-31.83-18.39v26.22l31.83 18.4z"/><path fill="url(#b)" d="M1040.94 170.84v-27.68l-31.83-18.39v27.68l31.83 18.39z"/><path fill="#fbfbff" d="M1084.18 161.86l-31.86-18.4v-26.39l-2.05-1.19v28.76l33.91 19.59v-2.37zM1084.18 195.98l-31.86-18.4v-27.85l-2.05-1.19v30.23l33.91 19.58v-2.37z"/><path fill="url(#c)" d="M1084.18 161.69v-26.22l-31.86-18.4v26.22l31.86 18.4z"/><path fill="url(#d)" d="M1084.18 195.82v-27.69l-31.86-18.4v27.68l31.86 18.41z"/><path d="M1087.89 133.8v70.1l-41.06-23.71V110.1l-2.46-1.42v70.08l-41-23.71V84.96l-5.58-3.28-.34 75.72 96.13 55v-75.37z" fill="#fffefc"/><path d="M1044.37 108.68l-41.06-23.72v70.08l41.06 23.72zm-37.32-17.76l2.06 1.18 31.83 18.4v28.76l-33.89-19.58zm0 32.66l2.06 1.19 31.83 18.39v30.22l-33.89-19.58zM1087.9 133.81l-41.06-23.71v70.08l41.06 23.72zm-37.63-17.93l2 1.19 31.86 18.4v28.76l-33.91-19.59zm0 32.67l2 1.18 31.86 18.41v30.22l-33.91-19.59z" fill="#f7ecfd"/><path fill="#fbfbff" d="M1093.51 137.03v75.36l2.05-1.18v-75.46l-2.05 1.28z"/></g><g opacity=".6"><path fill="#fff" d="M1043.2 65.83l-3.73-1.99-33.08-19.11v-5.74l3.73 1.99 33.08 19.11v5.74zM1043.2 99.95l-3.73-1.98-33.08-19.11v-5.75l3.73 1.99 33.08 19.11v5.74zM1086.44 124.93l-3.73-1.99-33.1-19.12v-5.74l3.73 1.98 33.1 19.13v5.74zM1086.44 90.8l-3.73-1.98-33.1-19.12v-5.75l3.73 1.99 33.1 19.12v5.74z"/><path fill="#fbfbff" d="M1040.71 61.69l-31.83-18.39V16.91l-2.06-1.19v28.76l33.89 19.58v-2.37zM1040.71 95.81l-31.83-18.39V49.57l-2.06-1.18v30.22l33.89 19.57v-2.37z"/><path fill="url(#e)" d="M1040.71 61.52V35.3l-31.83-18.39v26.22l31.83 18.39z"/><path fill="url(#f)" d="M1040.71 95.64V67.96l-31.83-18.39v27.68l31.83 18.39z"/><path fill="#fbfbff" d="M1084.02 86.66l-31.92-18.4V41.64l-2.06-1.07v28.88l33.98 19.53v-2.32zM1084.36 120.72l-31.93-18.41V74.47l-2.05-1.19v30.22l33.91 19.59.07-2.37z"/><path fill="url(#g)" d="M1084.02 86.5V60.16l-31.92-18.52v26.45l31.92 18.41z"/><path fill="url(#h)" d="M1084.36 120.55V92.87l-31.93-18.4v27.68l31.93 18.4z"/><path d="M997.73 1.07v80.61l5.58 3.28 41.06 23.72 2.46 1.42 41.06 23.73 5.62 3.2V56.4zm5.47 76.3V9.64l41 23.71v67.73zm43.63 25.14V34.78l41.06 23.71v67.76z" fill="#fffefc"/><path d="M1044.25 33.47l-41-23.71v70.08l41 23.72zm-37.43-17.75l2.06 1.19 31.84 18.39v28.76l-33.9-19.58zm0 32.67l2.06 1.18 31.84 18.4v30.22l-33.9-19.61zM1087.9 58.5l-41.06-23.72v70.09l41.06 23.71zM1050 40.58l2.06 1.07L1084 60.16v28.82l-34-19.53zm.23 32.67l2 1.18 31.7 18.41.16 30.22-33.91-19.59zM1093.28 56.51l2.05-1.18L999.55 0l-2.05 1.19 95.78 55.32z" fill="#f7ecfd"/><path fill="#fbfbff" d="M1093.51 56.4v80.63l2.05-1.13V55.21l-2.05 1.19z"/></g><path fill="none" d="M0 58.91h1279.35v426.67H0z"/><path d="M1109.36 375.39c26.08-3.59 43.9-4.78 51-10.12s22-1.2 22-1.2l95.53 41.42v79.24h-187.7s-42-11.37-12.84-33.3 49.82-30 21.41-35.26-15.47-37.19 10.6-40.78z" style="mix-blend-mode:multiply" fill="#f3f3ff"/><path style="mix-blend-mode:multiply" fill="#a285c6" opacity=".15" d="M931.04 423.64l22.14 12.79 28.28-14.2-25.78-15.58-24.64 16.99zM854.43 383.12c-14.51 8.39-38 8.39-52.57 0s-14.51-22 0-30.37 38.06-8.38 52.57 0 14.57 21.98 0 30.37zM1048.21 391.65c-14.52 8.39-38.06 8.39-52.57 0s-14.52-22 0-30.37 38.05-8.38 52.57 0 14.52 21.99 0 30.37zM640.61 331.08l-43.13 25.63-59.3-35.58-30.79 17.12-59.7-35.5 130.69-72.64 59.7 35.5-55.32 30.74 57.85 34.73z"/><path d="M822.12 187.58s-.8-.2-1.64-1.88-4.45-4.43-8-3.59-7.48 5.47-6.91 11.68 2.73 12.73 1.7 12.73-.45 1.71 2.52 0-1.31-9.72 5.78-14.08 7.09-4.83 7.09-4.83z"/><path d="M863.83 256.98l7.26.25s1.33 1 1 3.77-.53 4.71-2 5.34-6.89-4.92-6.89-4.92l.41-4.9z" fill="#d2e1f7"/><path d="M835 216.26c-8-.77 4.1 16.05 6 21.69s.95 4.76 2.84 10.4 8.53 6.74 13.84 10a70.09 70.09 0 0012.62 5.63l4-4.64s-10.09-1.06-13.15-5.48c-3.54-5.1-10.89-6.35-10.89-6.35s-6.16-19.47-7.25-22.12c-1.96-4.54-3.37-8.68-8.01-9.13z" fill="#fff1d9"/><path d="M866.72 261.36a7.25 7.25 0 013.59-4.26c2.68-1.16 6 .55 6 .55s2 2.52-.4 6.47c-.41.69-5.82.91-7.23.3-.46-.22-1.96-3.06-1.96-3.06z" fill="#fff1d9"/><path d="M869.68 256.69V255l6.77 2.82 1.8 2.35.79 3.29s-1.41.27-1.72-.83-.59-2-.59-2l-1.29-1.29-3.45-.86z" fill="#fff1d9"/><path d="M875.32 260.77l.18.06 4.29 1.45 1.86 2.62.73 3.6s-1.54.24-1.83-1-.57-2.18-.57-2.18l-1.35-1.45-3.72-1.06z" fill="#fff1d9"/><path d="M874.63 262.74h.15l3.62.92 1.7 2 .83 2.92s-1.25.29-1.57-.68-.61-1.76-.61-1.76l-1.2-1.11-3.13-.64z" fill="#fff1d9"/><path d="M874.81 263.93h.11l2.5.76 1.12 1.47.5 2.06s-.89.17-1.08-.52-.37-1.25-.37-1.25l-.81-.81-3.28-.68z" fill="#fff1d9"/><path d="M832 216.31s6.87-4.93 11.49 7.31 8.36 23.58 8.36 23.58a25.83 25.83 0 0111.42 4.76c5.78 4.19 7.39 5.47 7.39 5.47s-3.26-.74-3.6 3.11c-.24 2.7 2.16 5.68 2.16 5.68s-22-6.95-26.07-13.65S824 222.02 832 216.31z" fill="#a599ff"/><path d="M816.7 215.39a33.2 33.2 0 01-8.47 5.74c-5.52 2.61-6.42 2.59-5.47 13.12s9.7 20.35 9.7 27.6c0 1.44-3.14 6.8-5.05 9.94S806 288.32 806 288.32s-4 1.41 8.61-1.59 33.71-8.32 27.18-19.68c-1.81-3.15-4.6-4.47-3.78-8.84s4.32-14 .5-20.12c-5.61-9-.38-22.57-4.64-25s-7.49 1.37-10.58 2.33a13.78 13.78 0 01-6.59-.03z" fill="#ff9e6e"/><path d="M832.3 239.47a6.83 6.83 0 1013.66 0c0-3.77-6-9.6-6-9.6s-7.66 5.83-7.66 9.6zM817.38 243.95c0 6.7 5.31 11.14 9.08 11.14a6.84 6.84 0 000-13.67c-3.77 0-9.08-1.24-9.08 2.53z" fill="#feb30f"/><path d="M823.8 277.02c1.64-5.24 17.62-8.61 17.62-8.61s3 2.25 4.37 18-2 36.19-4.64 38.86-4.24 15.31-4.24 21 .69 10.91 2.87 13.75 5.65 6.76 6.42 7.53.81 5.75-.68 6.61-7.66-2.7-9.56-4.6-4.82-7.54-6.46-7.54.31-4.32.31-8.43-4.24-14.91-3.08-20.1 2.67-5.34 3.22-12.13-1.57-32.58-1.57-32.58z" fill="#f4debe"/><path d="M820.93 365.17a34 34 0 005.6 8.48c3.21 3.21 4.77 6.48 3.39 7.27-2.87 1.66-1.12 1-4.81 1s-7.32-4.08-8.41-6.27a19.08 19.08 0 00-3.74-4.22 4.16 4.16 0 01-1.08-4.45 15.81 15.81 0 001-4.89 26.46 26.46 0 00-1.33-11.09c-1.91-5.3-4.23-14 .73-26.81 3.55-9.15-9.29-34.4-6.29-39.75s24.17-17.35 23.36-3.69c0 0-1.37 40.23-4.51 46.93s-3.36 10.05-3.63 13.74-.28 23.75-.28 23.75z" fill="#fff1d9"/><path d="M811.57 368.05a19.08 19.08 0 00-.48 3.38 5.87 5.87 0 00.79 2.63l2.08 1.2.58-.35s5.32 7 8 8 7.08 2.12 9.78.57-.95-4.68-1.55-5-8.55-.51-8.55-.51zM828 358.58a19.08 19.08 0 00-.48 3.38 5.87 5.87 0 00.79 2.63l2.08 1.2.58-.35s4.5 6.2 6.95 7.62 7.18 2.73 9.87 1.17-.63-5.2-1.23-5.54-8-.17-8-.17z" fill="#506589"/><path d="M827.58 374.76s1.31 1.33-1.46 2.31c-5.39 1.91-11.28-7.66-12.6-10.15a13 13 0 01-1.06-2.31 6.93 6.93 0 00-1.19 5.49c.75 3 2.71 3.19 4.81 6.15 2.54 3.58 6.66 8.14 14.4 7.12 4-.53.82-4.46-.12-5.4s-2.78-3.21-2.78-3.21zM843.32 364.31s2.37 3-.5 3.63-10.05-5.61-11.37-8.09c-.92-1.75-1.8-3.86-1.8-3.86s-2.74 2.68-2 5.7 2.71 1.76 4.81 4.72c2.54 3.58 6 8.76 13.73 7.73 4-.53 2.87-3-.31-6.93-.83-1.04-2.56-2.9-2.56-2.9z" fill="#a599ff"/><path d="M841 261.58c.91 2.89-2.43 4.86-8 8-7.39 4.27-14.29 5.42-18.87 2.77-2.41-1.39-5.18-2.75-4.07-5.14 0 0-4.08 5.44-5.43 10.26-1.15 4.1.68 44.87 1.34 48.35 0 0 4.33 15.37 19.12 10.67s17.21-7.71 18.68-11.06 4-51.75-.61-58c-2.7-3.66-2.16-5.85-2.16-5.85z" fill="#feb516"/><path d="M833.29 237.38s-9.23-7.67-14.3-12.34-4.07-7.95-4.07-7.95L803 222.77s-1.81 10.59.88 17 9.8 20.3 6.44 23.66-8.78 21.74-8.78 33.4 4.4 30.53 4.4 30.53 3.2 12 11.41 10.6 20.08-5.27 20.08-5.27 0-53.38-2.2-60.07-1.94-35.24-1.94-35.24z" fill="#716fe2"/><path d="M831.93 225.04c1.44 3.05 1.33 13.43 1.33 13.43s-3.08 23.35-.81 27.56 4.22 67.47 4.22 67.47 9.28-6.34 11.46-8.52-.29-54.46-6.82-61c-5.11-5.11.28-15.78 1.81-17.31s7.24-6.11-1.09-15.66c-4.77-5.47-3.2-16.61-8.12-18s-7.89 4.93-7.89 4.93 4.98 5.21 5.91 7.1z" fill="#716fe2"/><path d="M836.67 223.58l-3.41-1 3.41-1.57-9.88-8.09-4.51 2.61s5.19 1.07 8.32 7.63 2.66 15.36 2.66 15.36z" fill="#a599ff"/><path d="M831.93 215.83s-3.69 5.13-3.69 6.66 1.43 1.85.72 4-8.23.5-11.65-4.16-2.39-5.24-2.39-5.24 2.56-3.62 2.56-6.9 14.45 5.64 14.45 5.64z" fill="#f4debe"/><path d="M809.59 199a12.71 12.71 0 0124.25-5.35s2.32 4.16 2.32 6.35-.95 1.15-.47 3.24 1.9 3 .09 6.67-2.33 6.69-2.7 7.05.41 1.72-5.78.58a24.37 24.37 0 01-12.38-6.1 15.19 15.19 0 01-2.51-4.45 12.68 12.68 0 01-2.82-7.99z" fill="#fff1d9"/><path d="M834.47 238.47l-18.89-11 2.42-3.19-3.9 2.22s-4.2-5.22-3-8.07 4.49-5.58 4.49-5.58a19.82 19.82 0 001.44 5.12c5.25 12.28 17.44 20.5 17.44 20.5z" fill="#a599ff"/><path d="M828.54 189.58c0 .83 3.25 4.86-1.1 7.37s-4 1.34-5.64 3.92-.8 9-.8 9-2.23-7-5.11-5.25.87 8.92.87 8.92-9.16-6-8-14.4 2.85-9.74 6-11.57 11.58-4.52 16.61.51c5.92 5.93 3.87 9.22 3.87 9.22z" fill="#253538"/><path d="M817 203.58c0-.07-1-2.18-2-1.5a3.48 3.48 0 00-1.26 3.69c.34 1.74 1.26 3.86 2.44 3.83s1.55.13 2.18-.79a2.39 2.39 0 00.24-2z" fill="#ffeae1"/><path d="M817.43 203.72c0-.07-1-2.18-2-1.5a3.46 3.46 0 00-1.25 3.69c.33 1.74 1.25 3.87 2.43 3.83s1.55.13 2.18-.79a2.34 2.34 0 00.24-2z" fill="#fff1d9"/><path d="M816.51 204.26s-.36 1-.49 1.5a2.18 2.18 0 000 1.55 5.43 5.43 0 00.48.6 15.53 15.53 0 01.07-2.52 2.46 2.46 0 00-.12-1.81c-.31-.5-.57-1.15-1-.55a3 3 0 00-.71 2.37 5.12 5.12 0 001 2.75 3.62 3.62 0 001.19.72 2.89 2.89 0 01-1.63-1.8c-.28-1.25-.42-3.19 0-3.52s.43-.41.47.06-.2 1.18.13.94.36-.89.57-.62.04.33.04.33z" fill="#e5ac7f"/><path d="M816.81 206.34s.15-1 .36-1 .26 0 .41.37.16.48.48.37.54-.38.27.09-.36 0-.82.31-.29.76-.61.8-.15-.67 0-.87z" fill="#e5ac7f"/><path d="M884.94 270.49l-3.54 30.95v.14a2.84 2.84 0 01-1.7 2.36l-23.59 13.23a8.12 8.12 0 01-3.4.94 8.77 8.77 0 01-4.83-.94L833 308.58a3.26 3.26 0 01-1.62-1.79l-.08-.7-3.55-31.35 25 2z" fill="#322671"/><path d="M884.94 270.49l-3.54 30.95v.14a2.84 2.84 0 01-1.7 2.36l-23.59 13.23a8.12 8.12 0 01-3.4.94v-41.44z" fill="#3d2d9d"/><path d="M847.49 288.03l-19-11c-2.88-1.66-3.71-8.05-.82-9.71l27-11a11.5 11.5 0 0110.44 0l20.69 7.71c2.89 1.66 1.16 7.61-1.72 9.27l-26.2 14.74a11.5 11.5 0 01-10.39-.01z" fill="#765ded"/><path d="M852.25 283.66a9.8 9.8 0 004.83-1.15l26.2-14.74a2.41 2.41 0 000-4.64l-19-11a10.76 10.76 0 00-9.64 0l-26.2 14.74a2.42 2.42 0 000 4.65l19 10.95a9.79 9.79 0 004.81 1.19z" fill="#3d2d9d"/><path d="M828.86 270.86c-.85-.49-1.36-1.1-1.36-1.63s.51-1.13 1.36-1.63l26.19-14.73a9.18 9.18 0 014.43-1 9.08 9.08 0 014.42 1l19 10.95c.85.5 1.36 1.11 1.36 1.63s-.51 1.14-1.36 1.63l-26.19 14.73a9.91 9.91 0 01-8.86 0z" fill="#3d2d9d"/><path d="M828.06 272.25l19 11a11.5 11.5 0 0010.43 0l26.2-14.74c2.89-1.67 2.89-4.37 0-6l-19-11a11.52 11.52 0 00-10.44 0l-26.2 14.74c-2.87 1.63-2.87 4.33.01 6zm24.2 10.61a9.12 9.12 0 01-4.43-1l-19-11c-.85-.49-1.36-1.1-1.36-1.63s.51-1.13 1.36-1.63l26.19-14.73a9.18 9.18 0 014.43-1 9.08 9.08 0 014.42 1l19 10.95c.85.5 1.36 1.11 1.36 1.63s-.51 1.14-1.36 1.63l-26.19 14.73a9.07 9.07 0 01-4.42 1.05z" fill="#cbc7ff"/><g clip-path="url(#i)"><path d="M870.8 271.63l3.06 6.37c.93.54 4.85-2.5 4.95-3.37l.76-7.32c0-3.19-6.09-9.62-6.09-9.62-1.64-2-3-4-3.94-2.87l-.17.06c-.79.29-1.24 2.84-1.23 3.93l.85 10a3.79 3.79 0 001.81 2.83z" fill="#cbc7ff"/><path d="M867.9 258.1l1.62.94c2.2 1.26 4 .53 4-1.64v-5.77l-3.81-2.2z" fill="#aadce6"/><path d="M865.58 259.44l1.82 12.35c2.2 1.26 3.78-10.88 3.78-13v-5.77l-3.81-2.2z" fill="#a599ff"/><path fill="#ff9764" d="M871.6 253.39l2.32-1.34v-1.31l-2.32 1.34v1.31z"/><path fill="#ee844c" d="M866.93 250.7l4.67 2.69v-1.31l-4.67-2.69v1.31zM877.83 257.58c.21.17.25 0 .12-.36-1.25-2.9-.53-4.36-2.13-6.88-5.83-4-2.9.52-3.69.23 2.58-.47 4.56 7.6 4.56 7.6a7.18 7.18 0 001.13-.6z"/><path d="M876.69 258.15c.21.17.25 0 .12-.36-1.26-2.89-.53-4.35-2.13-6.87-5.84-4-2.9.51-3.69.23 2.57-.48 3.17 2.84 4.83 5.92a7.71 7.71 0 00.86 1.08z" fill="#ff9764"/><path d="M869.93 248.77l4.36 2.64a8.24 8.24 0 012.32-1.34c-.09-.44-.12-2-.21-2.47l-8.85-3.93a10 10 0 012.38 5.1z" fill="#3d2d9d"/><path d="M866.75 274.42l6.2 3.58c.93.54 1.71.29 1.8-.57l.77-7.32c0-3.2-4.35-11.15-4.35-11.15-1.64-2-4.95-2.19-4.95-2.19-1.65.79-2.14 3.74-2.13 4.83l.85 10a3.76 3.76 0 001.81 2.83z" fill="#a599ff"/><path d="M873 276.43c.12.06.21 0 .22-.07l.76-7.24c-.07-1.66-2.79-6.06-4.72-8.66a4.6 4.6 0 00-1-.77 2 2 0 00-1.65-.3l-.14.05a6.23 6.23 0 00-.76 3l.85 10v.06a.47.47 0 00.22.35z" fill="#fde58d"/><path d="M866.75 273.25a1.35 1.35 0 01-.63-1l-.85-10a6.41 6.41 0 01.84-3.2l.19-.08a2.38 2.38 0 011.93.35 5.6 5.6 0 011.15.91l.08.1c1.85 2.49 4.8 7.15 4.88 9.05l-.76 7.26c0 .3-.3.39-.63.2l-6.2-3.58zm6.78-4.37c-.09-1.39-2.4-5.31-4.53-8.19a2.3 2.3 0 00-2.14-.85h-.11a6.51 6.51 0 00-.67 2.77l.84 9.9 5.87 3.38z" fill="#e79572"/><path fill="#ff864a" d="M865.23 245.01l8.85 5.1v-1.17l-7.86-4.54-.99.61z"/><path d="M867.61 250.11l2.59 1.5a11.18 11.18 0 004.09-.2c-.09-.44 0-.81-.15-1.25l-8.91-5.15a10.09 10.09 0 012.38 5.1z" fill="#ffc4a7"/><path fill="#ff884d" d="M866.22 244.4l7.86 4.54 2.32-1.34-7.86-4.54-2.32 1.34zM874.65 250.04a1.87 1.87 0 01.84-1.46.57.57 0 01.65 0l1.57 1.18-.51.8-.54.77-1.6-.67a.4.4 0 01-.21-.09.66.66 0 01-.2-.53z"/><path d="M876.53 250.93c0 .43.3.61.67.39a1.47 1.47 0 00.68-1.17c0-.42-.3-.6-.68-.38a1.47 1.47 0 00-.67 1.16z" fill="#ffc4a7"/><path d="M840.42 279.25l-3.06 6.33c-.93.54-4.86-2.5-5-3.36l-.76-7.32c0-3.19 6.08-9.63 6.08-9.63 1.65-2 3-4 3.95-2.86l.17.06c.79.29 1.24 2.84 1.23 3.92l-.85 10a3.77 3.77 0 01-1.81 2.83z" fill="#ee844c"/><path d="M843.32 265.73l-1.62.93c-2.2 1.27-4 .54-4-1.63v-5.77l3.81-2.2z" fill="#aadce6"/><path d="M845.64 267.07l-1.82 12.34c-2.2 1.27-3.78-10.87-3.78-13v-5.83l3.81-2.2z" fill="#a599ff"/><path fill="#ff9764" d="M839.62 261.01l-2.32-1.34v-1.3l2.32 1.34v1.3z"/><path fill="#ee844c" d="M844.28 258.32l-4.66 2.69v-1.3l4.66-2.69v1.3zM833.39 265.18c-.22.17-.25 0-.12-.36 1.25-2.89.53-4.35 2.13-6.87 5.83-4 2.9.51 3.69.23-2.58-.48-4.56 7.6-4.56 7.6a7.18 7.18 0 01-1.13-.6z"/><path d="M834.53 265.77c-.21.17-.25 0-.12-.36 1.25-2.9.53-4.36 2.13-6.88 5.84-4 2.9.52 3.69.23-2.58-.47-3.17 2.85-4.83 5.93a7.92 7.92 0 01-.86 1.07z" fill="#ff9764"/><path d="M841.29 256.39l-4.36 2.65a8.41 8.41 0 00-2.32-1.34c.09-.44.12-2 .21-2.48l8.85-3.93a10 10 0 00-2.38 5.1z" fill="#3d2d9d"/><path d="M844.47 282.04l-6.2 3.59c-.93.53-1.71.29-1.81-.58l-.76-7.32c0-3.19 4.35-11.15 4.35-11.15 1.64-2 5-2.18 5-2.18 1.65.79 2.14 3.74 2.13 4.82l-.85 10a3.75 3.75 0 01-1.81 2.82z" fill="#a599ff"/><path d="M838.27 284.05c-.12.07-.21 0-.22-.07l-.76-7.23c.07-1.67 2.79-6.06 4.72-8.67a4.37 4.37 0 011-.77 2 2 0 011.65-.3l.14.05a6.39 6.39 0 01.76 3l-.85 10v.07a.45.45 0 01-.22.34z" fill="#fde58d"/><path d="M844.47 280.87a1.33 1.33 0 00.63-1l.86-10a6.35 6.35 0 00-.84-3.2l-.19-.08a2.34 2.34 0 00-1.93.35 5.6 5.6 0 00-1.15.91l-.08.09c-1.85 2.5-4.8 7.16-4.88 9.06l.76 7.27c0 .3.3.38.63.19l6.2-3.58zm-6.78-4.37c.09-1.39 2.4-5.3 4.53-8.19a2.35 2.35 0 012.14-.85l.11.05a6.56 6.56 0 01.67 2.76l-.84 9.9-5.87 3.41z" fill="#e79572"/><path fill="#ff864a" d="M845.99 252.63l-8.85 5.11v-1.18l7.86-4.54.99.61z"/><path d="M843.61 257.73l-2.59 1.5a11 11 0 01-4.09-.19c.09-.44.05-.82.15-1.26l8.91-5.15a10 10 0 00-2.38 5.1z" fill="#ffc4a7"/><path fill="#ff884d" d="M845 252.02l-7.86 4.54-2.32-1.34 7.86-4.54 2.32 1.34zM836.57 257.67a1.89 1.89 0 00-.84-1.47.55.55 0 00-.65 0l-1.57 1.19.51.8.54.77 1.6-.68a.49.49 0 00.21-.08.63.63 0 00.2-.53z"/><path d="M834.69 258.58c0 .43-.3.6-.67.39a1.49 1.49 0 01-.68-1.17c0-.43.3-.6.68-.39a1.5 1.5 0 01.67 1.17z" fill="#ffc4a7"/><path d="M858.24 278.03v.14a.66.66 0 010-.14z" fill="#322671"/><path d="M858.51 266.06v12a.66.66 0 000 .14 2.36 2.36 0 001.32 1.71 7.14 7.14 0 006.43 0 2.32 2.32 0 001.31-1.71v-12.14z" fill="#fe76a9"/><path d="M858.51 265.78a3.7 3.7 0 012.3-3l.51.79a8.16 8.16 0 011.86-.2v-.07l2.16-.52s1.93 1.63 2.16 2.66c.3.84-.1 1.75-1.23 2.4a7.14 7.14 0 01-6.43 0 2.18 2.18 0 01-1.31-2s-.02-.03-.02-.06z" fill="#ff8aba"/><path d="M861.28 264.38a3.9 3.9 0 003.55 0 1.08 1.08 0 000-2.05 4 4 0 00-3.55 0 1.09 1.09 0 000 2.05z" fill="#ffce83"/><path d="M861.46 261.3v1.74a.86.86 0 00.48.63 2.61 2.61 0 002.34 0 .87.87 0 00.47-.63v-1.74z" fill="#e6e6ff"/><path d="M861.94 261.94a2.61 2.61 0 002.34 0 .71.71 0 000-1.35 2.61 2.61 0 00-2.34 0 .71.71 0 000 1.35z" fill="#dddcf9"/><path d="M846.66 282.96v.2a1.34 1.34 0 010-.2z" fill="#322671"/><path d="M847.05 265.85v17.11a1.34 1.34 0 000 .2 3.34 3.34 0 001.95 2.42 10.13 10.13 0 009.19 0 3.35 3.35 0 001.88-2.45v-17.28z" fill="#fdde2d"/><path d="M847.05 265.45a5.31 5.31 0 013.28-4.32l.74 1.14a11 11 0 012.65-.28v-.11l3.1-.75s2.76 2.34 3.08 3.81c.44 1.2-.14 2.5-1.76 3.43a10.13 10.13 0 01-9.19 0 3.1 3.1 0 01-1.87-2.84s-.08-.05-.03-.08z" fill="#fde58d"/><ellipse cx="853.55" cy="261.98" rx="3.59" ry="2.07" fill="#a599ff"/><path d="M851.26 259.03v2.43a.15.15 0 000 .07 1.2 1.2 0 00.68.89 3.71 3.71 0 003.34 0 1.24 1.24 0 00.72-.84v-2.5z" fill="#ff3830"/><ellipse cx="853.62" cy="258.99" rx="2.36" ry="1.36" fill="#ff884d"/></g><path d="M820.15 278.45s1.79 5.53 3.14 5 3.13-.12 4.59-5c.39-1.27.12-7-4.23-5.35s-3.5 5.35-3.5 5.35z" fill="#d9e6f9"/><path d="M835.36 285.1a9.1 9.1 0 00-1.59 1.44c-.58.72-2.26.45-2.26.45l-2.32-.75-2.77-2.9 2-.43z" fill="#fff1d9"/><path d="M837 284.76a9.73 9.73 0 00-1.59 1.43c-.58.73-2.26.46-2.26.46l-2.32-.75-2.22-1.61 1.39-1.71z" fill="#fff1d9"/><path d="M838.75 283.8a9.31 9.31 0 00-1.59 1.43c-.59.73-2.26.46-2.26.46l-2.32-.75-2.22-1.61 1.39-1.72zM810.27 226.03c-1.35-1.42-4.95-6.43-8.25-1.87s-2.32 12.16-.19 17.71 2.24 11.94 4.37 17.49 4.52 6.59 8.37 11.48a121.42 121.42 0 009.43 10.21l5.83-3.54s-9.79-5.65-11.13-10.86a26.32 26.32 0 00-5.45-10.22s.14-14.58-.07-17.44c-.41-4.88.33-9.56-2.91-12.96z" fill="#fff1d9"/><path d="M824.57 276.58a4.78 4.78 0 014.39 0 10.57 10.57 0 014.13 3.71s-3 4.75-3.29 5.46-7.31-5.77-7.1-6.23 1.87-2.94 1.87-2.94z" fill="#fff1d9"/><path d="M825.69 276.14a17.16 17.16 0 015.63-.53c2.28.36 4.25 2.42 5.67 1.88s.57 1.57-.38 1.93-4.39-.72-4.73 0-6.19-3.28-6.19-3.28zM831.68 281.68l.15.11 3.49 2.6 2.76 1.35 2.66-1.11s-1.34-2.15-2.45-1.72-.44 0-.44 0l-1.85-1.33-2.87-1.38z" fill="#fff1d9"/><path d="M805.06 220.58s-3 .5-5.5 4.24 1.71 29.72 4.71 37.54 19 21.12 19 21.12-3.78-4.75-1.12-8 4.32-2.2 4.32-2.2-8.33-12.12-10.13-18.68.27-16.93-2.66-24.56-4.29-10.24-8.62-9.46z" fill="#a599ff"/><path fill="#3d2d9d" d="M503.55 336.98l6.37 3.68v-85.65l-6.37-3.68v85.65z"/><path fill="#765ded" d="M509.92 340.66l6.37-3.68v-85.65l-6.37 3.68v85.65z"/><path fill="#3d2d9d" d="M460.79 311.29l6.36 3.68v-85.65l-6.36-3.68v85.65z"/><path fill="#765ded" d="M467.15 314.97l6.37-3.68v-85.65l-6.37 3.68v85.65z"/><path fill="#3d2d9d" d="M615.23 272.26l6.37 3.68v-85.66l-6.37-3.68v85.66z"/><path fill="#765ded" d="M621.6 275.94l6.37-3.68V186.6l-6.37 3.68v85.66z"/><path fill="#3d2d9d" d="M572.46 246.56l6.37 3.68v-85.65l-6.37-3.68v85.65z"/><path fill="#765ded" d="M578.83 250.24l6.37-3.68v-85.65l-6.37 3.68v85.65z"/><path fill="#3d2d9d" d="M512.11 268.87l131.58-79.5v-5.81l-197.05 40.59v5.81l65.47 38.91z"/><path fill="#765ded" d="M512.11 263.06l131.58-79.5-65.46-38.9-131.59 79.49 65.47 38.91z"/><path d="M610.13 254.36h3.78v1.07a.89.89 0 01-.55.88 3 3 0 01-2.67 0 .9.9 0 01-.54-.88z" fill="#4b6a70"/><path d="M610.68 255.13a2.92 2.92 0 002.67 0c.74-.43.74-1.12 0-1.54a2.92 2.92 0 00-2.67 0c-.74.42-.74 1.11 0 1.54z" fill="#e79572"/><path d="M597 304.93h-3.78v1.08a.89.89 0 00.54.87 2.92 2.92 0 002.67 0 .88.88 0 00.55-.87z" fill="#4b6a70"/><path d="M596.44 305.71a3 3 0 01-2.67 0 .82.82 0 010-1.55 3 3 0 012.67 0 .82.82 0 010 1.55z" fill="#ebe9ff"/><path d="M634 328.65l-2.31-51.19c-.25-5.55-4.27-12.27-8.94-15l-16.41-9.48c-2-1.14-3.82-1.4-5.06-.72s-1.89 2.17-2 4.29L597 305.09l-3.77-.18 2.31-48.52c.17-3.49 1.57-6.13 4-7.43s5.57-1.07 8.76.77l16.41 9.48c5.85 3.38 10.51 11.16 10.82 18.08l2.31 51.19z" fill="#ebe9ff"/><path d="M561.82 325.28H558v1.07a.88.88 0 00.54.88 3 3 0 002.67 0 .89.89 0 00.55-.88z" fill="#4b6a70"/><path d="M561.26 326.05a2.92 2.92 0 01-2.67 0c-.74-.43-.74-1.12 0-1.54a2.92 2.92 0 012.67 0c.74.42.74 1.07 0 1.54z" fill="#ebe9ff"/><path d="M602.61 348.79h-3.78v1.07a.89.89 0 00.55.88 3 3 0 002.67 0 .89.89 0 00.54-.88z" fill="#4b6a70"/><path d="M602.06 349.58a2.92 2.92 0 01-2.67 0 .81.81 0 010-1.54 2.92 2.92 0 012.67 0 .81.81 0 010 1.54z" fill="#ebe9ff"/><path d="M637.79 328.45H634v1.07a.89.89 0 00.55.88 3 3 0 002.67 0 .91.91 0 00.55-.88z" fill="#4b6a70"/><path d="M637.24 329.22a2.92 2.92 0 01-2.67 0c-.74-.43-.74-1.12 0-1.54a2.92 2.92 0 012.67 0c.76.42.76 1.11 0 1.54zM598.84 348.98l-2.32-51.2c-.25-5.55-4.26-12.27-8.94-15l-16.41-9.47c-2-1.14-3.81-1.41-5-.73s-1.9 2.17-2 4.29l-2.31 48.52-3.77-.18 2.31-48.52c.16-3.49 1.57-6.12 4-7.43s5.57-1.07 8.75.77l16.32 9.55c5.86 3.38 10.52 11.16 10.83 18.08l2.31 51.2z" fill="#ebe9ff"/><path fill="#e5773e" d="M558.01 275.25l.95.68 1.64-4.34-2.59 2.54v1.12z"/><path d="M610.26 268.31v1.19a94.46 94.46 0 0024.46-14.14v-7.07c-.31.26-.62.52-.94.77v5.52a93.8 93.8 0 01-23.52 13.73zm0-14.13v1.18a93.87 93.87 0 0024.46-14.13v-7.06l-.94.77v5.51a93.5 93.5 0 01-23.52 13.73z" fill="#aadce6"/><path d="M559 275.86v.07l6.57-3.79h-.07a4.33 4.33 0 00-.47-.25 1.42 1.42 0 00-.25-.12h-.05a4 4 0 00-.44-.17 3.33 3.33 0 00-.51-.16 4.7 4.7 0 00-.63-.13h-.05a1 1 0 00-.24 0 3.46 3.46 0 00-1.62.25l-.56.32a3.52 3.52 0 00-1.2 1.57 6.43 6.43 0 00-.48 2.41z" fill="#cf4504"/><path d="M600.39 246.58a2.9 2.9 0 01.76-.44h.09a2.43 2.43 0 01.48-.14h.19a4.2 4.2 0 01.51 0H603a1 1 0 01.25 0 4.38 4.38 0 01.68.15l.32.11a3.2 3.2 0 01.39.16 8 8 0 01.78.38h.06l32.61 18.78.17.09c-8.31 5-28.08 15.73-37.1 10.37v10.87a3.14 3.14 0 01-.76 2.25c-.73.74-1.9.82-3.23.05l-32.59-18.83h-.07a6.3 6.3 0 00-.78-.39 4.16 4.16 0 00-.4-.16l-.32-.11a4.27 4.27 0 00-.67-.15 1.17 1.17 0 00-.26 0h-.45a3.37 3.37 0 00-1.36.26z" fill="#ee844c"/><path d="M641.32 265.58a2.48 2.48 0 01-3.06.14c2.36-1.43 3.81-2.4 3.81-2.4a3.15 3.15 0 01-.75 2.26z" fill="#527076"/><path d="M610.26 268.31v1.19a94.46 94.46 0 0024.46-14.14v-7.07c-.31.26-.62.52-.94.77v5.52a93.8 93.8 0 01-23.52 13.73zm0-14.13v1.18a93.87 93.87 0 0024.46-14.13v-7.06l-.94.77v5.51a93.5 93.5 0 01-23.52 13.73zM643.38 221.43l2.54-2.34.94.79-3.84 3.92.36-2.37z" fill="#ee844c"/><path d="M601.35 289.98l40.07-23.13.74-.43a3 3 0 00.83-2.32v-32.3c0-5.09 1.36-9.23 3.85-11.92-1 .77-2 1.52-3 2.26a164 164 0 01-35.41 19.44h-.06a11.27 11.27 0 00-4.52 5.11 20.49 20.49 0 00-1.75 8.77v32.29a4.12 4.12 0 010 .51 2.85 2.85 0 01-.75 1.72z" fill="#f36424"/><path d="M558 274.13v.07l1.39-.8a3.52 3.52 0 011.2-1.57l.56-.32a3.46 3.46 0 011.62-.25 1 1 0 01.24 0h.05a4.7 4.7 0 01.63.13 2.32 2.32 0 01.51.16 4 4 0 01.44.17h.05a1.42 1.42 0 01.25.12 4.33 4.33 0 01.47.25h.07l4 2.32 23.16 13.37 5.41 3.13c1.34.77 2.51-.25 3.24-1a2.85 2.85 0 00.72-1.75 4.12 4.12 0 000-.51v-32.22a20.49 20.49 0 011.75-8.77 11.27 11.27 0 014.52-5.11h.06a164 164 0 0035.43-19.41 13 13 0 012.06-3 161.13 161.13 0 01-38.43 21.66h-.07a11.32 11.32 0 00-4.52 5.11c-.1.22-.2.45-.29.68a1.17 1.17 0 00-.05.11 1 1 0 010 .1 9 9 0 00-.31.87c0 .11-.08.21-.11.31a3 3 0 00-.09.32 1.09 1.09 0 00-.07.24.24.24 0 000 .08c0 .13-.08.27-.11.4a.24.24 0 010 .08.19.19 0 010 .08c0 .16-.07.31-.1.48a1.18 1.18 0 00-.06.27l-.06.28c0 .18-.06.36-.08.54a3.11 3.11 0 00-.07.44.51.51 0 000 .13c0 .2 0 .4-.07.6s0 .21 0 .32c0 .37-.06.75-.08 1.13s0 .83 0 1.26v32.29a3.14 3.14 0 01-.76 2.25c-.73.74-1.9.82-3.23.05l-32.59-18.83h-.07a6.3 6.3 0 00-.78-.39 4.16 4.16 0 00-.4-.16l-.32-.11a4.27 4.27 0 00-.67-.15 1.17 1.17 0 00-.26 0h-.45a3.37 3.37 0 00-1.36.26l-.56.32a4.74 4.74 0 00-1.81 3.97z" fill="#ee844c"/><path d="M459.75 196.11l14.25 8.23c8.32 4.81 15.2 11.83 15.2 21.44l30.87-17.82 9.84 5.55v-11.42c0-9.61-7-16.64-15.29-21.45l-14.25-8.23z" fill="#a599ff"/><path d="M500.38 177.78l11.92 6.89c7.55 4.36 11.83 9.41 12.77 15l-32.3 18.69c-2.28-7-7.85-13.12-16.44-18.08l-7.33-4.19z" fill="#3d2d9d"/><path d="M459.75 196.11v24.16l29.45 16.94v-11.43c0-9.61-6.88-16.63-15.2-21.44z" fill="#8e86ef"/><path fill="#a599ff" d="M489.2 237.21l40.71-23.46v-11.38l-40.71 23.41v11.43z"/><path d="M472.29 198.02l31.35-18.27-2.56-1.48-31.36 18.27 2.57 1.48z"/><path fill="#8e86ef" d="M472.77 197.74l1.56-.91-4.27-13.39-1.59-.16 4.3 14.46z"/><path fill="#ebe9ff" d="M474.33 196.83l-4.27-13.39 25.84-14.93 4.06 13.76-25.63 14.56z"/><path fill="#a599ff" d="M468.47 183.28l25.84-14.93 1.59.16-25.84 14.93-1.73-.16h.14z"/><path d="M477.85 195.23s-1.37-5.14-2.74-9.3a91.83 91.83 0 00-5.11-11.08l19.36-11.18a91 91 0 015.14 11.08c1.37 4.16 2.74 9.3 2.74 9.3z" fill="#fff"/><path d="M491.92 234.43l35.18-20.31v-6.97l-35.18 20.31v6.97z"/><path fill="#0a0a0a" d="M533.95 219.71l-30.85 17.82.02.74 30.83-17.8v-.76z"/><path fill="#0a0a0a" d="M533.95 219.71l-30.85 17.82.02.74 30.83-17.8v-.76z"/><ellipse cx="469.33" cy="198.42" rx="1.96" ry="1.13"/><path d="M468.5 198.9a1.84 1.84 0 001.65 0c.46-.27.46-.7 0-1a1.84 1.84 0 00-1.65 0c-.5.3-.5.73 0 1z" fill="#3a7c91"/><path fill="#765ded" d="M525.62 214.98l-6.08-3.46 1.53-.88 6.03 3.48-1.48.86zM491.86 234.51v-2.64l2.35 1.28-2.35 1.36z"/><path d="M503.12 237.52l30.17-17.42.66.37-30.83 17.8-8.98-5.12-2.22-1.24-.06-.78 11.26 6.39z"/><path fill="#ebe9ff" d="M533.95 219.72l-.66.38-30.17 17.42-11.2-6.38v-3.68l1.96-1.14 11.02 6.28 23.86-13.77v-1.27l-23.86 13.77 23.85-13.78-9.9-5.64.69-.39 6.08 3.46 8.33 4.74z"/><path fill="#a599ff" d="M504.9 231.33l-.02.01.02 1.26-11.02-6.28 1.11-.63 9.91 5.64z"/><path fill="#fff" d="M528.75 217.55l-23.85 13.78-9.91-5.64 23.86-13.78 9.9 5.64z"/><path fill="#a599ff" d="M504.9 231.33l23.86-13.77v1.27L504.9 232.6l-.02-1.26.02-.01z"/><path d="M515.52 229.14v1.44l.6.35v-1.45a2.77 2.77 0 011.33-2.09l2.3-1.32.45-.26a1.34 1.34 0 01.63-.21.75.75 0 01.26 0l-.6-.35a1.11 1.11 0 00-.89.17l-2.75 1.59a1.85 1.85 0 00-1.33 2.13z" fill="#716fe2"/><path d="M516.12 229.48v1.41l5.4-3.12v-1.4a.7.7 0 00-.43-.73.75.75 0 00-.26 0 1.34 1.34 0 00-.63.21l-.45.26-2.3 1.32a2.77 2.77 0 00-1.33 2.05z" fill="#0a0a0a"/><path d="M489.94 228.09l.95-.55a.39.39 0 01.46 0l.45.26-.33.06a1.25 1.25 0 01-.59 1l-.89.52v.33l-.44-.26a.41.41 0 01-.17-.37 1.27 1.27 0 01.56-.99z" fill="#ee844c"/><path d="M491.92 228.12a1.28 1.28 0 01-.59 1l-.95.56a.41.41 0 01-.2.06c-.22 0-.38-.11-.38-.4a1.3 1.3 0 01.58-1l.95-.55a.37.37 0 01.49 0 .48.48 0 01.1.33z" fill="#8ec3d4"/><path d="M491.92 228.12a1.28 1.28 0 01-.59 1l-.95.56a.2.2 0 01-.3-.25 1.27 1.27 0 01.58-1l.95-.55a.44.44 0 01.21-.07.48.48 0 01.1.31z" fill="#ebe9ff"/><path d="M490.75 229a.11.11 0 01-.22 0 .11.11 0 11.22 0z" fill="#8ec3d4"/><path d="M489.94 225.88l.95-.55a.37.37 0 01.46 0l.45.25-.33.07a1.28 1.28 0 01-.59 1l-.89.51v.33l-.44-.25a.42.42 0 01-.17-.38 1.3 1.3 0 01.56-.98z" fill="#a599ff"/><path d="M491.92 225.92a1.3 1.3 0 01-.59 1l-.95.55a.6.6 0 01-.2.07c-.22 0-.38-.11-.38-.4a1.27 1.27 0 01.58-1l.95-.56a.38.38 0 01.49 0 .49.49 0 01.1.34z" fill="#a599ff"/><path d="M491.92 225.92a1.3 1.3 0 01-.59 1l-.95.55a.6.6 0 01-.2.07.44.44 0 01-.1-.32 1.3 1.3 0 01.58-1l.95-.55a.58.58 0 01.21-.07.49.49 0 01.1.32z" fill="#80bccf"/><path d="M490.75 227.04a.11.11 0 11-.11-.11.11.11 0 01.11.11z" fill="#322671"/><path d="M615.79 183.39l-50.7 29.29a2.91 2.91 0 01-2.61.1l-20.36-9.68c-.66-.38-1.34-8.83-.45-6.09l55.09-22.83a2.89 2.89 0 012.6-.1l16.64 6.41c.64.39.56 2.45-.21 2.9z" fill="#3d2d9d"/><path d="M615.79 182l-50.7 29.28a2.88 2.88 0 01-2.61.11s-23.07-13.65-21.13-14.92l51-28.75c.77-.45 6.33 2.79 7 3.17l16.62 9.6c.67.39.59 1.09-.18 1.51z" fill="#a599ff"/><path fill="#065a6e" d="M596.58 174.17l2.97-1.71-1.56-.91-2.98 1.72 1.57.9zM592.88 176.3l2.98-1.71-1.57-.9-2.97 1.71 1.56.9zM599.69 175.97l2.98-1.71-2.58-1.49-2.97 1.72 2.57 1.48zM596 178.11l2.98-1.72-2.58-1.49-2.97 1.72 2.57 1.49zM549.12 202.21l2.57 1.49 6.67-3.85v-.62l-9.24 2.36v.62zM598.32 177.26l2.58 1.49 4.77-2.76-2.57-1.49-4.78 2.76zM603.09 180.95l5.58-3.22-2.57-1.49-5.59 3.23 2.58 1.48zM571.66 199.11l2.97-1.72-2.57-1.49-2.97 1.72 2.57 1.49zM555.13 205.68l2.57 1.49 5.38-3.11-2.58-1.48-5.37 3.1zM605.01 183.31l6.66-3.85-2.57-1.49-6.66 3.85 2.57 1.49zM601.32 185.44l2.97-1.71-2.57-1.49-2.98 1.72 2.58 1.48zM571.78 202.51l2.97-1.72-2.57-1.49-2.97 1.72 2.57 1.49z"/><path fill="#065a6e" d="M560.7 208.9l6.4-3.69v-.62l-8.97 2.2v.63l2.57 1.48zM600.63 189.31l2.97-1.72-2.57-1.48-2.98 1.71 2.58 1.49zM572.21 202.75l2.57 1.49 25.13-14.51v-.63l-27.7 13.03v.62zM571.09 206.37l2.97-1.71v-.63l-4.33.93v.62l1.36.79z"/><path fill="#065a6e" d="M567.4 208.51l2.97-1.72v-.62l-5.55.23v.62l2.58 1.49zM563.71 210.64l2.97-1.72v-.62l-4.34.93v.62l1.37.79zM597.72 171.77h1.83v.68h-1.83zM595.02 172.65h1.19v.52h-1.19zM591.32 174.78h1.98v.57h-1.98zM593.82 173.97h2.03v.62h-2.03zM596.39 175.77h2.59v.65h-2.59zM593.43 175.97h1.85v.65h-1.85zM600.49 173.55h2.11v.62h-2.11zM597.12 173.83h2.79v.65h-2.79zM603.34 175.35h2.32v.62h-2.32zM598.32 176.63h4.96v.63h-4.96zM606.81 177.1h1.86v.6h-1.86zM600.51 178.82h4.08v.64h-4.08zM602.44 181.22h5.53v.6h-5.53zM610.1 178.82h1.58v.64h-1.58zM598.74 183.35h3.25v.6h-3.25zM602.28 183.08h2.01v.64h-2.01z"/><path fill="#ebe9ff" d="M596.58 173.55l2.97-1.72-1.56-.9-2.98 1.72 1.57.9zM592.88 175.68l2.98-1.71-1.57-.91-2.97 1.72 1.56.9z"/><path fill="#065a6e" d="M548.58 201.9l2.97-1.72v-.62l-4.54.82v.62l1.57.9z"/><path fill="#ebe9ff" d="M548.58 201.28l2.97-1.72-1.56-.9-2.98 1.72 1.57.9zM599.69 175.35l2.98-1.72-2.58-1.48-2.97 1.71 2.57 1.49zM596 177.48l2.98-1.71-2.58-1.49-2.97 1.72 2.57 1.48z"/><path fill="#065a6e" d="M559.08 199.44l2.97-1.72v-.62l-5.55.23v.62l2.58 1.49z"/><path fill="#ebe9ff" d="M559.08 198.81l2.97-1.71-2.57-1.49-2.98 1.72 2.58 1.48z"/><path fill="#065a6e" d="M562.77 197.3l2.97-1.71v-.63l-5.54.23v.63l2.57 1.48z"/><path fill="#ebe9ff" d="M562.77 196.68l2.97-1.72-2.57-1.48-2.97 1.71 2.57 1.49z"/><path fill="#065a6e" d="M566.46 195.17l2.98-1.72v-.62l-5.55.23v.62l2.57 1.49z"/><path fill="#ebe9ff" d="M566.46 194.55l2.98-1.72-2.58-1.49-2.97 1.72 2.57 1.49z"/><path fill="#065a6e" d="M570.16 193.04l2.97-1.72v-.62l-5.55.23v.62l2.58 1.49z"/><path fill="#ebe9ff" d="M570.16 192.41l2.97-1.71-2.58-1.49-2.97 1.72 2.58 1.48z"/><path fill="#065a6e" d="M573.85 190.9l2.97-1.71v-.63l-5.55.23v.63l2.58 1.48z"/><path fill="#ebe9ff" d="M573.85 190.28l2.97-1.72-2.57-1.48-2.98 1.71 2.58 1.49z"/><path fill="#065a6e" d="M577.54 188.77l2.97-1.72v-.62l-5.54.23v.62l2.57 1.49z"/><path fill="#ebe9ff" d="M577.54 188.15l2.97-1.72-2.57-1.49-2.97 1.72 2.57 1.49z"/><path fill="#065a6e" d="M581.23 186.64l2.98-1.72v-.62l-5.55.23v.62l2.57 1.49z"/><path fill="#ebe9ff" d="M581.23 186.02l2.98-1.72-2.58-1.49-2.97 1.72 2.57 1.49z"/><path fill="#065a6e" d="M584.92 184.5l2.98-1.71v-.62l-5.55.23v.62l2.57 1.48z"/><path fill="#ebe9ff" d="M584.92 183.88l2.98-1.71-2.58-1.49-2.97 1.72 2.57 1.48z"/><path fill="#065a6e" d="M588.62 182.37l2.97-1.71v-.63l-5.55.23v.63l2.58 1.48z"/><path fill="#ebe9ff" d="M588.62 181.75l2.97-1.72-2.57-1.48-2.98 1.71 2.58 1.49z"/><path fill="#065a6e" d="M592.31 180.24l2.97-1.72v-.62l-5.54.23v.62l2.57 1.49z"/><path fill="#ebe9ff" d="M592.31 179.62l2.97-1.72-2.57-1.49-2.97 1.72 2.57 1.49zM549.12 201.59l2.57 1.49 6.67-3.85-2.58-1.49-6.66 3.85zM598.32 176.64l2.58 1.49 4.77-2.76-2.57-1.49-4.78 2.76z"/><path fill="#065a6e" d="M554.7 204.81l2.97-1.71v.62l-2.97 1.72-2.58-1.49v-.62l2.58 1.48z"/><path fill="#065a6e" d="M557.67 203.08v.02l-.03-.02h.03z"/><path fill="#ebe9ff" d="M552.12 203.33l2.98-1.72 2.54 1.47.03.02-2.97 1.71-2.58-1.48zM603.09 180.33l5.58-3.23-2.57-1.48-5.59 3.22 2.58 1.49z"/><path fill="#065a6e" d="M567.7 200.77l2.97-1.71v.62l-2.97 1.72-2.58-1.49v-.62l2.58 1.48z"/><path fill="#ebe9ff" d="M565.12 199.29l2.97-1.72 2.58 1.49-2.97 1.71-2.58-1.48z"/><path fill="#065a6e" d="M571.69 198.5l2.98-1.72v.63l-2.98 1.71-2.57-1.48v-.63l2.57 1.49z"/><path fill="#ebe9ff" d="M569.12 197.01l2.97-1.71 2.58 1.48-2.98 1.72-2.57-1.49z"/><path fill="#065a6e" d="M575.69 196.23l2.97-1.72v.63l-2.97 1.71-2.57-1.48v-.63l2.57 1.49z"/><path fill="#ebe9ff" d="M573.12 194.74l2.97-1.71 2.57 1.48-2.97 1.72-2.57-1.49z"/><path fill="#065a6e" d="M579.69 193.96l2.97-1.72v.62l-2.97 1.72-2.57-1.49v-.62l2.57 1.49z"/><path fill="#ebe9ff" d="M577.12 192.47l2.97-1.72 2.57 1.49-2.97 1.72-2.57-1.49z"/><path fill="#065a6e" d="M583.69 191.69l2.97-1.72v.62l-2.97 1.72-2.58-1.49v-.62l2.58 1.49z"/><path fill="#ebe9ff" d="M581.11 190.2l2.98-1.72 2.57 1.49-2.97 1.72-2.58-1.49z"/><path fill="#065a6e" d="M587.69 189.41l2.97-1.71v.62l-2.97 1.72-2.58-1.49v-.62l2.58 1.48z"/><path fill="#ebe9ff" d="M585.11 187.93l2.97-1.72 2.58 1.49-2.97 1.71-2.58-1.48z"/><path fill="#065a6e" d="M591.68 187.14l2.98-1.71v.62l-2.98 1.72-2.57-1.49v-.62l2.57 1.48z"/><path fill="#ebe9ff" d="M589.11 185.66l2.97-1.72 2.58 1.49-2.98 1.71-2.57-1.48z"/><path fill="#065a6e" d="M595.68 184.87l2.97-1.71v.62l-2.97 1.71-2.57-1.48v-.63l2.57 1.49z"/><path fill="#ebe9ff" d="M593.11 183.38l2.97-1.71 2.57 1.49-2.97 1.71-2.57-1.49z"/><path fill="#065a6e" d="M599.68 182.6l2.97-1.72v.63l-2.97 1.71-2.57-1.48v-.63l2.57 1.49z"/><path fill="#ebe9ff" d="M597.11 181.11l2.97-1.71 2.57 1.48-2.97 1.72-2.57-1.49z"/><path fill="#065a6e" d="M563.73 203.06l2.98-1.72v.63l-2.98 1.71-2.57-1.48v-.63l2.57 1.49z"/><path fill="#ebe9ff" d="M561.16 201.57l2.97-1.71 2.58 1.48-2.98 1.72-2.57-1.49zM555.13 205.06l2.57 1.49 5.38-3.11-2.58-1.49-5.37 3.11zM605.01 182.69l6.66-3.85-2.57-1.49-6.66 3.85 2.57 1.49zM601.32 184.82l2.97-1.72-2.57-1.48-2.98 1.71 2.58 1.49z"/><path fill="#065a6e" d="M568.09 204.02l2.97-1.72v.62l-2.97 1.72-2.58-1.49v-.62l2.58 1.49z"/><path fill="#ebe9ff" d="M565.51 202.53l2.98-1.72 2.57 1.49-2.97 1.72-2.58-1.49z"/><path fill="#065a6e" d="M571.78 201.88l2.97-1.72v.63l-2.97 1.71-2.57-1.48v-.63l2.57 1.49z"/><path fill="#ebe9ff" d="M569.21 200.39l2.97-1.71 2.57 1.48-2.97 1.72-2.57-1.49z"/><path fill="#065a6e" d="M575.47 199.75l2.97-1.72v.62l-2.97 1.72-2.57-1.49v-.62l2.57 1.49z"/><path fill="#ebe9ff" d="M572.9 198.26l2.97-1.72 2.57 1.49-2.97 1.72-2.57-1.49z"/><path fill="#065a6e" d="M579.16 197.61l2.98-1.72v.62l-2.98 1.72-2.57-1.48v-.63l2.57 1.49z"/><path fill="#ebe9ff" d="M576.59 196.12l2.97-1.71 2.58 1.48-2.98 1.72-2.57-1.49z"/><path fill="#065a6e" d="M582.86 195.47l2.97-1.71v.62l-2.97 1.72-2.58-1.49v-.62l2.58 1.48z"/><path fill="#ebe9ff" d="M580.28 193.99l2.97-1.72 2.58 1.49-2.97 1.71-2.58-1.48z"/><path fill="#065a6e" d="M586.55 193.34l2.97-1.72v.62l-2.97 1.72-2.57-1.49v-.62l2.57 1.49z"/><path fill="#ebe9ff" d="M583.98 191.85l2.97-1.72 2.57 1.49-2.97 1.72-2.57-1.49z"/><path fill="#065a6e" d="M590.24 191.2l2.97-1.71v.62l-2.97 1.71-2.57-1.48v-.62l2.57 1.48z"/><path fill="#ebe9ff" d="M587.67 189.72l2.97-1.72 2.57 1.49-2.97 1.71-2.57-1.48z"/><path fill="#065a6e" d="M593.93 189.07l2.97-1.72v.62l-2.97 1.72-2.57-1.49v-.62l2.57 1.49z"/><path fill="#ebe9ff" d="M591.36 187.58l2.97-1.72 2.57 1.49-2.97 1.72-2.57-1.49z"/><path fill="#065a6e" d="M597.63 186.93l2.97-1.71v.62l-2.97 1.71-2.58-1.48v-.63l2.58 1.49z"/><path fill="#ebe9ff" d="M595.05 185.44l2.97-1.71 2.58 1.49-2.97 1.71-2.58-1.49zM560.7 208.28l6.4-3.69-2.58-1.49-6.39 3.69 2.57 1.49z"/><path fill="#065a6e" d="M609.19 180.77l-.06.03v-.03h.06zM611.71 182.29l2.97-1.72v.65h-.04l-2.93 1.69-2.58-1.48v-.63l2.58 1.49z"/><path fill="#ebe9ff" d="M612.1 179.09l2.58 1.48-2.97 1.72-2.58-1.49.06-.03 2.91-1.68z"/><path fill="#065a6e" d="M605.48 182.91l-.04.03v-.03h.04z"/><path fill="#065a6e" d="M608.01 184.42l2.98-1.71v.6h-.04l.04.02-2.98 1.71-2.57-1.48.04-.02h-.04v-.6l2.57 1.48z"/><path fill="#ebe9ff" d="M608.41 181.22l2.58 1.49-2.98 1.71-2.57-1.48.04-.03 2.93-1.69z"/><path fill="#065a6e" d="M601.79 185.04l-.04.03v-.03h.04zM604.32 186.56l2.97-1.72v.6h-.03l.03.02-2.97 1.72-2.57-1.49.03-.02h-.03v-.6l2.57 1.49z"/><path fill="#ebe9ff" d="M604.72 183.35l2.57 1.49-2.97 1.72-2.57-1.49.04-.03 2.93-1.69z"/><path fill="#065a6e" d="M598.17 187.17l-.04.02v-.02h.04zM600.7 188.68l2.97-1.72v.61h-.03l.03.02-2.97 1.71-2.57-1.49.03-.02h-.03v-.6l2.57 1.49z"/><path fill="#ebe9ff" d="M601.1 185.48l2.57 1.48-2.97 1.72-2.57-1.49.04-.02 2.93-1.69zM572.21 202.13l2.57 1.49 25.13-14.52-2.58-1.48-25.12 14.51zM571.09 205.75l2.97-1.72-1.36-.78-2.97 1.71 1.36.79zM567.4 207.88l2.97-1.71-2.58-1.49-2.97 1.72 2.58 1.48zM563.71 210.02l2.97-1.72-1.37-.79-2.97 1.72 1.37.79z"/><path fill="#065a6e" d="M558.59 202.57l2.97-1.72v.62l-2.97 1.72-2.57-1.49v-.62l2.57 1.49z"/><path fill="#065a6e" d="M561.56 200.83v.02l-.03-.02h.03z"/><path fill="#ebe9ff" d="M556.02 201.08l2.97-1.72 2.54 1.47.03.02-2.97 1.72-2.57-1.49z"/><path fill="#065a6e" d="M562.48 200.32l2.98-1.72v.63l-2.98 1.71-2.57-1.48v-.63l2.57 1.49zM565.46 198.59v.01l-.03-.01h.03z"/><path fill="#ebe9ff" d="M559.91 198.83l2.97-1.71 2.55 1.47.03.01-2.98 1.72-2.57-1.49z"/><path fill="#065a6e" d="M566.38 198.07l2.97-1.71v.62l-2.97 1.72-2.58-1.49v-.62l2.58 1.48z"/><path fill="#065a6e" d="M569.35 196.34v.02l-.03-.02h.03z"/><path fill="#ebe9ff" d="M563.8 196.59l2.97-1.72 2.55 1.47.03.02-2.97 1.71-2.58-1.48z"/><path fill="#065a6e" d="M570.27 195.83l2.97-1.72v.62l-2.97 1.72-2.57-1.49v-.62l2.57 1.49zM573.24 194.09v.02l-.03-.01.03-.01z"/><path fill="#ebe9ff" d="M567.7 194.34l2.97-1.71 2.54 1.47.03.01-2.97 1.72-2.57-1.49z"/><path fill="#065a6e" d="M574.16 193.58l2.97-1.71v.62l-2.97 1.72-2.57-1.49v-.62l2.57 1.48zM577.13 191.85v.02l-.02-.02h.02z"/><path fill="#ebe9ff" d="M571.59 192.1l2.97-1.72 2.55 1.47.02.02-2.97 1.71-2.57-1.48z"/><path fill="#065a6e" d="M578.05 191.34l2.98-1.72v.62l-2.98 1.72-2.57-1.49v-.62l2.57 1.49zM581.03 189.6v.02l-.03-.02h.03z"/><path fill="#ebe9ff" d="M575.48 189.85l2.97-1.72 2.55 1.47.03.02-2.98 1.72-2.57-1.49z"/><path fill="#065a6e" d="M581.95 189.09l2.97-1.72v.63l-2.97 1.71-2.58-1.48v-.63l2.58 1.49zM584.92 187.36v.01l-.03-.01h.03z"/><path fill="#ebe9ff" d="M579.37 187.6l2.98-1.71 2.54 1.47.03.01-2.97 1.72-2.58-1.49z"/><path fill="#065a6e" d="M585.84 186.84l2.97-1.71v.62l-2.97 1.72-2.57-1.49v-.62l2.57 1.48z"/><path fill="#065a6e" d="M588.81 185.11v.02l-.03-.02h.03z"/><path fill="#ebe9ff" d="M583.27 185.36l2.97-1.72 2.54 1.47.03.02-2.97 1.71-2.57-1.48z"/><path fill="#065a6e" d="M589.73 184.6l2.98-1.72v.62l-2.98 1.72-2.57-1.49v-.62l2.57 1.49z"/><path fill="#065a6e" d="M592.71 182.86v.02l-.03-.01.03-.01z"/><path fill="#ebe9ff" d="M587.16 183.11l2.97-1.71 2.55 1.47.03.01-2.98 1.72-2.57-1.49z"/><path fill="#065a6e" d="M593.63 182.35l2.97-1.72v.63l-2.97 1.71-2.58-1.48v-.62l2.58 1.48zM596.6 180.62v.01l-.03-.01h.03z"/><path fill="#ebe9ff" d="M591.05 180.87l2.97-1.72 2.55 1.47.03.01-2.97 1.72-2.58-1.48z"/><path fill="#065a6e" d="M597.52 180.11l2.97-1.72v.62l-2.97 1.72-2.57-1.49v-.62l2.57 1.49zM600.49 178.37v.02l-.03-.02h.03z"/><path fill="#ebe9ff" d="M594.95 178.62l2.97-1.72 2.54 1.47.03.02-2.97 1.72-2.57-1.49z"/><path fill="#065a6e" d="M552.27 199.76l2.97-1.71v-.63l-4.53.82v.62l1.56.9z"/><path fill="#ebe9ff" d="M552.27 199.14l2.97-1.72-1.56-.9-2.97 1.72 1.56.9z"/><path fill="#065a6e" d="M555.96 197.63l2.97-1.72v-.62l-4.53.81v.63l1.56.9z"/><path fill="#ebe9ff" d="M555.96 197l2.97-1.71-1.56-.9-2.97 1.71 1.56.9z"/><path fill="#065a6e" d="M559.65 195.49l2.97-1.71v-.63l-4.53.82v.62l1.56.9z"/><path fill="#ebe9ff" d="M559.65 194.87l2.97-1.72-1.56-.9-2.97 1.72 1.56.9z"/><path fill="#065a6e" d="M563.34 193.36l2.98-1.72v-.62l-4.54.81v.63l1.56.9z"/><path fill="#ebe9ff" d="M563.34 192.73l2.98-1.71-1.56-.9-2.98 1.71 1.56.9z"/><path fill="#065a6e" d="M567.04 191.22l2.97-1.72v-.62l-4.53.82v.62l1.56.9z"/><path fill="#ebe9ff" d="M567.04 190.6l2.97-1.72-1.56-.9-2.97 1.72 1.56.9z"/><path fill="#065a6e" d="M570.73 189.09l2.97-1.72v-.62l-4.53.81v.62l1.56.91z"/><path fill="#ebe9ff" d="M570.73 188.46l2.97-1.71-1.56-.91-2.97 1.72 1.56.9z"/><path fill="#065a6e" d="M574.42 186.95l2.97-1.72v-.62l-4.53.82v.62l1.56.9z"/><path fill="#ebe9ff" d="M574.42 186.33l2.97-1.72-1.56-.9-2.97 1.72 1.56.9z"/><path fill="#065a6e" d="M578.11 184.81l2.98-1.71v-.63l-4.54.82v.62l1.56.9z"/><path fill="#ebe9ff" d="M578.11 184.19l2.98-1.72-1.57-.9-2.97 1.72 1.56.9z"/><path fill="#065a6e" d="M581.81 182.68l2.97-1.72v-.62l-4.53.82v.62l1.56.9z"/><path fill="#ebe9ff" d="M581.81 182.06l2.97-1.72-1.56-.9-2.97 1.72 1.56.9z"/><path fill="#065a6e" d="M585.5 180.54l2.97-1.71v-.63l-4.53.82v.62l1.56.9z"/><path fill="#ebe9ff" d="M585.5 179.92l2.97-1.72-1.56-.9-2.97 1.72 1.56.9z"/><path fill="#065a6e" d="M589.19 178.41l2.97-1.72v-.62l-4.53.81v.63l1.56.9z"/><path fill="#ebe9ff" d="M589.19 177.78l2.97-1.71-1.56-.9-2.97 1.71 1.56.9z"/><path d="M573.94 169.21zM571.62 167.87l-36.12 20.86s-8.15-6.18-13-7.57L560.88 159a55.22 55.22 0 0113 7.48l.09.05-2.31 1.33z" fill="#8e86ef"/><path d="M571.6 167.84c-3.07 1.63-6.16 3.23-9.2 4.92l-4.56 2.52-4.54 2.57c-3 1.71-6 3.44-9 5.22l-4.49 2.64c-1.51.87-3 1.79-4.47 2.69l.57.33a6.37 6.37 0 00-.64-.63 4.11 4.11 0 00-.35-.27l-.29-.2-1.13-.76c-.75-.53-1.54-1-2.32-1.46l-1.18-.7c-.38-.25-.8-.44-1.2-.66l-2.42-1.27v.05l2.36 1.37c.39.23.8.44 1.18.69l1.14.75c.75.51 1.53 1 2.26 1.53l2.2 1.56 36.11-20.87z" fill="#a599ff" opacity=".31"/><path d="M522.48 181.16a55.65 55.65 0 0113 7.53v2.62l-13.07-7.55v-2.66z" fill="#3d2d9d"/><path d="M571.62 167.87l2.31-1.33v2.65l-38.43 22.2v-2.66z" fill="#716fe2"/><path d="M550.82 157.11v15.76a1.3 1.3 0 01-.77 1.08 4.11 4.11 0 01-3.74 0 1.3 1.3 0 01-.77-1.08v-15.76z" fill="#3d2d9d"/><path fill="#765ded" d="M535.66 173.19l2.45-1.41v-.61l-2.45 1.41v.61z"/><path d="M535.1 174.18l3.58-2.07v-1.93l-3.58 2.07v1.93z"/><path fill="#765ded" d="M532.54 175l2.45-1.42v-.61l-2.45 1.42v.61z"/><path d="M531.97 175.98l3.59-2.07v-1.92l-3.59 2.07v1.92z"/><path fill="#765ded" d="M529.42 176.8l2.45-1.42v-.6l-2.45 1.41v.61z"/><path d="M528.85 177.79l3.59-2.08v-1.92l-3.59 2.07v1.93z"/><path d="M520.43 131.91l66.27-38.28a1.52 1.52 0 011-.23l.09-.09 1.82 1.13-1.08 2v43.36a4.07 4.07 0 01-1.83 3.18l-65.46 37.81-.34 1.57-1.44-.87c-.52-.07-.87-.53-.87-1.29v-45.11a4.05 4.05 0 011.84-3.18z" fill="#8e86ef"/><path d="M522 182.15l66.27-38.28a4 4 0 001.84-3.18V95.58a1.37 1.37 0 00-.46-1.14 1.25 1.25 0 00-1.38.08L522 132.8a4.07 4.07 0 00-1.83 3.18v45.11c-.04 1.17.83 1.65 1.83 1.06z" fill="#716fe2"/><path d="M520.9 135.58v43.4c0 .64.49.89 1.07.56l66.26-38.28a2.36 2.36 0 001.07-1.85V96.02a.69.69 0 00-.38-.71.78.78 0 00-.69.1L522 133.69a2.32 2.32 0 00-1.1 1.89z" fill="#8e86ef"/><path d="M520.9 135.58v43.39a.82.82 0 00.69-.11l66.26-38.28a2.35 2.35 0 001.07-1.85V95.31a.75.75 0 00-.68.09L522 133.68a2.34 2.34 0 00-1.1 1.9z" fill="#3d2d9d"/><path fill="#8e86ef" d="M526.3 178.6l2.45-1.41v-.61l-2.45 1.41v.61zM529.11 176.94l2.45-1.42v-.61l-2.45 1.42v.61z"/><path d="M523 180.27c0 .6.42.84.94.54a2.08 2.08 0 00.93-1.62c0-.6-.42-.84-.93-.54a2.06 2.06 0 00-.94 1.62z" fill="#3d2d9d"/><path d="M522.42 180.27a2.66 2.66 0 011.24-2.15 1.19 1.19 0 011.86 1.07 2.67 2.67 0 01-1.25 2.15 1.42 1.42 0 01-.72.21 1.15 1.15 0 01-1.13-1.28zm1.85-1.09a1.46 1.46 0 00-.63 1.09 1.46 1.46 0 00.63-1.09z" fill="#8e86ef"/><path d="M519.9 277.75v43.13a.83.83 0 00.69-.12l66.26-38.28a2.33 2.33 0 001.07-1.84v-2.43a76.65 76.65 0 00-28.2-6c-26.14-.02-36.41 4.79-39.82 5.54z" transform="translate(1 -142.42)" opacity=".06" fill="url(#j)"/><path d="M602.28 155.2s8.33-1.56 8.7 3.8-4.05 2.07-1.79 6.76-3.19 3.45-7.19 3.45-2.28-4.89-7-3.57-12.73 3.85 7.28-10.44z" fill="#fe76a9"/><path d="M645.9 132.32a7.52 7.52 0 00-8.78-4.44c-6 1.53-2.91 12.37-14.83 17.5-4.93 2.12-16.24 1.77-19 3.46-6 3.69.05 8.42.05 8.42l26.57-1.33s10.61-7.54 15.74-12.68c2.75-2.76 1.76-7.31.25-10.93z" fill="#fec532"/><path d="M696.81 234.4s4.93 4 6.57 7.75 8.28 30.69 6.81 35.16c-2.12 6.46-8.75 14.53-8.69 16.76.09 2.82-.81 3.06 5.23 1.88s6.28-1.41 7.22-4 4.23-10.93 4.23-10.93l.47-7.22a9.12 9.12 0 01-1.65-4.4c0-2.12.94-20.91-.47-25.38s-7.75-11.74-7.75-11.74-.7-49-3.28-52.68-8-12.19-8-12.19l-13 3.59s-4.91 13.58-2.45 20.4 12.64 40.89 14.76 43z" fill="#ffbe9e"/><path d="M671.75 264.19s-2.14 1.44-.52 3.06 9.45-.46 13-1.82a4.1 4.1 0 002.76-4.76 21 21 0 011.12 5.29c0 2.08-.14 3.16-1.59 4s-6.76-.58-8.13 0-6.66 4.4-10.54 3.82a30.32 30.32 0 01-8.45-3.15s-2.34-1.75 8.07-5.81a9.67 9.67 0 014.28-.63z" fill="#fef7ec"/><path d="M673.09 159.22s-5.87 1.75-7 12.5 3.28 28.61 7 35.9 1.64 10 3.29 11.66 1.64 1.49 1.64 9.72v30.58l-8.92 4.13a3 3 0 00-3.76.64c-1.84 1.84-4.46 2.08-4.46 4.29s7.28 1.75 8.57 1.75 4.81-3.23 10.22-3.23 6.9 1.61 7.79-1.22-1.36-5.42 0-10.82 7.23-20.21 5.36-24.67S689 218.94 689 214.8s1.38-11.65.38-18.69-3.84-39-16.29-36.89z" fill="#ffbe9e"/><path d="M696 212.95c-3.46-13.49-5.7-16.37-5.77-26.12s-10.9-30.19-19.52-23.62l-1.48-.86s-5.86 8.64-4.38 19 7.44 31.42 8.89 36.7c1.26 4.53 3.26 11.17 3.98 17.23l-.72 23.64s.54 2.43 5.29 2.12a27.11 27.11 0 009.31-2.65s7.91-31.95 4.4-45.44z" fill="#322671"/><path d="M671.75 262.44s-2.14 1.44-.52 3.06 9.45-.46 13-1.81a4.11 4.11 0 002.76-4.77 21 21 0 011.12 5.29c0 2.08-.14 3.16-1.59 4s-6.76-.59-8.13 0-6.66 4.39-10.54 3.81a30.32 30.32 0 01-8.45-3.15s5.67-5.81 8.07-5.81a14.79 14.79 0 004.28-.62z" fill="#ff8aba"/><path d="M707.16 285.36s-3.21 3.62 0 4.69 6.74-2.27 8.32-4.91 2.87-11.31 2.87-11.31a8.5 8.5 0 01.87 2.15 10.37 10.37 0 010 4.06s-.36 10.41-3.53 14.64-13.06 4.73-13.06 4.73-2.82-1.58-1.41-5.46 5.94-8.59 5.94-8.59z" fill="#fef7ec"/><path d="M706.59 283.82s-3.22 3.62 0 4.69 6.73-2.27 8.32-4.91 2.86-11.32 2.86-11.32a8.94 8.94 0 01.88 2.15 10.62 10.62 0 010 4.07s-.37 10.41-3.54 14.64-13.06 4.73-13.06 4.73-2.82-1.59-1.41-5.46 5.95-8.59 5.95-8.59z" fill="#ff8aba"/><path d="M717.3 245.26c.06-5.48-6.23-11.24-6.23-11.24s0-44.2-3.47-55.51-17.6-17.77-26.6-12.54 12.2 66.05 12.2 66.05 14.18 25 15.24 31.31a70 70 0 011.06 10.4s-1.18 3.21 4.4 1.73a16.14 16.14 0 008.65-6.37s-3.68-15.17-5.25-23.83z" fill="#3d2d9d"/><path d="M702 149.02c2.67 6.61 1.46 22.2 1.46 22.2a19.51 19.51 0 01-13.22 5.85c-20.7.95-23-10.69-23-10.69s-18-14.61-22-21.11c-3.27-5.32-6.42-21-2.6-24.82-.06 0 39.28-21.05 59.36 28.57z" fill="#fdde2d"/><path d="M645.18 121.58s3.3 2.87 3.3 5.17 2.9 10.8 3.45 11.8c2 3.75 2.28-13.39 5.87-16.43 2-1.69 1.25-1.69 1.25-5.84s-5.2-8-5.2-8z" fill="#ffbe9e"/><path d="M638.83 93.69c-.49.24-8.64 5.1-9.37 11.14s2.28 8.33 2.7 9.86-.66 1.46 0 3.84 2.69 3.3 3 4.57 2.47 1.69 3.13 4.11 3.51 1.68 6.14.43c3.74-1.76 11.84-12.58 11.89-18.65.08-6.31-2.81-22.41-17.49-15.3z" fill="#ffdfcf"/><path d="M631.06 99.81s5.84 10.3 9.62 12.46 16.76 2.74 16.76 2.74l1.55 2.44 5.37 2.54 3.64 2.17s-1.19-10.67-3.23-11.83-6.61.23-6.61.23-.11-18.32-10-19-17.1 8.25-17.1 8.25z" fill="#cf4504"/><path d="M648.93 112.11c0-.07 1.09-2.28 2.09-1.57a3.64 3.64 0 011.31 3.87c-.35 1.81-1.31 4-2.55 4s-1.61.13-2.27-.83a2.44 2.44 0 01-.25-2.07z" fill="#ff884d"/><path d="M648.43 112.28c0-.07 1.08-2.28 2.09-1.57a3.65 3.65 0 011.31 3.86c-.36 1.82-1.32 4.05-2.55 4s-1.62.13-2.27-.83a2.47 2.47 0 01-.26-2.07z" fill="#ffdfcf"/><path d="M649.39 112.84s.37 1.1.51 1.57a2.29 2.29 0 010 1.63 5.81 5.81 0 01-.5.62 16.92 16.92 0 00-.07-2.63 2.57 2.57 0 01.12-1.89c.33-.53.59-1.21 1.08-.58a3.16 3.16 0 01.74 2.48 5.34 5.34 0 01-1 2.87 3.57 3.57 0 01-1.24.75 3 3 0 001.71-1.88c.29-1.3.44-3.33 0-3.68s-.45-.43-.5.06.22 1.24-.13 1-.38-.93-.6-.65-.12.33-.12.33z" fill="#ff884d"/><path d="M649.08 115.02s-.16-1.08-.39-1.05-.27 0-.42.39-.17.5-.51.39-.56-.4-.28.1.38 0 .86.31.31.8.64.84.15-.7 0-.91z" fill="#ff884d"/><path d="M600.29 150.95a68.89 68.89 0 01-7.08 8.17c-4.52 4.52-4.59 6.13-4.59 6.13s5.46-3.21 7.59-4.44 5.29-3.18 5.29-3.18-3 4.17-3 5.64v2.37s9.44-7.83 9-10.53.58-10.85-7.21-4.16z" fill="#ffbe9e"/><path d="M629.35 111.31a6.66 6.66 0 01-1.38-6 9.28 9.28 0 013.74-5.46 2.22 2.22 0 011.29 3.23c-1.17 2.44-4.07 5.5-3.65 8.23z" fill="#cf4504"/><path d="M663 181.82a10.62 10.62 0 01-1.05.25c-4.87.88-6.11.29-9.45 2.88s-6.17 3.56-6.17 4.31 0 1.34 4.23.25 4.75-.56 4.75-.56c-.06.76-2.26 4.5-3.65 4.58-1.67.08-4.09 1.41-6.21 1.41s-2.61-.15-4.23.78-3.34 1.86 0 1.86a49.15 49.15 0 016.7.53s-1.2 1.1 1.62 1.1 7.14-.48 7.14-.48l5.27-8.69s-1.09-1.14 1.55-1.71a21.44 21.44 0 01-.5-6.51z" fill="#ffbe9e"/><path d="M669.44 128.4s-7 2.85-7.52 7.34-1.39 5.26 2.27 8.93 14.45 21.2 14.45 21.2-6.11 8.19-10.66 10.82a52.6 52.6 0 00-8 5.69s-1.85 2.49-.82 5.07 2.71 2.59 2.71 2.59 29.93-15.38 29.93-21.59-9.16-43.87-22.36-40.05z" fill="#fde58d"/><path d="M1054.22 227.42s2.11-9.08 9 8.43 11.26 26.6 8.82 32.5-9.11-3.41-9.11-3.41-16.43-21.36-8.71-37.52z" fill="#e79572"/><path d="M1016.87 338s-2-7.82-4.68-4.62-17.49 27.65-16.91 32.41 4.44 16.18 3.62 18.94-.1 3.22-5.67.31-5.73-3.21-5.89-6-1-11.93-1-11.93l1-5.78s2.94-3.18 3.55-5.25 5.18-20.73 7.86-24.69 5.87 4.46 5.87 4.46.72-50 3.35-53.78 8.14-12.45 8.14-12.45l13.27 3.67s5 13.87 2.5 20.83-12.88 41.72-15.01 43.88z" fill="#ffbe9e"/><path d="M1042.45 368.42s2.19 1.46.53 3.12-9.65-.47-13.3-1.86a4.19 4.19 0 01-2.82-4.86 21.44 21.44 0 00-1.14 5.4c0 2.12.15 3.23 1.62 4.08s6.91-.6 8.31 0 6.8 4.48 10.75 3.89a30.86 30.86 0 008.63-3.21s2.39-1.79-8.24-5.94a9.71 9.71 0 00-4.34-.62z" fill="#9dbdc4"/><path d="M1041.09 261.25s6 1.78 7.19 12.76-3.36 29.21-7.19 36.65-1.68 10.23-3.36 11.91-1.68 1.52-1.68 9.91v31.19l9.11 4.21a3.1 3.1 0 013.84.66c1.88 1.88 4.55 2.12 4.55 4.38s-7.43 1.78-8.75 1.78-4.91-3.29-10.43-3.29-7 1.64-8-1.25 1.4-5.54 0-11.05-7.37-20.63-5.37-25.19 3.91-11.71 3.91-15.93-1.41-11.89-.38-19.08 3.85-39.82 16.56-37.66z" fill="#ffbe9e"/><path d="M1017.65 316.1c3.54-13.77 5.82-16.71 5.9-26.67s11.12-30.82 19.92-24.11l1.51-.88s6 8.83 4.47 19.42-7.59 32.07-9.07 37.47c-1.26 4.56-3.25 11.38-4 17.57l.79 24.14s-.55 2.47-5.41 2.16a27.67 27.67 0 01-9.5-2.71s-8.15-32.61-4.61-46.39z" fill="#fec532"/><path d="M1042.45 366.63s2.19 1.47.53 3.12-9.65-.47-13.3-1.85-3.17-2.78-3.17-2.78a6.42 6.42 0 00-.79 3.32c0 2.12.15 3.22 1.62 4.07s6.91-.6 8.31 0 6.8 4.49 10.75 3.9a31.08 31.08 0 008.63-3.22s-5.79-5.93-8.24-5.93a15.18 15.18 0 01-4.34-.63z" fill="#765ded"/><path d="M991.7 331.96c1.53-5.38 11.75-10.92 11.75-10.92s-1.14-28.55 2.4-40.1 18-18.14 27.22-12.8-12.47 67.44-12.47 67.44-16.6 11.17-19.48 17.07a72.82 72.82 0 00-4.07 9.86s.22 3.49-4.81.42a16.52 16.52 0 01-6.6-8.76z" fill="#fdde2d"/><path d="M1056.55 244.58c3.49-4.69 7-17-6.27-25-9.36-5.64-27.7-7.44-32.65-1.45-5.29 6.4-10.45 19.53-8.37 31.7 1.9 11.09.32 7.61-3.12 18.19s-1.47 12.84-1.47 12.84 6.47 9.25 16.15 9.25 28.21-6.75 28.21-6.75 2.82-4.26.47-13.14c-2.62-9.9 3.38-20.7 7.05-25.64z" fill="#fde58d"/><path d="M1049.37 217.96a14.65 14.65 0 00-.83 4.16c-.12 2.34-2.13 10.39-2.73 11.38-2.27 3.72-9-14-12.52-17.26-2-1.83 4.89-1.14 5.11-5.37a11.55 11.55 0 012.82-6.93z" fill="#ee844c"/><path d="M1048.91 183.71c.52.19 9.33 4.24 10.72 10.29s-1.4 8.7-1.66 10.3.83 1.41.43 3.9-2.37 3.64-2.58 5-2.33 2-2.73 4.51-3.38 2.08-6.19 1.11c-4-1.39-13.38-11.48-14.1-17.63-.74-6.44.44-23.1 16.11-17.48z" fill="#e79572"/><path d="M1057.47 189.08s-4.81 11.09-8.41 13.69-13.29 5.2-13.29 5.2.24 3.84-.62 4.63c-1.7 1.59-9.7 3.8-9.7 3.8s1.18-6.63 3.12-8a43.52 43.52 0 004.35-3.84s-8.65-17.26 5.49-23.16c15.7-6.59 19.06 7.68 19.06 7.68z" fill="#a38588"/><path d="M1040.67 203.51c0-.07-1.35-2.2-2.3-1.37a3.74 3.74 0 00-.91 4.07c.56 1.8 1.78 4 3 3.79s1.65 0 2.21-1.09a2.48 2.48 0 000-2.13z" fill="#ff884d"/><path d="M1041.2 203.63c0-.07-1.36-2.2-2.3-1.37a3.72 3.72 0 00-.91 4.07c.56 1.8 1.78 4 3 3.79s1.65-.05 2.21-1.1a2.48 2.48 0 000-2.13z" fill="#e79572"/><path d="M1040.28 204.31s-.26 1.14-.35 1.64a2.37 2.37 0 00.16 1.66 4.61 4.61 0 00.58.57 17.49 17.49 0 01-.22-2.68 2.63 2.63 0 00-.33-1.9c-.39-.5-.73-1.16-1.16-.47a3.21 3.21 0 00-.48 2.6 5.46 5.46 0 001.38 2.8 3.94 3.94 0 001.34.63 3.09 3.09 0 01-1.94-1.73c-.44-1.29-.81-3.33-.45-3.73s.41-.48.51 0-.09 1.28.24 1 .28-1 .53-.73.19.34.19.34z" fill="#ff884d"/><path d="M1040.83 206.48s.05-1.11.28-1.11.28 0 .47.36.23.48.56.34.53-.47.29.06-.38 0-.83.42-.23.84-.56.92-.23-.7-.15-.92z" fill="#ff884d"/><path d="M1059.09 197.72s2.5-4.24 1-7.87a5.37 5.37 0 00-5.14-3.39 2.27 2.27 0 00-.85 3.5c1.63 2.29 5.01 4.97 4.99 7.76z" fill="#a38588"/><path d="M1085.76 394.93c1.39-.46 2.79-.46 3.72-1.39a5.6 5.6 0 01-2.33 2.32c1.4 0 2.33-.93 3.26-1.39.46 0 .93 0 .46.46-.93.47-1.39 1.4-2.32 1.86 1.39 0 2.32-1.39 3.72-1.39-.93.46-.93 1.86-1.86 2.33.93-.47 1.86-1.87 3.25-1.87a3.54 3.54 0 00-.46 2.33c.93-.93.46-2.33 1.39-2.79a4 4 0 001.4 2.79c.46-.93-.47-1.86-.47-2.79.93.93 1.87 1.39 2.8 2.33a4 4 0 00-1.4-2.8c1.4 0 1.86 1.86 3.26 1.86 0-.93-1.4-1.39-1.4-2.32.93.46 1.86 1.39 3.26 1.39l-1.86-1.86c1.39 0 2.32 1.4 3.72 1.4-.47-.93-2.33-.93-2.33-2.33 1.4 0 2.33.93 3.26 1.4-.47-.93-1.4-1.4-1.86-2.33.93 1.4 2.79.93 3.72 1.86-.47-1.39-1.86-1.39-2.33-2.33 1.4 0 2.33.94 3.26 1.4.46 0 .46 0 .46-.46-.46-.94-1.86-.47-2.32-1.87 1.39 0 2.32 1.4 3.72 1.4-.46-.93-1.86-.93-2.33-2.33 1.4.47 2.33.93 3.73 1.4a1.6 1.6 0 01-.93-.47c-.47-.46-.47-.93-1.4-1.39 1.4.46 2.33.93 3.72 1.39-.46-1.39-1.86-1.39-2.32-2.32 1.39 0 2.32.93 3.25 1.39.47 0 .47 0 .47-.46-.47-.93-1.86-.47-2.33-1.86 1.4 0 2.33.93 3.26 1.39.46 0 .46 0 .46-.46-.46-.93-1.86-.47-2.32-1.86 1.39.46 2.32.93 3.72 1.39-.47-.93-1.86-.93-2.33-1.86 1.4-.47 2.33.93 3.72.93-1.39 0-1.39-1.86-2.79-1.86 1.4.46 2.79.46 4.19 1.4-.93-.94-1.86-1.4-2.79-2.33 1.39 0 2.79 1.39 4.19 1.39-.94-.93-1.87-1.39-2.8-2.32 1.4 0 2.8 1.39 4.19 1.39-.93-.93-1.86-1.39-2.79-2.32 1.4 0 2.79 1.39 4.19 1.39-1.4-.46-1.86-1.39-2.79-2.32 1.39.93 3.25.46 4.18 1.86-.93-.93-1.39-1.86-2.79-2.33 1.4 0 2.79 1.4 4.19 1.4a9.88 9.88 0 00-2.79-1.87c-.47-.46 0-.46.46-.46 1.4.46 2.33.93 3.72 1.4a9.67 9.67 0 00-2.79-1.87c-.46-.46 0-.46.47-.46a4.21 4.21 0 003.25 1.39c-.46-.93-1.86-1.39-2.32-2.32.93.93 2.79.93 3.72 1.86a5.69 5.69 0 00-2.33-2.33c1.4 0 2.33.93 3.72 1.4-.46-1.4-2.32-.93-2.79-2.33 1.4.47 2.79.47 3.72 1.4.47.46.94 0 .47-.47a9.63 9.63 0 01-2.79-1.86l4.19 1.4c-.93-.93-1.87-1.87-3.26-1.87a13.61 13.61 0 014.65.94 7.67 7.67 0 01-3.26-1.87c1.4.47 2.33 0 3.73.93a.45.45 0 00.46-.46c-1.39 0-2.32-.93-3.72-1.4 1.4-.46 3.26.47 4.65.47a8.37 8.37 0 00-4.65-.93c1.4-.47 3.26-.47 4.65-.93-1.39-.47-3.25.46-4.65.46.93-1.39 2.33-.93 3.26-1.86-1.4-.47-2.79.93-4.19.93a9.63 9.63 0 012.79-1.86c-1.39 0-2.79 1.4-4.19.93 1.4 0 1.4-1.86 2.8-1.86-1.87-.47-2.33 1.39-4.19 1.39.93-.93 1.86-1.39 2.79-2.32-1.4 0-2.79 1.39-4.19 1.39.93-.93 1.86-1.39 2.79-2.32-1.39 0-2.79 1.39-4.18 1.39 1.39-.46 1.39-1.39 2.32-2.32a7.56 7.56 0 01-3.25 1.86c0-.93.93-1.4 1.39-2.33-.93.93-1.86 1.4-2.79 2.33v-2.79c-.93.93-.46 1.86-.93 2.79-.93-.93-.93-1.86-1.86-2.79 0 .93.93 1.86.47 2.79-.93-.93-1.87-1.4-2.8-2.33a4 4 0 011.4 2.79c-.93-.93-1.86-1.86-3.26-1.86 0 1.4 2.33 1.4 1.86 2.33-.46.46-1.39-.47-2.32-1.4a1.73 1.73 0 00-1.4-.46c.93.46 1.4 1.86 2.33 2.32-1.4 0-2.33-1.39-3.72-1.39l1.86 1.86c-1.4 0-2.33-.93-3.26-1.4 0 1.4 2.33 1.4 1.86 1.86-.93.94-2.32-.93-3.72-.93.47.93 2.33.93 2.33 2.33-1.4 0-2.33-.93-3.26-1.4l1.86 1.87c-1.39-.47-2.32-.93-3.72-1.4 0 1.4 2.33.93 2.33 2.33-1.4 0-2.33-.93-3.26-1.4-.47 0-.47 0-.47.47.47.46 1.4.46 1.86.93.47 0 .47.93.47.93-1.4.46-2.33-1.4-3.72-1.4.46.93 1.86.93 2.32 1.86-1.39.47-2.32-.46-3.25-.93.93.47.93 1.86 2.32 1.86-1.39-.46-2.79-.46-4.18-.93 1.39 0 1.39 1.87 2.79 1.87-1.4-.47-2.79-.47-4.19-1.4.93.93 1.86 1.4 2.79 2.33-1.39 0-2.79-1.4-4.18-1.4.46 1.4 2.32.93 2.79 2.33-1.4 0-2.33-1.4-3.72-1.4 0 .47.46.47.46.93.47.47 1.4.47 1.86.93-1.39.47-2.32-.93-3.72-.93a1.6 1.6 0 01.93.47c.47.46.47.93 1.4 1.39-1.4-.46-2.33-.93-3.73-1.39 0 1.39 2.33.93 2.33 2.32-1.4 0-2.33-.93-3.26-1.39-.46 0-.93 0-.46.46a9.67 9.67 0 012.79 1.87c-1.4-.47-2.33-.94-3.72-1.4.46 1.4 1.86 1.4 2.32 2.33-1.39 0-2.32-1.87-4.18-1.4 1.39 0 1.39 1.86 2.79 1.86-1.4 0-2.79-.93-4.19-1.39.93.93 1.86 1.39 2.79 2.32l-4.18-1.39c.93.93 2.32.93 2.79 2.32-.93-.93-2.33-.93-3.72-1.39.93.93 1.86 1.39 2.79 2.32-1.4-.46-2.79-1.39-4.19-1.39.93.46 1.86 1.39 2.79 1.86-1.39 0-2.79-1.4-4.19-.93 1.4 0 1.87 1.86 3.26 1.86-1.39-.46-3.26-.46-4.65-1.4.93 1.4 2.33.94 3.26 2.33a13.82 13.82 0 00-4.19-.93c.93.47 2.32.93 3.26 1.4.46.46 0 .46-.47.46-1.4-.93-2.33-.46-3.72-.93.93.93 2.32.93 3.72 1.4h-4.65c1.39 0 2.79.93 4.18.46-1.39.93-2.79.47-4.18.93h4.65c-1.4.47-2.33.93-3.72 1.4 1.39 0 2.79-.93 4.19-.47-.94.94-2.33.47-2.8 1.87.93-.93 2.33-.93 3.73-1.4 0 1.4-2.33.93-2.33 2.33 1.4-.47 2.33-1.4 3.72-1.4a1.64 1.64 0 00-.93.47c-.46.46-.46.93-1.39 1.39z" fill="#ff8c6e"/><path d="M1130.91 368.03a8.34 8.34 0 00-3.57.9c.89-.45.89-1.79 2.23-1.79-1.34 0-2.68 1.34-4 1.34.45-.9 1.79-.9 2.23-1.79.45-.45 0-.45-.44-.45-.9.9-2.24.9-2.68 1.79 0-.89 1.34-1.79 1.34-2.68-.9.89-1.79 1.34-2.68 2.23a4.07 4.07 0 01.44-2.23l-.44-.45c-.45.9 0 2.24-.9 2.24-.89.44-.89-1.34-1.79-2.24 0 .9.9 1.79.45 2.68-.45-.89-1.79-1.34-2.68-2.23a3.87 3.87 0 011.34 2.68c-.89-.89-1.79-1.79-3.13-1.79.45.9 1.79.9 1.79 2.24-1.34 0-2.23-.9-3.13-1.34.9.44.9 1.79 1.79 1.79-1.34 0-2.24-1.35-3.58-1.35.9.9 1.34 1.35 2.24 2.24-1.34 0-2.24-1.34-3.58-1.34.9.45.9 1.79 2.24 1.79-1.34-.45-2.68-.45-4-1.34.89.89 1.78 1.34 2.68 2.23-1.34 0-2.68-1.34-4-1.34.89.89 1.78 1.34 2.68 2.24-1.34 0-2.68-1.35-4-1.35 1.35.45 1.79 1.35 2.69 2.24-.9-.89-2.69-.45-3.58-1.34.89.45.89 1.79 2.24 1.79-1.35-.45-2.69-.45-4-1.34.9.89 1.79 1.34 2.68 2.23-1.34 0-2.68-1.34-4-1.34.9.89 1.79 1.34 2.68 2.23-1.34 0-2.68-1.34-4-1.34.9.9 1.79 1.34 2.68 2.24-1.34-.45-2.68-1.34-4-1.34 1.34 0 1.34 1.79 2.68 1.79-1.34 0-2.23-.9-3.57-.9.89.45 1.34 1.34 2.23 1.79-1.34-.45-2.23-.89-3.57-1.34.44 1.34 1.78 1.34 2.23 2.23-1.34 0-2.23-.89-3.13-1.34-.44 0-.44 0-.44.45.44.89 1.78.45 2.23 1.79-1.34 0-2.23-.9-3.13-1.34-.44 0-.44 0-.44.44.44.9 1.78.45 2.23 1.79-1.34-.44-2.23-.89-3.57-1.34.89.45 1.34 1.34 2.23 1.79-1.34-.45-2.23-.89-3.58-1.34.9.89 1.35 1.79 2.69 2.23-1.34 0-2.24-.89-3.58-1.34-.45 0-.89 0-.45.45a9.33 9.33 0 012.69 1.79c-1.35-.45-2.24-.9-3.58-1.34-.45 0-.89 0-.45.44a9.36 9.36 0 012.68 1.79c-1.34 0-2.68-1.34-4-1.34 1.34.45 1.79 1.34 2.68 2.24-1.34-.9-2.68-.9-4-1.79.9.89 1.34 1.79 2.68 2.23-1.34 0-2.68-1.34-4-1.34a9.29 9.29 0 002.68 1.79c.45.45 0 .45-.44.45-1.35-.45-2.24-.9-3.58-1.34.89 1.34 2.23 1.34 3.13 2.23l-4-1.34c.44.9 1.78 1.34 2.68 1.79a13.23 13.23 0 01-4-.89 19.2 19.2 0 003.12 1.78 13.13 13.13 0 01-4.46-.89c1.34.89 2.68.89 4 1.79-1.34.45-3.13-.45-4.47-.45 1.34.9 2.68.45 4 .9-1.34.89-2.68 0-4 .89 1.34.45 3.13-.45 4.47-.45-.9.9-2.24.9-3.13 1.79a12.94 12.94 0 014-.89c-1.34 0-1.34 1.78-2.68 1.78 1.34.45 2.23-1.34 3.57-.89-.89.45-1.34 1.34-2.23 1.79 1.34-.45 2.68-.45 3.58-1.34 0 1.34-2.24.89-2.24 2.23 1.34 0 2.24-.89 3.13-1.34.45 0 .45 0 .45.45-.45.89-1.34.89-2.24 1.34 1.34.45 2.24-.89 3.58-.89-.9.44-.9 1.79-2.24 1.79 1.34 0 2.24-.9 3.13-1.35.45 0 .45 0 .45.45-.9.45-1.34.9-1.34 1.79.89-.45 1.34-1.79 2.23-1.79.45-.45.45.9 0 1.79l.45.45c.45-.9.45-1.79.89-2.69 0 1.35 1.79 1.35 1.34 2.69a4.1 4.1 0 00-.44-2.24l.44-.45c.45.9 1.79.9 2.24 2.24 0-.89-.9-1.79-.9-2.68a9.64 9.64 0 002.68 1.79c0-.9-1.78-1.35-1.34-2.24.9-.45 1.79 1.34 2.69 1.79.44.45.44 0 .44-.45-.44-.89-1.79-.89-1.79-1.79 1.35 0 2.24.9 3.13 1.34 0-1.34-1.78-1.34-1.78-2.23 1.34.44 2.23.89 3.57 1.34-1.34 0-.89-1.79-2.23-1.79 1.34 0 2.23.89 3.12 1.34.45 0 .45 0 .45-.45-.45-.89-1.79-.89-2.23-1.78 1.34 0 2.23 1.34 3.57 1.34l-2.23-2.24c1.34.9 2.68.45 3.57 1.79a2.84 2.84 0 00-2.23-2.23c1.34 0 2.23.89 3.57 1.34 0-1.34-1.78-1.34-2.23-2.24 1.34 0 2.23.9 3.13 1.34.44 0 .44 0 .44-.44-.44-.9-2.23-.45-2.23-1.79 1.34 0 2.23 1.34 3.57 1.34-.44-.9-1.78-1.34-2.23-2.24 1.34.45 2.23.9 3.57 1.34a1.58 1.58 0 01-.89-.44c-.45-.45-.45-.9-1.34-1.34 1.34.44 2.23.89 3.58 1.34-.45-1.34-1.79-1.34-2.24-2.24 1.34 0 2.24.9 3.13 1.34.45 0 .45 0 .45-.44-.45-.45-1.34-.45-1.79-.9-.45 0-.45-.89-.45-.89 1.34-.45 2.24 1.34 3.58 1.34-.9-.9-1.79-1.34-2.68-2.24.89.9 2.68.45 3.57 1.34-.89-.44-.89-1.78-2.23-1.78 1.34.44 2.68.44 4 1.34-.9-.9-1.79-1.34-2.68-2.24 1.34 0 2.68 1.34 4 1.34a9.64 9.64 0 00-2.68-1.79c-.45-.44 0-.44.44-.44.9.89 2.24.44 3.13 1.34 0-1.34-1.79-.9-2.23-1.79-.45-.45 0-.45.44-.45a4 4 0 003.13 1.34 1.58 1.58 0 01-.89-.44c-.45-.45-.45-.9-1.34-1.34a5 5 0 013.57 1.34c-.44-.9-1.78-1.34-2.68-2.24 1.34.45 2.68.45 3.58 1.34.44.45.89 0 .44-.44a9.64 9.64 0 01-2.68-1.79l4 1.34a9.16 9.16 0 00-2.68-1.79c-.44-.45 0-.45.45-.45a5 5 0 003.58 1.34c-1.35 0-1.79-2.23-3.13-1.78 1.34-.45 2.68 1.34 4 .89-1.34 0-1.34-1.79-2.68-1.79 1.34-.45 2.68.9 4 .9-.89-.9-2.23-.9-3.13-1.79a13.38 13.38 0 004.47.89c-1.34-.45-2.23-1.34-3.57-1.79a13.12 13.12 0 004.46.9c-1.34-.45-2.23-.9-3.57-1.34h4.47a13.13 13.13 0 01-4.47-.9c1.34.45 3.13-.44 4.47-.44h-4.47c.89-.9 2.23-.9 3.57-1.35-1.34 0-3.12.9-4.46.45 1.34 0 2.23-.89 3.12-1.79-1.34.9-2.68.9-4 1.34.9-.89 1.79-1.34 2.68-2.23l-4 1.34c.89-.45 1.34-1.79 2.68-1.79z" fill="#e79572"/><path fill="#cf4504" d="M1097.41 393.27l32.7-18.89-10.83-6.26-32.7 18.89 10.83 6.26z"/><path d="M1111.6 372.58l-17.41 10.06 10.9 6.3 17.41-10.06-.51-.7a16.46 16.46 0 00-4.85-4.53h-.05a7.41 7.41 0 00-4.34-1.16z" fill="#f36424"/><path d="M1104.64 376.58l-3.87 2.24 10.9 6.3 3.87-2.24-.52-.7a16.42 16.42 0 00-4.85-4.52h-.05a7.4 7.4 0 00-4.34-1.15z" fill="#ff8c6e"/><path d="M1104.64 376.58l7.39 4.28 3.51 2-.52-.7a16.42 16.42 0 00-4.85-4.52h-.05a7.4 7.4 0 00-4.34-1.15z" fill="#f36424"/><path d="M1108.35 381.58l2-1.14a.79.79 0 00.39-.67v-.74a.78.78 0 00-1.17-.67l-2.3 1.32a.78.78 0 00-.28 1.07l.32.55a.78.78 0 001.04.28z" fill="#ff716e"/><path d="M1100.77 378.84l10.9 6.3-.52-.7a16.55 16.55 0 00-4.84-4.53h-.06a7.47 7.47 0 00-4.34-1.15z" fill="#f36424"/><path d="M1094.19 382.64l10.9 6.3-.52-.7a16.55 16.55 0 00-4.84-4.53c-2.72-1.73-3.37-1.52-4.35-1.16z" fill="#e5773e"/><path d="M996.9 373.14c.06.16.22.57.44 1.1a6.34 6.34 0 00-.44-1.1z" fill="#765ded"/><path d="M983.8 364.89c.78 2.61 2.8 11 2.59 13-.18 1.65-.11 5.63 3.52 7.73s11.13 1.41 11.13 1.41a8.32 8.32 0 00.84-1.44 3 3 0 00-.31-3.32c-1.1-1.1-2.66-4.39-3.67-6.74-.18-.44-.37-.85-.53-1.2a3.89 3.89 0 01.25 1.35 1.35 1.35 0 01-1.53 1.48s-4.88 1.78-6.19-2.92-2-13.74-2-13.74a10.7 10.7 0 00-3.36 2 2.37 2.37 0 00-.74 2.39z" fill="#9dbdc4"/><path d="M984.55 362.58a2.18 2.18 0 000 1 98.39 98.39 0 012.56 13c0 3.33-.08 5.56 3.56 7.66s11.12 1.41 11.12 1.41l.06-.06a3 3 0 00-.31-3.32c-1.1-1.1-2.66-4.39-3.67-6.74a1.77 1.77 0 01-.28.15 1.35 1.35 0 01-1.53 1.48 7.43 7.43 0 01-5.82-4.71c-1.93-4.33-2.36-11.95-2.36-11.95a10.7 10.7 0 00-3.33 2.08z" fill="#765ded"/><path d="M971.48 364.36l-9.7 42.33-4.92 2.89s.35-1.85.59-3.25c.14-.84-.7-1-1.77-.39-3.44 2-10.47 6.17-13.54 7.88a3.72 3.72 0 00-1.77 2l-.9 3.78-4.6 2.66 10-42.32zm-5.84 8c.15-.67-.47-.85-1.31-.37l-14.56 8.41a2.84 2.84 0 00-1.31 1.52l-1.08 4.55c-.15.67.48.85 1.31.37l14.57-8.41a2.81 2.81 0 001.3-1.52z" fill="#ff8aba"/><path d="M971.48 365.12l-9.7 42.33-4.92 2.84s.35-1.85.59-3.25c.14-.84-.7-1-1.77-.39-3.44 2-10.47 6.17-13.54 7.88a3.76 3.76 0 00-1.77 2l-.9 3.78-4.6 2.66 10-42.32zm-5.84 7.95c.15-.67-.47-.85-1.31-.37l-14.56 8.42a2.79 2.79 0 00-1.31 1.51l-1.08 4.55c-.15.67.48.85 1.31.37l14.57-8.41a2.81 2.81 0 001.3-1.52z" fill="#fe76a9"/><path d="M944.58 379.9l10 53.64 3.59-2.09s-.35-2.46-.59-4.38a3.77 3.77 0 011.77-3.32c3.44-1.92 10.47-5.86 13.54-7.73a1.84 1.84 0 01.66-.26.94.94 0 011.1.87l.91 4.79 1.33-.77 3.27-1.89-10-53.64zm5.85 10.08l-1.07-5.76a2.83 2.83 0 011.31-2.59l14.56-8.41a1.15 1.15 0 01.46-.16.7.7 0 01.85.64l1.07 5.77a2.82 2.82 0 01-1.31 2.58l-13.66 7.9-.9.52c-.64.37-1.19.17-1.31-.49z" fill="#f25c99"/><path d="M944.58 379.9l10 53.64v.09l4.92-2.85s-.35-2.45-.59-4.38a3.74 3.74 0 011.76-3.31c3.21-1.79 9.53-5.34 12.87-7.33l.68-.41c.85-.52 1.6-.26 1.76.61l.9 4.69v.1l4.59-2.66-10-53.73-1.32.76zm8.06 10a.69.69 0 01-.87-.64l-1.07-5.68a2.83 2.83 0 011.31-2.59l13.68-7.9.88-.51c.64-.37 1.19-.17 1.31.48l1.07 5.78a2.83 2.83 0 01-1.31 2.58l-14.56 8.42a1.06 1.06 0 01-.44.11z" fill="#ff8aba"/><path d="M954.57 434.3h.12a.67.67 0 00.53-.78l-10-53.71a.66.66 0 00-.64-.55c-.49.07-.8.27-.66.52l-10 42.32a.68.68 0 00.5.81.66.66 0 00.8-.5l9.27-39.24 9.41 50.59a.67.67 0 00.67.54z" fill="#f25c99"/><path d="M963.56 395.08c.43.91 1.72 1.1 2.87.42a2.42 2.42 0 001.29-2.88c-.43-.91-1.72-1.09-2.87-.41a2.4 2.4 0 00-1.29 2.87z" fill="#331a1c"/><path d="M957.81 411.02a.73.73 0 00.71-.56l1.24-5 3.9-2.17-1.39 3.49 4.25 3a.71.71 0 00.42.14.73.73 0 00.43-1.33l-3.32-2.38 1.79-4.5.3-3.54 2.53.32-.69 2.86a.73.73 0 00.54.88h.17a.73.73 0 00.71-.56l1.08-4.44-4.21-.54.12-1.41a.73.73 0 00-.66-.8.74.74 0 00-.78.67l-.16 1.73-3.79 2.29-2.08-1.09a.81.81 0 00-.34-.08.74.74 0 00-.65.39.78.78 0 000 .56.73.73 0 00.36.43l2.8 1.47 3.58-2.12-.21 2.46-5.92 3.29-1.39 5.63a.74.74 0 00.54.89z" fill="#331a1c"/><path d="M1067.66 259.58s6 4.23 3.65 8.78-23 9.5-24.28 9.5-15.51-1.87-10.33-3.13c21.16-5.15 22.3-17.78 30.96-15.15z" fill="#e79572"/><path d="M1015.33 264.01l4.16 6a5.58 5.58 0 006.34 4.36l4.47-.72s3.14-5.15-1.3-7.54-7.7-3.09-8.43-4.05-5.24 1.95-5.24 1.95z" fill="#3d2d9d"/><path fill="#9dbdc4" d="M1006.105 245.658l2.507-1.873 100.812 135.004-2.508 1.872z"/><path d="M1019 217.09c.08 0 .09.09.23.27 1 1.22 5 6.34 1.33 10-4.15 4.15-5.1 3.71-9.68 6.35a18.5 18.5 0 00-6.32 5.5s2.76 0 4.58 5.48 3 9.39 4.23 10.11-1.6 3.22-1.6 3.22-18.61-11.79-18.61-18.22 17.28-24.29 25.84-22.71z" fill="#e79572"/><path d="M1011.27 246.48l9.18 12.3s3.21.52 3.21 2.77a4.94 4.94 0 001.94 3.64s3.8 3.89 2.86 4.83-1.29.78-1.29.78l-10.47-5.4-12.22-12.37s-3.38-1.54 2.09-4.7 4.7-1.85 4.7-1.85zM1035 273.76l-5.2 5s-2.36 1.7-.85 3.21a2.42 2.42 0 003.1.41 1.87 1.87 0 001 2.3 2.22 2.22 0 002.64-.4s-1.13 1.4.43 2a4.53 4.53 0 002.13-.11s-.11 1.08 1.63.62a4.91 4.91 0 003.67-3.32 4.54 4.54 0 011.3-2.36l11.8-4.86a8.41 8.41 0 00.77-7.85c-1.67-3.76-5.51-1.74-5.51-1.74z" fill="#765ded"/><path d="M1024.43 221.68s-2.77-7.62-9.78-5.38-16 10.47-16 10.47-.45 5 2.24 7.66 7.25 4.1 7.25 4.1 16.29-5.87 16.29-16.85zM1053.72 221.91s5.46.4 8.83 10.53 5.24 12.22 5.24 12.22a11.2 11.2 0 01-5.34 6.81l-7.19 4.15-3.1-9.79.69-23.92z" fill="#fde58d"/><path d="M456 30.11c0 12.39-9.89 28.69-20.64 34.89s-21.19-.53-21.19-12.93 8.75-27.53 19.5-33.73S456 17.71 456 30.11zm-22.31 29.47c9-5.17 16.26-17.79 16.26-28.13s-5.35-13.77-14.32-8.6-16.26 17.79-16.26 28.14 5.35 13.76 14.32 8.59z" fill="#f7f6ff"/><path d="M452.78 32.19c0-10.34-7.29-14.55-16.26-9.38s-16.26 17.77-16.26 28.14 7.29 14.55 16.26 9.37 16.26-17.74 16.26-28.13z" fill="#fff"/><path d="M456 30.33c0 12.39-8.75 27.52-19.5 33.72S417 65.21 417 52.81s8.75-27.53 19.5-33.73S456 17.93 456 30.33zm-19.5 30c9-5.17 16.26-17.79 16.26-28.13s-7.29-14.55-16.26-9.38-16.24 17.76-16.24 28.13 7.29 14.55 16.26 9.37z" fill="#f7f6ff"/><path fill="#aea6ff" d="M436.47 27.16l-.95.54v-3.41l.95-.55v3.42zM430.41 32.24l-.82 1.01-1.48-2.11.82-1.01 1.48 2.11zM425.85 39.73l-.48 1.21-2.56-.22.47-1.22 2.57.23zM424 47.63v1.09l-2.96 1.71v-1.09l2.96-1.71zM425.37 53.83l.48.67-2.57 3.19-.47-.67 2.56-3.19zM429.59 56.66l.82.08-1.48 3.81-.82-.07 1.48-3.82zM435.52 55.37l.95-.55v3.42l-.95.54v-3.41zM441.58 50.29l.82-1.01 1.48 2.1-.81 1.02-1.49-2.11zM446.15 42.8l.47-1.22 2.57.23-.48 1.22-2.56-.23zM447.99 34.89V33.8l2.96-1.71v1.09l-2.96 1.71zM446.62 28.7l-.47-.68 2.56-3.18.48.66-2.57 3.2zM442.4 25.86l-.82-.07 1.49-3.81.81.07-1.48 3.81z"/><path d="M436.2 28.09s.08.88.18 2.21c.05.67.11 1.45.16 2.29s.1 1.74.15 2.64.16 1.76.17 2.63a20.84 20.84 0 01-.17 2.47c-.1.75-.21 1.4-.31 1.86s-.18.74-.18.74l-.14.09a5.27 5.27 0 01-.18-.54 9.56 9.56 0 01-.31-1.5 14.86 14.86 0 01-.17-2.28c0-.88.13-1.88.17-2.83s.09-1.9.15-2.81.11-1.74.16-2.47a22 22 0 01.18-2.42z" fill="#d5d1ff"/><path d="M426.93 52.22s2.3-2.63 4.65-5.21c.58-.66 1.16-1.32 1.71-1.91s1.13-1.12 1.63-1.55.91-.78 1.23-1 .48-.36.48-.36l.06.05-.34.51c-.22.32-.56.74-1 1.26s-.93 1.08-1.49 1.67-1.22 1.18-1.85 1.78c-2.5 2.44-5.05 4.83-5.05 4.83z" fill="#ebe9ff"/><path d="M442.88 30.9s-.33.71-.85 1.75c-.25.53-.55 1.14-.87 1.79s-.68 1.34-1 2-.66 1.4-1 2a14.74 14.74 0 01-1.11 1.65c-.36.46-.68.84-.92 1.09a5 5 0 01-.4.38l-.1-.05s0-.2.14-.54.27-.8.49-1.34a15.22 15.22 0 01.87-1.79c.37-.62.84-1.24 1.26-1.9l1.24-1.91c.4-.61.79-1.17 1.11-1.65.65-1 1.1-1.61 1.1-1.61z" fill="#d5d1ff"/><path d="M436.88 41.74a1.66 1.66 0 01-.75 1.31c-.42.24-.76 0-.76-.44a1.67 1.67 0 01.76-1.31c.42-.24.75-.04.75.44z" fill="#fcfbff"/><path d="M435.79 43.9a1.19 1.19 0 01-1.17-1.29 2.42 2.42 0 011.13-2 1.42 1.42 0 01.72-.21 1.21 1.21 0 011.17 1.3 2.43 2.43 0 01-1.14 2 1.34 1.34 0 01-.71.2z" fill="#d5d1ff"/><path d="M449.25 22.79l-22.84 39.52a8.48 8.48 0 01-5.09-5.09l21-36.29a8.56 8.56 0 016.93 1.86z" fill="#fff" opacity=".29"/><g opacity=".6"><path fill="#fff" d="M1194.14 214.98l-3.73-1.98-33.08-19.12v-5.73l3.73 1.98 33.08 19.11v5.74zM1194.14 249.11l-3.73-1.99-33.08-19.11v-5.74l3.73 1.98 33.08 19.11v5.75zM1237.38 274.08l-3.73-1.98-33.1-19.13v-5.74l3.72 1.99 33.11 19.12v5.74zM1237.38 239.96l-3.73-1.99-33.1-19.12v-5.74l3.72 1.98 33.11 19.13v5.74z"/><path fill="#fbfbff" d="M1191.65 210.84l-31.83-18.39v-26.39l-2.06-1.18v28.76l33.89 19.57v-2.37zM1191.65 244.97l-31.83-18.4v-27.84l-2.06-1.19v30.22l33.89 19.58v-2.37z"/><path fill="url(#k)" d="M1191.65 210.68v-26.23l-31.83-18.39v26.22l31.83 18.4z"/><path fill="url(#l)" d="M1191.65 244.8v-27.68l-31.83-18.39v27.68l31.83 18.39z"/><path fill="#fbfbff" d="M1234.89 235.82l-31.86-18.41v-26.38l-2.05-1.19v28.76l33.91 19.59v-2.37zM1234.89 269.94l-31.86-18.4v-27.85l-2.05-1.19v30.22l33.91 19.59v-2.37z"/><path fill="url(#m)" d="M1234.89 235.65v-26.22l-31.86-18.4v26.22l31.86 18.4z"/><path fill="url(#n)" d="M1234.89 269.77v-27.68l-31.86-18.4v27.68l31.86 18.4z"/><path d="M1238.6 207.76v70.1l-41.06-23.71v-70.09l-2.47-1.42v70.08L1154 229.01v-70.09l-5.58-3.28-.34 75.72 96.13 55v-75.37z" fill="#fffefc"/><path d="M1195.07 182.64l-41-23.72V229l41.06 23.72zm-37.31-17.76l2 1.18 31.84 18.39v28.77l-33.89-19.58zm0 32.66l2 1.19 31.84 18.39v30.22l-33.89-19.58zM1238.61 207.77l-41.06-23.71v70.08l41.06 23.72zM1201 189.84l2 1.19 31.86 18.4v28.76L1201 218.58zm0 32.67l2 1.18 31.86 18.41v30.22L1201 252.73z" fill="#f7ecfd"/><path fill="#fbfbff" d="M1244.22 210.99v75.36l2.05-1.19v-75.45l-2.05 1.28z"/></g><g opacity=".6"><path fill="#fff" d="M1193.91 139.79l-3.73-1.99-33.08-19.11v-5.74l3.73 1.99 33.08 19.1v5.75zM1193.91 173.91l-3.73-1.98-33.08-19.12v-5.74l3.73 1.99 33.08 19.11v5.74zM1237.15 198.89l-3.73-1.99-33.1-19.12v-5.74l3.73 1.98 33.1 19.13v5.74zM1237.15 164.76l-3.73-1.98-33.1-19.12v-5.75l3.73 1.99 33.1 19.12v5.74z"/><path fill="#fbfbff" d="M1191.42 135.65l-31.83-18.4V90.87l-2.06-1.19v28.76l33.89 19.58v-2.37zM1191.42 169.77l-31.83-18.39v-27.85l-2.06-1.18v30.22l33.89 19.57v-2.37z"/><path fill="url(#o)" d="M1191.42 135.48v-26.22l-31.83-18.39v26.22l31.83 18.39z"/><path fill="url(#p)" d="M1191.42 169.6v-27.68l-31.83-18.39v27.68l31.83 18.39z"/><path fill="#fbfbff" d="M1234.73 160.62l-31.93-18.4V115.6l-2.05-1.07v28.88l33.98 19.53v-2.32zM1235.07 194.68l-31.93-18.41v-27.84l-2.05-1.19v30.22l33.91 19.59.07-2.37z"/><path fill="url(#q)" d="M1234.73 160.46v-26.34l-31.93-18.52v26.45l31.93 18.41z"/><path fill="url(#r)" d="M1235.07 194.51v-27.68l-31.93-18.4v27.68l31.93 18.4z"/><path d="M1148.44 75.03v80.61l5.58 3.28 41 23.72 2.47 1.42 41.06 23.73 5.62 3.2v-80.63zm5.46 76.3V83.58l41.1 23.73v67.73zm43.64 25.14v-67.73l41.06 23.71v67.76z" fill="#fffefc"/><path d="M1195 107.43l-41.06-23.72v70.09l41.06 23.72zm-37.43-17.75l2.06 1.19 31.83 18.39v28.76l-33.89-19.58zm0 32.67l2.06 1.18 31.83 18.4v30.22l-33.93-19.57zM1238.61 132.46l-41.06-23.72v70.09l41.06 23.75zm-37.86-17.88l2 1.07 31.93 18.52v28.82l-34-19.53zm.23 32.67l2 1.18 31.7 18.41.16 30.22-33.84-19.64zM1243.99 130.47l2.05-1.18-95.78-55.33-2.05 1.19 95.78 55.32z" fill="#f7ecfd"/><path fill="#fbfbff" d="M1244.22 130.36v80.63l2.05-1.14v-80.68l-2.05 1.19z"/></g></g></svg>