<svg id="Layer_1" data-name="Layer 1" xmlns="http://www.w3.org/2000/svg" viewBox="0 0 256 256"><defs><style>.cls-1{fill:none;}</style></defs><title>icons</title><path class="cls-1" d="M55.84,232.51H24.49V190.67l48.77,0,13.93,41.81Z"/><path class="cls-1" d="M81.17,151.27,73.26,190.7l-48.77,0V170.46a146.28,146.28,0,0,1,4.39-35.64,31.87,31.87,0,0,1,11.35-17.45,32.94,32.94,0,0,1,12.13-5.89,32.25,32.25,0,0,1,7.59-.9,33.8,33.8,0,0,1,13.31,2.75c.56.24,1.15.52,1.71.8A33.35,33.35,0,0,1,86.81,124a69.6,69.6,0,0,0,27.31,21.73l1.82.81a67.24,67.24,0,0,0,20,5.4V166C109.49,164.72,92.52,158.38,81.17,151.27Z"/><path class="cls-1" d="M226.55,180.25V236H136V180.25Z"/><path class="cls-1" d="M233.51,166.32v13.93H129V166.32H233.51Z"/><path class="cls-1" d="M149.9,194.19h62.71v27.87H149.9Z"/><path class="cls-1" d="M212.61,114.06v24.39a7,7,0,0,1-7,7h-7a7,7,0,0,1-7-7V89.68a7,7,0,0,1,7-7h7a7,7,0,0,1,7,7Z"/><path class="cls-1" d="M90.68,44.39H70.61a6.94,6.94,0,0,0-6.23,3.86L59.32,58.32H31.45V44.39A20.92,20.92,0,0,1,52.36,23.48H69.78a20.92,20.92,0,0,1,20.9,20.91Z"/><path class="cls-1" d="M101.13,44.39a7,7,0,0,1,7,7,7,7,0,0,1-7,7H59.32l5.06-10.07a6.94,6.94,0,0,1,6.23-3.86h30.52Z"/><path class="cls-1" d="M52.36,82.71v17.42a30.57,30.57,0,0,1-20.91-29V58.32H52.36a12.59,12.59,0,0,0-7,11.29v.9a12.59,12.59,0,0,0,3.69,8.92Z"/><path class="cls-1" d="M143.63,152.38a13.2,13.2,0,0,1,13.24,13.17v.77H146.42c-3.66,0-7.14-.11-10.45-.28V152a66.33,66.33,0,0,0,7.31.41Z"/><path class="cls-1" d="M73.26,100.13v13.2A33.8,33.8,0,0,0,60,110.58a32.25,32.25,0,0,0-7.59.9V82.71l-3.28-3.28a12.59,12.59,0,0,1-3.69-8.92v-.9a12.59,12.59,0,0,1,7-11.29H90.68v5.26a7.59,7.59,0,0,0,.76,3.24l2,3.9A7.62,7.62,0,0,1,94.16,74a7.35,7.35,0,0,1-5,6.94l-5.47,1.81v5.54A11.85,11.85,0,0,1,73.26,100Z"/><path class="cls-1" d="M153.39,61.81V62a10.46,10.46,0,0,1-20.91,0v-.2a10.46,10.46,0,1,1,20.91,0Z"/><path class="cls-1" d="M122,93.16h41.81V135H122Z"/><path class="cls-1" d="M149.9,93.16v13.93H136V93.16H149.9Z"/><path d="M236,33.94V27H85.79a24.25,24.25,0,0,0-17-7H51.36a24.32,24.32,0,0,0-17,7H20v7h9.36A24.07,24.07,0,0,0,27,44.39V71.13a34,34,0,0,0,20.9,31.4v6.34A35.46,35.46,0,0,0,24.49,134,150.59,150.59,0,0,0,20,170.47V236H91L75.86,190.48l6.78-33.81c9.91,5.36,23.34,10,41.88,12v15h7V236h7V183.74h83.61V236h7V183.74h7v-20.9h-7V121a10.46,10.46,0,0,0-10.45-10.45H215.1V89.68a10.47,10.47,0,0,0-10.46-10.45h-7a10.46,10.46,0,0,0-10.45,10.45v48.77a10.46,10.46,0,0,0,10.45,10.45h7a10.47,10.47,0,0,0,10.46-10.45v-20.9h3.48a3.48,3.48,0,0,1,3.48,3.48v41.81h-63a16.81,16.81,0,0,0-16.78-13.94,63.38,63.38,0,0,1-25.94-5.51l-1.81-.8A66,66,0,0,1,88.6,121.93a36.86,36.86,0,0,0-12.86-10.77v-8.42a15.16,15.16,0,0,0,10.45-14.5v-3l3.09-1a10.77,10.77,0,0,0,6.23-15l-2-3.9a3.82,3.82,0,0,1-.4-1.69V61.81h7a10.45,10.45,0,0,0,0-20.9H92.91a23.82,23.82,0,0,0-2.13-7h47.67V48.37a13.92,13.92,0,0,0-10.17,10.68,31.39,31.39,0,0,0-24.67,30.63,17.46,17.46,0,0,0,13.94,17.07v31.7h48.77v-31.7a17.45,17.45,0,0,0,13.93-17.07,31.38,31.38,0,0,0-24.66-30.63,14,14,0,0,0-10.17-10.68V33.94ZM208.12,138.45a3.49,3.49,0,0,1-3.48,3.49h-7a3.49,3.49,0,0,1-3.48-3.49V89.68a3.49,3.49,0,0,1,3.48-3.49h7a3.49,3.49,0,0,1,3.48,3.49ZM110.58,89.68a24.39,24.39,0,0,1,18.17-23.56,13.92,13.92,0,0,0,9.7,9.13V89.68h-20.9v9.81A10.44,10.44,0,0,1,110.58,89.68Zm27.87,7h7v7h-7Zm20.9,34.83H124.51V96.65h7v13.93h20.9V96.65h7Zm-4.23-65.36a24.4,24.4,0,0,1,18.17,23.56,10.45,10.45,0,0,1-7,9.81V89.68h-20.9V75.25A13.93,13.93,0,0,0,155.12,66.12Zm-6.22-4.31a7,7,0,1,1-7-7A7,7,0,0,1,148.9,61.81ZM51.36,27H68.77A17.45,17.45,0,0,1,85.84,40.91H69.59a10.38,10.38,0,0,0-9.34,5.77l-4.08,8.16H33.94V44.39A17.43,17.43,0,0,1,51.36,27ZM33.94,71.13V61.81h9a16.1,16.1,0,0,0-2,7.79v.92A16,16,0,0,0,45.62,81.9l2.25,2.26v10.6A27,27,0,0,1,33.94,71.13ZM81.36,229H57.56l-2.83-11.3L48,219.42l2.4,9.61H27V194.15l42.78,0ZM229,176.77H131.48v-7H229Zm-86.39-20.9a9.71,9.71,0,0,1,9.3,7h-6.52c-2.4,0-4.71-.05-7-.13v-7.05c1.39.08,2.77.21,4.19.21ZM83,126.11A73,73,0,0,0,111.72,149l1.8.8a70.25,70.25,0,0,0,18,5.17v7.43c-43.52-3-58.83-20.18-67.42-29.8-1.21-1.36-2.29-2.56-3.27-3.55L55.86,134c.91.9,1.89,2,3,3.26a87.15,87.15,0,0,0,17.43,15.65L69.4,187.22l-42.43,0V170.47a143.66,143.66,0,0,1,4.28-34.79,28.51,28.51,0,0,1,27.69-21.62,30.25,30.25,0,0,1,24.09,12Zm4.3-57.72,2,3.89a3.89,3.89,0,0,1,.4,1.7,3.78,3.78,0,0,1-2.6,3.6L79.23,80.2v8a8.42,8.42,0,0,1-8.42,8.41h-9v7h7v4.88a36.48,36.48,0,0,0-9.83-1.4,37,37,0,0,0-4.1.26V81.27L50.54,77a9.1,9.1,0,0,1-2.67-6.46V69.6a9,9,0,0,1,4.51-7.79H86.19v1.77a10.84,10.84,0,0,0,1.14,4.81Zm12.8-20.52a3.49,3.49,0,0,1,0,7H64l2.52-5a3.46,3.46,0,0,1,3.12-1.93Z"/><path d="M146.42,225.54h69.67V190.7H146.42Zm7-27.87h55.74v20.9H153.39Z"/></svg>