<svg id="Layer_1" data-name="Layer 1" xmlns="http://www.w3.org/2000/svg" viewBox="0 0 256 256"><title>icons</title><path d="M172.06,162.57H139.75a5.51,5.51,0,1,0,0,11h32.31a5.51,5.51,0,0,0,0-11Z"/><path d="M172.06,119.54H139.75a5.51,5.51,0,1,0,0,11h32.31a5.51,5.51,0,1,0,0-11Z"/><path d="M108,112a5.51,5.51,0,0,0-7.76.7L91,123.86l-2.11-4.21A5.51,5.51,0,1,0,79,124.58l5.88,11.73a5.49,5.49,0,0,0,4.29,3c.21,0,.42,0,.63,0a5.52,5.52,0,0,0,4.23-2l14.69-17.59A5.51,5.51,0,0,0,108,112Z"/><path d="M101.83,152.86a5.51,5.51,0,0,0-7.69,1.28l-2.86,4-2.86-4a5.51,5.51,0,1,0-9,6.4l5.05,7.08-5.05,7.08a5.5,5.5,0,0,0,1.28,7.68,5.41,5.41,0,0,0,3.19,1,5.5,5.5,0,0,0,4.49-2.31l2.86-4,2.86,4a5.5,5.5,0,0,0,4.49,2.31,5.44,5.44,0,0,0,3.2-1,5.52,5.52,0,0,0,1.28-7.68l-5.06-7.08,5.06-7.08a5.51,5.51,0,0,0-1.28-7.68Z"/><path d="M180.51,52.89V50.52A16.54,16.54,0,0,0,164,34H92A16.54,16.54,0,0,0,75.49,50.52v2.37A27.61,27.61,0,0,0,54.93,79.53V194.46A27.57,27.57,0,0,0,82.47,222h91.06a27.57,27.57,0,0,0,27.54-27.54V79.53A27.61,27.61,0,0,0,180.51,52.89Zm-94-2.37A5.51,5.51,0,0,1,92,45h72a5.51,5.51,0,0,1,5.51,5.5V64.11A5.51,5.51,0,0,1,164,69.62H92a5.51,5.51,0,0,1-5.51-5.51ZM190.05,194.46A16.54,16.54,0,0,1,173.53,211H82.47A16.54,16.54,0,0,1,66,194.46V79.53a16.57,16.57,0,0,1,9.55-15A16.54,16.54,0,0,0,92,80.63h72A16.54,16.54,0,0,0,180.5,64.55a16.57,16.57,0,0,1,9.55,15Z"/></svg>