<svg id="Layer_1" data-name="Layer 1" xmlns="http://www.w3.org/2000/svg" viewBox="0 0 256 256"><title>icons</title><path d="M110.12,110.17v-7h-6.65v6.65H90.16v16.64a16.66,16.66,0,0,0,16.64,16.64,10,10,0,0,1,10,10v10h-10a10,10,0,0,1-10-10v-10H90.16v10a16.67,16.67,0,0,0,13.31,16.3v7h6.65v-6.66h13.31V153.09a16.65,16.65,0,0,0-16.63-16.64,10,10,0,0,1-10-10v-10h10a10,10,0,0,1,10,10v10h6.65v-10a16.66,16.66,0,0,0-13.31-16.3Z"/><path d="M232.39,203,190,173.32v16.37H164.74a76.23,76.23,0,0,0,17.79-60.9l12.64-12.64-3.74-3.72a9.27,9.27,0,0,1-1.9-10.23A9.17,9.17,0,0,1,198,96.52h5.27V69.9H198A9.37,9.37,0,0,1,191.43,54l3.74-3.72L176.34,31.45l-3.73,3.73a9.24,9.24,0,0,1-10.22,1.89,9.14,9.14,0,0,1-5.68-8.48V23.32H130.09v5.27a9.37,9.37,0,0,1-15.9,6.59l-3.73-3.73L91.63,50.28,95.37,54a9.2,9.2,0,0,1,2,9.84A76.51,76.51,0,0,0,48.8,189.69H23.61v26.62H190v16.37ZM101,50.31l9.49-9.49A16,16,0,0,0,136.68,30h13.43a16,16,0,0,0,26.18,10.85l9.5,9.49A16.05,16.05,0,0,0,196.64,76.5V89.93a16,16,0,0,0-10.85,26.18L181,120.93a75.88,75.88,0,0,0-8.89-21,33,33,0,0,0,4.59-16.68A33.22,33.22,0,0,0,116.4,63.87a76.13,76.13,0,0,0-9.6-.62c-.8,0-1.59,0-2.39.06a15.77,15.77,0,0,0-3.4-13Zm38.41,20.25A13.1,13.1,0,0,1,156.56,81.7a77.16,77.16,0,0,0-17.14-11.14Zm4-7.31a19.79,19.79,0,0,0-12,4.09,76.94,76.94,0,0,0-7.56-2.15,26.55,26.55,0,0,1,44,28.47,77.8,77.8,0,0,0-5-6,20.43,20.43,0,0,0,.56-4.48,20,20,0,0,0-20-20ZM30.27,209.65V196.34H106.8a56.57,56.57,0,1,0-26.61-6.65H57.93a69.85,69.85,0,1,1,48.87,20Zm26.62-69.87a49.91,49.91,0,1,1,49.91,49.91A50,50,0,0,1,56.89,139.78ZM138,209.65a76.62,76.62,0,0,0,20.34-13.31h38.35V186.1L220.78,203l-24.14,16.9V209.65Z"/><path d="M196.64,129.8h33.27v6.65H196.64Z"/><path d="M196.64,143.11h33.27v6.65H196.64Z"/><path d="M196.64,156.41h6.65v6.66h-6.65Z"/><path d="M210,156.41h6.65v6.66H210Z"/><path d="M223.26,156.41h6.65v6.66h-6.65Z"/><path d="M23.61,36.63H56.89v6.65H23.61Z"/><path d="M23.61,49.94H56.89v6.65H23.61Z"/><path d="M23.61,63.25h6.66V69.9H23.61Z"/><path d="M36.92,63.25h6.66V69.9H36.92Z"/><path d="M50.23,63.25h6.66V69.9H50.23Z"/></svg>