<svg id="Layer_1" data-name="Layer 1" xmlns="http://www.w3.org/2000/svg" viewBox="0 0 256 256"><title>icons</title><g id="id_card-passport-badge" data-name="id card-passport-badge"><path d="M126.41,42.05A9.56,9.56,0,1,0,136,51.61,9.56,9.56,0,0,0,126.41,42.05Zm0,12.74a3.19,3.19,0,1,1,3.18-3.18A3.19,3.19,0,0,1,126.41,54.79Z"/><path d="M120,67.53h12.74V73.9H120Z"/><path d="M218.75,162.52V77.08a9.57,9.57,0,0,0-9.55-9.55H145.51V35.68a3.18,3.18,0,0,0-3.18-3.18H110.49a3.19,3.19,0,0,0-3.19,3.18V67.53H43.62a9.58,9.58,0,0,0-9.56,9.55V179a9.58,9.58,0,0,0,9.56,9.55h90.21A44.58,44.58,0,0,0,221.94,179,44,44,0,0,0,218.75,162.52ZM113.67,38.87h25.48V80.26H113.67Zm19.27,143.29H43.62A3.18,3.18,0,0,1,40.43,179V77.08a3.18,3.18,0,0,1,3.19-3.18H107.3v9.55a3.18,3.18,0,0,0,3.19,3.18h31.84a3.18,3.18,0,0,0,3.18-3.18V73.9H209.2a3.18,3.18,0,0,1,3.18,3.18V151.5A44.52,44.52,0,0,0,132.78,179c0,1.08.09,2.13.16,3.18Zm44.42,35A38.21,38.21,0,1,1,215.57,179,38.21,38.21,0,0,1,177.36,217.19Z"/><path d="M167.8,193.58l-13.67-13.67-4.5,4.5,15.92,15.93a3.2,3.2,0,0,0,4.51,0l35-35-4.5-4.5Z"/><path d="M100.93,93H50a3.19,3.19,0,0,0-3.18,3.19v50.95A3.19,3.19,0,0,0,50,150.32h51a3.19,3.19,0,0,0,3.19-3.18V96.19A3.19,3.19,0,0,0,100.93,93ZM56.64,144a19.09,19.09,0,0,1,37.64,0Zm12.45-28.66a6.37,6.37,0,1,1,6.37,6.37A6.37,6.37,0,0,1,69.09,115.29Zm28.66,19.55a25.64,25.64,0,0,0-12.67-11.27,12.74,12.74,0,1,0-19.24,0,25.64,25.64,0,0,0-12.67,11.27V99.37H97.75Z"/><path d="M110.49,96.19H206v6.37H110.49Z"/><path d="M110.49,112.11H206v6.37H110.49Z"/><path d="M110.49,128h31.84v6.37H110.49Z"/></g></svg>